<svg xmlns="http://www.w3.org/2000/svg" viewBox="66.76 43.68 312.89 390.92"><path fill="#4682b4" d="m84.1 332.63 85.95 48.54 132-75.75-85.95-48.54-132 75.75z"/><path d="m84.1 332.63 85.95 48.54 132-75.75-85.95-48.54-132 75.75z" opacity=".6"/><path fill="#f5f5f5" d="m171 377.62-83-47.19c2.06-5.85 1.9-7.63-.43-15.43l82.55 46.71s1.43-.11.88 15.91Z"/><path fill="#4682b4" d="M166 355.31a16.67 16.67 0 0 1 7.59 13.07v10.2c0 4.82-3.4 6.77-7.59 4.36l-81.89-46.53v-3.78L165 378.28c2.52 1.45 4.55.28 4.55-2.61l-.07-9.09a10 10 0 0 0-4.56-7.84l-80.81-45.67v-4.29Z"/><path d="M166 355.31a16.67 16.67 0 0 1 7.59 13.07v10.2c0 4.82-3.4 6.77-7.59 4.36l-81.89-46.53v-3.78L165 378.28c2.52 1.45 4.55.28 4.55-2.61l-.07-9.09a10 10 0 0 0-4.56-7.84l-80.81-45.67v-4.29Z" opacity=".5"/><path fill="#4682b4" d="M84.11 308.79 216.1 233l81.9 46.57a16.66 16.66 0 0 1 7.59 13.07v10.21c0 2.39-.84 4.08-2.22 4.87l-132 75.75c1.38-.79 2.22-2.48 2.23-4.88v-10.22a16.66 16.66 0 0 0-7.6-13.06Z"/><path d="M84.11 308.79 216.1 233l81.9 46.57a16.66 16.66 0 0 1 7.59 13.07v10.21c0 2.39-.84 4.08-2.22 4.87l-132 75.75c1.38-.79 2.22-2.48 2.23-4.88v-10.22a16.66 16.66 0 0 0-7.6-13.06Z" opacity=".35"/><path fill="#4682b4" d="M171.4 360.94a15.37 15.37 0 0 1 2.22 7.43v10.22c0 2.4-.85 4.09-2.23 4.88l132-75.75c1.38-.79 2.22-2.48 2.22-4.87v-10.21a15.41 15.41 0 0 0-2.22-7.44Z"/><path d="M171.4 360.94a15.37 15.37 0 0 1 2.22 7.43v10.22c0 2.4-.85 4.09-2.23 4.88l132-75.75c1.38-.79 2.22-2.48 2.22-4.87v-10.21a15.41 15.41 0 0 0-2.22-7.44Z" opacity=".45"/><path fill="#4682b4" d="M285.55 295.33c2.45 10.67 2.45 14.85 0 22.67l-6.28 3.63c2.42-7.84 2.45-12 0-22.7ZM199 345.07c2.46 10.69 2.43 14.73 0 22.56l-6.28 3.63c2.42-7.84 2.46-11.88 0-22.56ZM66.76 307.51l85.95 48.54 132-75.74-85.95-48.54-132 75.74z"/><path d="m66.76 307.51 85.95 48.54 132-75.74-85.95-48.54-132 75.74z" opacity=".2"/><path fill="#f5f5f5" d="m153.65 352.5-83.06-47.18c2.06-5.86 1.91-8.48-.43-16.27l82.55 46.7s1.5.74.94 16.75Z"/><path fill="#4682b4" d="M148.68 329.36a16.64 16.64 0 0 1 7.59 13.06v11.05c0 4.81-3.4 6.76-7.59 4.36L66.77 311.3v-3.78l80.88 45.65c2.51 1.44 4.55.27 4.54-2.61l-.07-9.94a10 10 0 0 0-4.56-7.84l-80.79-45.67v-4.29Z"/><path fill="#4682b4" d="m66.77 282.83 132-75.74 81.9 46.52a16.67 16.67 0 0 1 7.59 13.07v11.05c0 2.4-.85 4.09-2.23 4.88L154 358.36c1.38-.8 2.22-2.49 2.23-4.88v-11.06a16.66 16.66 0 0 0-7.59-13.07Z"/><path fill="#fff" d="m66.77 282.83 132-75.74 81.9 46.52a16.67 16.67 0 0 1 7.59 13.07v11.05c0 2.4-.85 4.09-2.23 4.88L154 358.36c1.38-.8 2.22-2.49 2.23-4.88v-11.06a16.66 16.66 0 0 0-7.59-13.07Z" opacity=".6"/><path fill="#4682b4" d="M154.06 335a15.41 15.41 0 0 1 2.22 7.44v11.06c0 2.39-.85 4.08-2.23 4.88l132-75.75c1.38-.79 2.22-2.48 2.23-4.88v-11.07a15.41 15.41 0 0 0-2.22-7.44Z"/><path fill="#fff" d="M154.06 335a15.41 15.41 0 0 1 2.22 7.44v11.06c0 2.39-.85 4.08-2.23 4.88l132-75.75c1.38-.79 2.22-2.48 2.23-4.88v-11.07a15.41 15.41 0 0 0-2.22-7.44Z" opacity=".4"/><path fill="#4682b4" d="M268.21 269.37c2.46 10.68 2.42 15.7 0 23.53l-6.28 3.63c2.42-7.83 2.46-12.85 0-23.53ZM181.63 319.18c2.46 10.68 2.43 15.52 0 23.36l-6.29 3.62c2.43-7.83 2.46-12.7 0-23.38ZM336.73 177.46 312 191.73v-13.48l24.73-14.28 7.25 2.56-7.25 10.93z"/><path d="M336.73 177.46 312 191.73v-13.48l24.73-14.28 7.25 2.56-7.25 10.93z" opacity=".3"/><path fill="#4682b4" d="m339.6 155.24-24.73 14.27v-13.48l24.73-14.28 7.24 2.56-7.24 10.93z"/><path fill="#455a64" d="m339.6 267.5-24.73 14.27v-13.48l24.73-14.28 7.24 2.56-7.24 10.93z"/><path d="m187.68 284.74 1.39-107.04 60.25-36.79-61.51 36.06-.13 107.77z" opacity=".1"/><path d="m184.84 322.05.09-146.74 125.71-71.24-127.02 70.48 1.22 147.5z" opacity=".1"/><path d="M324.46 100.29c.26.52.39.82.39.82l-38.08 22L317 95.31c3.83.76 6.19 2.51 7.46 4.98Z" opacity=".1"/><path fill="#fafafa" d="m286.77 123.09 38.08-21.98.23-6.08-38.31 28.06z"/><path d="M188.36 373.48c.58 0 .91-.06.91-.06v-44l-9 40.06c2.62 2.97 5.32 4.15 8.09 4Z" opacity=".1"/><path fill="#fafafa" d="M189.27 329.45v43.97l-5.15 3.24 5.15-47.21zM331.65 318.03l-139.14 80.33V179.68l139.14-80.33v218.68z"/><path fill="#e0e0e0" d="M192.51 179.68v218.68l-11.59-6.7V172.99l11.59 6.69z"/><path d="M192.51 179.68v218.68l-11.59-6.7V172.99l11.59 6.69z" opacity=".05"/><path fill="#e6e6e6" d="m320.06 92.66-139.14 80.33 11.59 6.69 139.14-80.33-11.59-6.69z"/><path fill="#fafafa" d="m331.65 318.03-139.14 80.33V179.68l139.14-80.33v218.68z"/><path fill="#e0e0e0" d="m257.55 161.04-56.41 32.56v-8.25l56.41-32.57v8.26zM257.55 169.33l-56.41 32.57v-3.04l56.41-32.57v3.04zM257.55 175.23l-56.41 32.56v-3.04l56.41-32.56v3.04zM257.55 181.12l-56.41 32.57v-3.04l56.41-32.57v3.04zM257.55 187.02l-56.41 32.57v-3.04l56.41-32.57v3.04zM257.55 192.92l-56.41 32.57v-3.05l56.41-32.56v3.04zM257.55 198.81l-56.41 32.57v-3.04l56.41-32.57v3.04zM257.55 204.71l-56.41 32.57v-3.04l56.41-32.57v3.04zM257.55 210.61l-56.41 32.57v-3.05l56.41-32.57v3.05zM257.55 216.5l-56.41 32.57v-3.04l56.41-32.57v3.04zM257.55 222.4l-56.41 32.57v-3.04l56.41-32.57v3.04zM257.55 228.3l-56.41 32.57v-3.05l56.41-32.57v3.05zM323.02 131.53l-56.4 32.56v-3.04l56.4-32.56v3.04zM323.02 118.02l-29.61 17.1v-3.04l29.61-17.1v3.04zM323.02 137.42l-56.4 32.57v-3.04l56.4-32.57v3.04zM323.02 143.32l-56.4 32.57v-3.04l56.4-32.57v3.04zM323.02 149.22l-56.4 32.56v-3.04l56.4-32.56v3.04zM323.02 155.11l-56.4 32.57v-3.04l56.4-32.57v3.04zM323.02 161.01l-56.4 32.57v-3.04l56.4-32.57v3.04zM323.02 166.91l-56.4 32.56v-3.04l56.4-32.56v3.04zM323.02 172.8l-56.4 32.57v-3.04l56.4-32.57v3.04zM323.02 178.7l-56.4 32.57v-3.04l56.4-32.57v3.04zM323.02 184.6l-56.4 32.56v-3.04l56.4-32.56v3.04zM323.02 190.49l-56.4 32.57v-3.04l56.4-32.57v3.04zM323.02 198.41l-56.4 32.57v-3.04l56.4-32.57v3.04zM323.02 204.31l-56.4 32.57v-3.05l56.4-32.57v3.05zM323.02 210.2l-56.4 32.57v-3.04l56.4-32.57v3.04zM323.02 216.1l-56.4 32.57v-3.04l56.4-32.57v3.04zM323.02 222l-56.4 32.56v-3.04l56.4-32.56V222zM323.02 227.89l-56.4 32.57v-3.04l56.4-32.57v3.04zM323.02 233.79l-56.4 32.57v-3.04l56.4-32.57v3.04zM323.02 239.69l-56.4 32.56v-3.04l56.4-32.56v3.04zM323.02 245.58l-56.4 32.57v-3.04l56.4-32.57v3.04zM323.02 251.48l-56.4 32.57v-3.04l56.4-32.57v3.04zM257.55 297.32l-56.41 32.57v-3.04l56.41-32.57v3.04zM257.55 303.22l-56.41 32.57v-3.05l56.41-32.56v3.04zM257.55 309.11l-56.41 32.57v-3.04l56.41-32.57v3.04zM257.55 315.01l-56.41 32.57v-3.04l56.41-32.57v3.04zM257.55 320.91l-56.41 32.57v-3.05l56.41-32.56v3.04zM257.55 326.8l-56.41 32.57v-3.04l56.41-32.57v3.04zM257.55 332.7l-56.41 32.57v-3.04l56.41-32.57v3.04zM257.55 338.6l-56.41 32.57v-3.05l56.41-32.56v3.04zM257.55 344.49l-56.41 32.57v-3.04l56.41-32.57v3.04zM257.55 350.39l-56.41 32.57v-3.04l56.41-32.57v3.04zM254 291.06l-49.36 28.5c-1.94 1.12-3.52-.07-3.52-2.66v-46.08a8.47 8.47 0 0 1 3.52-6.74l49.36-28.5c1.95-1.12 3.53.07 3.53 2.67v46.08c.02 2.59-1.53 5.61-3.53 6.73Z"/><path fill="#fafafa" d="M205.52 312.44v-20.96l13.74-23.39 18.8 10.19-4.98-4.97 8.22-9.9 11.86 3.14v18.39l-47.64 27.5zM242.07 254.12a6.53 6.53 0 0 1-2.72 5.2c-1.51.87-2.72-.05-2.72-2.06a6.51 6.51 0 0 1 2.72-5.2c1.5-.86 2.72.06 2.72 2.06Z"/><path fill="#e0e0e0" d="M319.5 314.5 270.14 343c-1.95 1.13-3.52-.07-3.52-2.66v-46.08c0-2.6 1.57-5.61 3.52-6.74L319.5 259c1.95-1.13 3.52.07 3.52 2.66v46.08c-.02 2.63-1.57 5.64-3.52 6.76Z"/><path fill="#fafafa" d="M271 335.89v-20.97l13.74-23.39 18.8 10.2-4.99-4.98 8.23-9.9 11.86 3.15v18.38L271 335.89z"/><ellipse cx="304.82" cy="279.13" fill="#fafafa" rx="4.18" ry="2.36" transform="rotate(-66.95 304.812 279.133)"/><path fill="#4682b4" d="m323.02 174.08-56.4 32.57v-5.6l56.4-32.56v5.59zM257.55 322.18l-56.41 32.57v-5.59l56.41-32.57v5.59zM300.49 224.49l-33.87 19.56v-5.6l33.87-19.55v5.59z" opacity=".3"/><path fill="#e0e0e0" d="m331.65 99.35-69.68 39.96-69.46 40.37 69.71-39.94 68.89-39.42.08 217.46-138.68 80.58 139.14-80.33V99.35z"/><path d="m331.65 99.35-69.68 39.96-69.46 40.37 69.71-39.94 68.89-39.42.08 217.46-138.68 80.58 139.14-80.33V99.35z" opacity=".05"/><path fill="#4682b4" d="m208.49 153-1.35.78-1.52-7.61c-.05-1.63 1.13-3.51 2.27-5.34s2.08-3.32 2.05-4.53c-.11-3.45-4.12-3.75-7.65-1.71s-7.4 6.89-7.3 10.33c0 1.23 1.1 1.63 2.22 2.08s2.45.95 2.5 2.59v.07l-.65 8.82-1.3.75.66-8.94c-.06-.92-1-1.3-2-1.68-1.25-.48-2.66-1-2.72-2.93a12.39 12.39 0 0 1 2.69-7.06 19.84 19.84 0 0 1 5.88-5.51 8.85 8.85 0 0 1 6-1.35 3.62 3.62 0 0 1 3 3.8c.06 1.87-1.28 4-2.46 5.91-1 1.52-1.86 3-1.85 3.92Z"/><path fill="#263238" d="m191.65 166.79 26.58-15.35-2.23-2.76-23.58 13.61a1.9 1.9 0 0 0-1 1.75Z"/><path fill="#455a64" d="m203.89 187 1-15.52a1.4 1.4 0 0 0-.69-1.27l-11.62-6.71a.72.72 0 0 0-1.07.66l.13 2.6-.14-2.75a1.9 1.9 0 0 1 1-1.75l26.07-15a.7.7 0 0 1 .71 0l12.4 7.16a1.38 1.38 0 0 1 .68 1.26l-1 15.52Z"/><path fill="#37474f" d="m231.47 155.34-25.59 14.78a2 2 0 0 0-1 1.63l-1 15.28 8-4.6v1s.32 1.94 1.29 1.38l.68-.4 7.16-4.13.68-.39c1-.56 1.49-3 1.49-3l.05-1 8.18-4.73 1-15.32a.56.56 0 0 0-.94-.5Z"/><path fill="#4682b4" d="m226.79 175.51-2.26 1.3c-1.12.65-2.06.23-1.71-1.4l3.45-19.87c.44-1.93 2-4 3.46-6.05s2.71-3.69 3-5.12c.94-4.07-2.3-4.83-5.83-2.79s-8.18 7.35-9.11 11.42c-.33 1.43.43 2 1.24 2.65a2.78 2.78 0 0 1 1.31 3.3v.09l-8 22.45a7.49 7.49 0 0 1-3 4.11l-2.26 1.3.4-1.74 2.26-1.31a3.15 3.15 0 0 0 1.28-1.66v-.08l8.34-23.49c.24-1.11-.45-1.64-1.17-2.2a3.11 3.11 0 0 1-1.39-3.71c.56-2.41 1.72-4.22 3.94-7a21.1 21.1 0 0 1 6-5.43 6.31 6.31 0 0 1 5.53-.72c1.43.66 2.16 2 1.61 4.44-.52 2.23-2.15 4.21-3.68 6.3a16.63 16.63 0 0 0-2.7 4.43l-3.44 19.87c-.14.61.3.74.79.46l2.26-1.3Z"/><path fill="#455a64" d="M211.12 185.4a3.06 3.06 0 0 0-1.39-2.41 1 1 0 0 0-1-.1l-5.15 3 2 3.43 5.19-3a1 1 0 0 0 .35-.92Z"/><path fill="#263238" d="M204.55 189.19c.77.45 1.4.09 1.4-.8a3.09 3.09 0 0 0-1.4-2.42c-.77-.45-1.4-.09-1.4.8a3.09 3.09 0 0 0 1.4 2.42Z"/><path fill="#e0e0e0" d="M204.65 188.06a.28.28 0 0 0 .46-.27 1 1 0 0 0-.46-.8.28.28 0 0 0-.46.27 1 1 0 0 0 .46.8Z"/><path fill="#455a64" d="M232.7 173a3.08 3.08 0 0 0-1.39-2.42 1 1 0 0 0-1-.1l-5.15 3 2 3.42 5.19-3a1 1 0 0 0 .35-.9Z"/><path fill="#263238" d="M226.13 176.74c.77.45 1.4.09 1.4-.8a3.1 3.1 0 0 0-1.4-2.42c-.77-.45-1.4-.08-1.4.81a3.07 3.07 0 0 0 1.4 2.41Z"/><path fill="#e0e0e0" d="M225.8 175.84c.26.15.46 0 .46-.26a1 1 0 0 0-.46-.8c-.25-.15-.46 0-.46.27a1 1 0 0 0 .46.79Z"/><path fill="#4682b4" d="m225.9 174.52-.61.35a1.22 1.22 0 0 1-.66.2l.17 1.55a4.39 4.39 0 0 0 .63-.33l.64-.37.5-.29Z"/><path fill="#455a64" d="M222.45 178.77a1 1 0 0 1-.4.88l-7.43 4.29a1.93 1.93 0 0 0 .6-1.21 6.52 6.52 0 0 0 0-1.31A1.49 1.49 0 0 1 216 180l4.74-2.73a.86.86 0 0 1 1 .13 2 2 0 0 1 .71 1.37Z"/><path d="M165.15 265.88v49.66l41.14-23.76v-49.65l-41.14 23.75z" opacity=".15"/><path fill="#455a64" d="M216.57 289s-2 3.4-9.18 7.55l-36.24 20.92-4.34-43.17 41.13-23.75 2.71 29.4c.35 4.1 1.95 8.43 5.92 9.05Z"/><path fill="#37474f" d="m207.94 250.57-41.13 23.75v-7.62l41.13-23.75v7.62z"/><path fill="#fafafa" d="M203.72 270.64c-.58.61-1.68 1.39-2.4.53v-.05a4 4 0 0 0 .47-2.85c-.06-.23-.47-.67-.73-.4a2.94 2.94 0 0 0-.71 2.94 8.81 8.81 0 0 1-1.57 1.87 3.19 3.19 0 0 1-1.94 1c-.91 0-.8-1.44-.78-2.07 0-.28-.57-.89-.77-.46a16.16 16.16 0 0 1-1.93 3 10.07 10.07 0 0 1-1.36 1.55 2.06 2.06 0 0 1-.52.35 1.81 1.81 0 0 1 0-.22c0-.37-.57-.88-.8-.37-.46 1-1.21 3.4-2.52 3.68-.41.08-.74-.25-1.16-.25a1.23 1.23 0 0 0-.85.37 12.76 12.76 0 0 0-1.28 1.86c-.16.23-.47.76-.77.85s-.44-.65-.5-1-.38-.61-.66-.42a3.55 3.55 0 0 0-1.21 1.65 3 3 0 0 1-.3-1.1c0-.25-.47-.7-.69-.37a16.11 16.11 0 0 1-2.48 2.92c-.62.58-2.4 2.26-3.27 1.3a2 2 0 0 1-.44-1.42 6.06 6.06 0 0 0 2-2.07 10.74 10.74 0 0 0 1.69-4.73c0-.19-.16-.46-.36-.46-1.19 0-2 1.64-2.48 2.53a11.5 11.5 0 0 0-1.48 4.38v.14a2.32 2.32 0 0 1-1.21.14c-.18 0-.18.37 0 .41a2.71 2.71 0 0 0 1.24-.06 2.47 2.47 0 0 0 1.32 2.14c1.11.42 2.34-.55 3.13-1.22a16.56 16.56 0 0 0 2.53-2.69 2.82 2.82 0 0 0 .77 1.23c.17.16.47.23.57 0a4.76 4.76 0 0 1 .78-1.48c.22.68.62 1.36 1.37 1.14s1.43-1.52 1.88-2.21c.23-.35.49-.92 1-.9s.83.42 1.46.15c1.21-.51 1.85-1.93 2.38-3.17a.75.75 0 0 0 .45.2c.6.08 1.16-.54 1.53-.93a17.5 17.5 0 0 0 2.34-3 2.09 2.09 0 0 0 .92 1.37 2.33 2.33 0 0 0 2.45-.4 8.18 8.18 0 0 0 2.19-2.2c1.09 1.21 2.56.59 3.51-.5.15-.34-.46-1.06-.81-.7Zm-28.41 9.9a14 14 0 0 1 1.09-2.15 3.53 3.53 0 0 1 1.08-1.24 11.43 11.43 0 0 1-1.4 3.84 6.46 6.46 0 0 1-1.56 1.92 12.37 12.37 0 0 1 .79-2.37ZM205.8 290.68a26.42 26.42 0 0 1-12.8 2.95c-4.33 0-9.32-.61-12.74-3.48-.2-.17-.23-.79.16-.61a28.15 28.15 0 0 0 12.63 2.77 27.21 27.21 0 0 0 10.56-2.05l-.85-.12a15.66 15.66 0 0 1-2.15-.52 9.33 9.33 0 0 1-.93-.34 4.42 4.42 0 0 1-1-.63.42.42 0 0 1-.16-.45c.08-.2.21-.07.35-.09a3.13 3.13 0 0 1 1.09.19c.31.09.63.16.95.22.67.14 1.34.26 2 .36 1.38.19 2.77.27 4.16.36.48 0 .67.67.47 1.05a11.13 11.13 0 0 1-2.79 3.28c-.53.44-1.08.85-1.64 1.25a14.31 14.31 0 0 1-1.67 1.12c-.62.32-.87-.8-.5-1.15.92-.87 2.08-1.5 3.07-2.29a11.66 11.66 0 0 0 2-2H206a.75.75 0 0 1-.2.18Z"/><path fill="#263238" d="m317.85 229.73-.24-.41 11.59-6.68 13.5-20.04.4.27-13.61 20.15-11.64 6.71z"/><path fill="#263238" d="M318.79 229.53a1.06 1.06 0 1 1-1.06-1.07 1.06 1.06 0 0 1 1.06 1.07Z"/><path fill="#fafafa" d="M379.61 169.63V202a3.65 3.65 0 0 1-1.65 2.86l-36.88 21.31a1.11 1.11 0 0 1-.55.16.76.76 0 0 1-.21 0h-.14l-.15-.07a1.53 1.53 0 0 1-.43-.56 2 2 0 0 1-.17-.83v-32a3.63 3.63 0 0 1 1.65-2.85L378 168.68a1.21 1.21 0 0 1 1.11-.14l.14.08a.29.29 0 0 1 .11.11s0 0 .05.06a.22.22 0 0 1 .05.08.67.67 0 0 1 .1.21.83.83 0 0 1 0 .15.4.4 0 0 1 0 .15 1.48 1.48 0 0 1 .05.25Z"/><path fill="#e0e0e0" d="M378.7 169a.21.21 0 0 1 .12 0v.06l.06.17V202a3 3 0 0 1-1.36 2.35l-36.88 21.31a.54.54 0 0 1-.26.08h-.16a1.37 1.37 0 0 1-.22-.32 1.55 1.55 0 0 1-.11-.57v-32a3.12 3.12 0 0 1 1.36-2.35l36.88-21.28a1 1 0 0 1 .45-.15m0-.58a1.48 1.48 0 0 0-.73.22L341.08 190a3.63 3.63 0 0 0-1.65 2.85v32a2 2 0 0 0 .17.83 1.53 1.53 0 0 0 .43.56l.15.07h.14a.76.76 0 0 0 .21 0 1.15 1.15 0 0 0 .53-.16L378 204.88a3.66 3.66 0 0 0 1.64-2.86v-32.39a1.48 1.48 0 0 0 0-.21.4.4 0 0 0 0-.15.83.83 0 0 0 0-.15.67.67 0 0 0-.1-.21.22.22 0 0 0-.05-.08s0-.05-.05-.06a.29.29 0 0 0-.11-.11l-.14-.08a.77.77 0 0 0-.37-.08Z"/><path fill="#37474f" d="M379.07 168.54a1.21 1.21 0 0 0-1.11.14L341.08 190a3.63 3.63 0 0 0-1.65 2.85v5.38l-1.36-.81v-5.34a3.64 3.64 0 0 1 1.64-2.85l36.9-21.28a1.12 1.12 0 0 1 1.19-.1Z"/><path fill="#455a64" d="M379.61 169.62c0-1-.74-1.46-1.65-.94L341.07 190a3.65 3.65 0 0 0-1.64 2.85v5.38L379.61 175Z"/><path fill="#263238" d="M338.07 197.4v-5.35a3.39 3.39 0 0 1 .5-1.65l1.35.78a3.41 3.41 0 0 0-.49 1.64v5.38Z"/><path fill="#fafafa" d="M370.27 175.4a2.46 2.46 0 0 0-.93 2c0 .79.42 1.19.93.89a2.47 2.47 0 0 0 .93-2c0-.79-.42-1.19-.93-.89ZM373.62 173.46a2.44 2.44 0 0 0-.93 2c0 .79.41 1.19.93.89a2.44 2.44 0 0 0 .93-2c0-.78-.42-1.19-.93-.89ZM377 171.52a2.44 2.44 0 0 0-.93 2c0 .79.41 1.19.93.9a2.47 2.47 0 0 0 .93-2c-.03-.79-.45-1.19-.93-.9Z"/><path fill="#e0e0e0" d="m340 226.2-.2-.12c-.15-.1-1-.62-1.07-.64a1.38 1.38 0 0 1-.5-.56 2 2 0 0 1-.19-.87v-26.62l1.36.81v26.61a2 2 0 0 0 .17.83 1.65 1.65 0 0 0 .43.56ZM376.37 185.5l-33.7 19.46v-2.8l33.7-19.46v2.8zM376.37 191.93l-33.7 19.46v-2.8l33.7-19.46v2.8zM376.37 198.35l-33.7 19.46v-2.8l33.7-19.45v2.79z"/><path fill="#263238" d="M256.87 153.32a1.07 1.07 0 1 1-1.06-1.06 1.07 1.07 0 0 1 1.06 1.06Z"/><path fill="#263238" d="M256.04 153.32h-.47v-47.36l.05-.06 17.45-22.15.37.29-17.4 22.09v47.19z"/><path fill="#fafafa" d="M313.87 45.61V78a3.66 3.66 0 0 1-1.64 2.86l-36.89 21.31a1.11 1.11 0 0 1-.55.16.76.76 0 0 1-.21 0h-.14l-.15-.07a1.53 1.53 0 0 1-.43-.56 2 2 0 0 1-.17-.83v-32a3.63 3.63 0 0 1 1.65-2.87l36.89-21.29a1.19 1.19 0 0 1 1.1-.14l.14.08a.36.36 0 0 1 .1.11s0 0 .05.06a.24.24 0 0 1 .06.08 1 1 0 0 1 .09.21.42.42 0 0 1 0 .15.77.77 0 0 1 0 .15 1.48 1.48 0 0 1 .1.2Z"/><path fill="#e0e0e0" d="M313 45a.21.21 0 0 1 .12 0h.05v.06l.06.17V78a3 3 0 0 1-1.36 2.35l-36.88 21.31a.54.54 0 0 1-.25.08h-.17a1.37 1.37 0 0 1-.22-.32 1.55 1.55 0 0 1-.11-.57v-32a3.12 3.12 0 0 1 1.36-2.35l36.89-21.28A.92.92 0 0 1 313 45m0-.58a1.48 1.48 0 0 0-.73.22L275.34 66a3.63 3.63 0 0 0-1.65 2.85v32a2 2 0 0 0 .17.83 1.53 1.53 0 0 0 .43.56l.15.07h.14a.76.76 0 0 0 .21 0 1.11 1.11 0 0 0 .53-.16l36.89-21.31a3.66 3.66 0 0 0 1.66-2.84V45.61a1.48 1.48 0 0 0 0-.21.77.77 0 0 0 0-.15.42.42 0 0 0 0-.15 1 1 0 0 0-.09-.21.24.24 0 0 0-.06-.08s0-.05-.05-.06a.36.36 0 0 0-.1-.11l-.14-.08a.77.77 0 0 0-.37-.08Z"/><path fill="#37474f" d="M313.33 44.52a1.19 1.19 0 0 0-1.1.14L275.34 66a3.63 3.63 0 0 0-1.65 2.85v5.38l-1.36-.81V68a3.66 3.66 0 0 1 1.67-2.82l36.9-21.28a1.14 1.14 0 0 1 1.19-.1Z"/><path fill="#455a64" d="M313.87 45.6c0-1-.74-1.46-1.64-.94L275.34 66a3.63 3.63 0 0 0-1.65 2.85v5.38L313.87 51Z"/><path fill="#263238" d="M272.33 73.38V68a3.5 3.5 0 0 1 .5-1.65l1.35.78a3.41 3.41 0 0 0-.49 1.64v5.38Z"/><path fill="#fafafa" d="M304.53 51.38a2.46 2.46 0 0 0-.93 2c0 .79.42 1.19.93.89a2.44 2.44 0 0 0 .93-2c0-.79-.41-1.19-.93-.89ZM307.88 49.44a2.47 2.47 0 0 0-.93 2c0 .79.42 1.19.93.9a2.47 2.47 0 0 0 .93-2c0-.79-.42-1.19-.93-.9ZM311.23 47.51a2.41 2.41 0 0 0-.93 2c0 .79.41 1.2.93.9a2.47 2.47 0 0 0 .93-2c0-.8-.42-1.2-.93-.9Z"/><path fill="#e0e0e0" d="M274.29 102.18a1.17 1.17 0 0 0-.2-.12c-.15-.1-1-.62-1.07-.64a1.38 1.38 0 0 1-.5-.56 2 2 0 0 1-.19-.87V73.37l1.36.81v26.61a2.18 2.18 0 0 0 .17.83 1.65 1.65 0 0 0 .43.56ZM310.63 61.48l-33.7 19.46v-2.8l33.7-19.46v2.8zM310.63 67.91l-33.7 19.46v-2.8l33.7-19.46v2.8zM310.63 74.33l-33.7 19.46v-2.8l33.7-19.45v2.79z"/><path fill="#263238" d="M202.26 236.13a1.07 1.07 0 1 1-1.06-1.07 1.07 1.07 0 0 1 1.06 1.07Z"/><path fill="#263238" d="m190.83 242.27-24.2-14.11.24-.41 23.97 13.97 10.24-5.8.23.41-10.48 5.94z"/><path fill="#fafafa" d="M169.59 209v32.39a3.65 3.65 0 0 1-1.65 2.86l-36.89 21.31a1.11 1.11 0 0 1-.55.16.76.76 0 0 1-.21 0l-.14-.05-.14-.07a1.5 1.5 0 0 1-.44-.55 2.09 2.09 0 0 1-.17-.84v-32a3.63 3.63 0 0 1 1.65-2.85L167.94 208a1.21 1.21 0 0 1 1.11-.14l.14.08a.52.52 0 0 1 .1.11.13.13 0 0 1 0 .06s.05 0 .06.09a.67.67 0 0 1 .09.21.33.33 0 0 1 0 .14.78.78 0 0 1 0 .16 1.23 1.23 0 0 1 .15.29Z"/><path fill="#e0e0e0" d="M168.67 208.36a.28.28 0 0 1 .13 0v.11l.06.18a.86.86 0 0 1 0 .16v32.39a3 3 0 0 1-1.35 2.35L130.76 265a.44.44 0 0 1-.25.08h-.2a1 1 0 0 1-.21-.32 1.37 1.37 0 0 1-.11-.57v-32a3.11 3.11 0 0 1 1.35-2.35l36.89-21.28a.92.92 0 0 1 .44-.15m0-.58a1.48 1.48 0 0 0-.73.22l-36.89 21.29a3.63 3.63 0 0 0-1.65 2.85v32a2.09 2.09 0 0 0 .17.84 1.5 1.5 0 0 0 .44.55l.14.07.14.05a.76.76 0 0 0 .21 0 1.11 1.11 0 0 0 .52-.16l36.89-21.31a3.65 3.65 0 0 0 1.65-2.86V209a1.23 1.23 0 0 0 0-.2.78.78 0 0 0 0-.16.33.33 0 0 0 0-.14.67.67 0 0 0-.09-.21s0-.06-.06-.09a.13.13 0 0 0 0-.06.52.52 0 0 0-.1-.11l-.14-.08a1 1 0 0 0-.38-.08Z"/><path fill="#37474f" d="M169.05 207.86a1.21 1.21 0 0 0-1.11.14l-36.89 21.29a3.63 3.63 0 0 0-1.65 2.85v5.38l-1.36-.8v-5.35a3.65 3.65 0 0 1 1.65-2.85l36.89-21.28a1.14 1.14 0 0 1 1.19-.1c.3.18.92.54 1.28.72Z"/><path fill="#455a64" d="M169.58 208.94c0-1-.74-1.46-1.64-.94l-36.89 21.29a3.63 3.63 0 0 0-1.65 2.85v5.38l40.18-23.18Z"/><path fill="#263238" d="M128 236.72v-5.35a3.5 3.5 0 0 1 .5-1.65l1.36.78a3.32 3.32 0 0 0-.5 1.64v5.38Z"/><path fill="#fafafa" d="M160.24 214.72a2.47 2.47 0 0 0-.93 2c0 .79.42 1.19.93.89a2.41 2.41 0 0 0 .93-2c0-.79-.41-1.19-.93-.89ZM163.59 212.78a2.47 2.47 0 0 0-.93 2c0 .79.42 1.19.93.9a2.47 2.47 0 0 0 .93-2c0-.79-.42-1.19-.93-.9ZM166.94 210.85a2.44 2.44 0 0 0-.93 2c0 .79.42 1.19.93.89a2.47 2.47 0 0 0 .93-2c0-.74-.42-1.19-.93-.89Z"/><path fill="#e0e0e0" d="m130 265.52-.21-.12c-.15-.09-1-.62-1.07-.63a1.46 1.46 0 0 1-.5-.57 2 2 0 0 1-.19-.87v-26.61l1.36.8v26.61a2.28 2.28 0 0 0 .17.84 1.41 1.41 0 0 0 .44.55ZM166.34 224.82l-33.7 19.46v-2.8l33.7-19.45v2.79zM166.34 231.25l-33.7 19.46v-2.8l33.7-19.46v2.8zM166.34 237.68l-33.7 19.45v-2.79l33.7-19.46v2.8z"/><path fill="#455a64" d="M252.6 152.38a23.86 23.86 0 0 0-11.7 7.83 17.59 17.59 0 0 0-3.88 6.42c-.58 2-.27 4.35 2 5.07a5.61 5.61 0 0 0 3-.08 18.69 18.69 0 0 0 3.49-1.2 38.81 38.81 0 0 0 6.53-3.89 28.29 28.29 0 0 0 5.71-5.38 12.18 12.18 0 0 0 1.73-3.06 4.77 4.77 0 0 0 .33-3c-.54-1.7-2.69-2.1-4.24-2a15.4 15.4 0 0 0-6.67 2.61c-.39.24.19.8.54.61A19.83 19.83 0 0 1 255 154a4.24 4.24 0 0 1 3.39.51c.78.67.54 1.88.27 2.74a10.37 10.37 0 0 1-1.44 2.88 23.79 23.79 0 0 1-4.74 4.82 42.1 42.1 0 0 1-5.48 3.65 19.45 19.45 0 0 1-6.11 2.32 2.67 2.67 0 0 1-2.39-.55 3.15 3.15 0 0 1-.53-3 14.54 14.54 0 0 1 2.9-5.49 27.89 27.89 0 0 1 11.88-9.1c.19-.07.08-.47-.11-.42ZM211.4 225.35a15.67 15.67 0 0 0-7.75 5.3 10.77 10.77 0 0 0-2.33 4c-.34 1.3 0 2.76 1.4 3.16s3.07-.36 4.3-.93a26.57 26.57 0 0 0 4.18-2.53 17.26 17.26 0 0 0 3.68-3.56c.7-1 1.58-2.51 1.17-3.75-.34-1.06-1.68-1.33-2.66-1.28a9.77 9.77 0 0 0-4.36 1.68c-.26.16.12.52.35.4a13.55 13.55 0 0 1 3.45-1.44 3 3 0 0 1 2.2.23c1.15.79-.08 2.89-.65 3.7a15 15 0 0 1-3 3 18 18 0 0 1-7.33 3.86 1.91 1.91 0 0 1-1.75-.27 2.08 2.08 0 0 1-.33-2.15 9.86 9.86 0 0 1 2-3.52 18 18 0 0 1 7.52-5.69c.12-.05.05-.3-.08-.27ZM313.33 227.19a15.55 15.55 0 0 0-7.75 5.29 10.81 10.81 0 0 0-2.33 4c-.34 1.29-.05 2.75 1.4 3.15s3.07-.35 4.3-.93a25.33 25.33 0 0 0 4.17-2.53 16.84 16.84 0 0 0 3.69-3.56c.7-.95 1.58-2.5 1.17-3.74-.34-1.06-1.68-1.34-2.66-1.28a9.85 9.85 0 0 0-4.32 1.71c-.25.15.13.51.36.39a13.53 13.53 0 0 1 3.45-1.43 3 3 0 0 1 2.19.23c1.16.79-.07 2.89-.64 3.7a15.27 15.27 0 0 1-3 3 18.32 18.32 0 0 1-7.33 3.86 1.94 1.94 0 0 1-1.75-.27 2.09 2.09 0 0 1-.33-2.15 9.79 9.79 0 0 1 1.95-3.53 18.09 18.09 0 0 1 7.53-5.69c.12 0 0-.3-.08-.26ZM330.31 350.58 297 372.64h-.05a3.35 3.35 0 0 0-1.29 3 10.37 10.37 0 0 0 4.81 8.1 3.33 3.33 0 0 0 3.35.29l35.28-18.42a8.74 8.74 0 1 0-8.78-15.1Z"/><path fill="#37474f" d="m303.81 384.1 35.28-18.42a8.74 8.74 0 0 0 .63-15c2.17 2 2 7.32-3.8 10.82s-27.47 15-37.31 20.84a7.82 7.82 0 0 0 1.85 1.46 3.33 3.33 0 0 0 3.35.3Z"/><path fill="#4682b4" d="M295.65 375.73a10.39 10.39 0 0 0 4.83 8.09 3.37 3.37 0 0 0 3.25.33c.62-.34 3-1.58 3.63-1.92a3.35 3.35 0 0 0 1.48-3.22 10.76 10.76 0 0 0-5-8.35 3.36 3.36 0 0 0-3.53-.23l-3.39 2.25a3.32 3.32 0 0 0-1.27 3.05Z"/><path fill="#4682b4" d="M295.65 375.73c0-3 2-4.25 4.67-2.79a10.41 10.41 0 0 1 4.83 8.09c0 3-2 4.26-4.67 2.79a10.39 10.39 0 0 1-4.83-8.09Z"/><path fill="#fff" d="M295.65 375.73c0-3 2-4.25 4.67-2.79a10.41 10.41 0 0 1 4.83 8.09c0 3-2 4.26-4.67 2.79a10.39 10.39 0 0 1-4.83-8.09Z" opacity=".3"/><path fill="#37474f" d="M287.55 389.45a6.88 6.88 0 0 1-3.19-5.37 2.16 2.16 0 0 1 .88-2l12.39-7.34a2.2 2.2 0 0 1 2.2.19 6.92 6.92 0 0 1 3.19 5.37 2.19 2.19 0 0 1-.89 2l-12.39 7.35a2.18 2.18 0 0 1-2.19-.2Z"/><path fill="#263238" d="M289.77 389.63a2.18 2.18 0 0 1-2.22-.18 5.85 5.85 0 0 1-1.77-1.61l16.71-9.84a6 6 0 0 1 .56 2.31 2.19 2.19 0 0 1-.89 2l-12.39 7.35Z"/><path fill="#4682b4" d="M297 395.87c0-6.73-4.45-13.47-13.35-18.61-17.8-10.27-46.67-10.27-64.47 0-8.9 5.14-13.35 11.88-13.35 18.61v12.41c0 6.74 4.45 13.47 13.35 18.61 17.8 10.28 46.67 10.28 64.47 0C292.54 421.75 297 415 297 408.28v-12.41Zm-75.61-14.79c8-4.59 18.61-7.12 30-7.12s22.07 2.53 30 7.12c7.19 4.15 11.15 9.41 11.15 14.79s-4 10.65-11.15 14.8c-7.95 4.59-18.61 7.11-30 7.11s-22.08-2.52-30-7.11c-7.19-4.15-11.15-9.41-11.15-14.8s3.95-10.64 11.14-14.79Z"/><path fill="#fff" d="M297 395.87c0-6.73-4.45-13.47-13.35-18.61-17.8-10.27-46.67-10.27-64.47 0-8.9 5.14-13.35 11.88-13.35 18.61v12.41c0 6.74 4.45 13.47 13.35 18.61 17.8 10.28 46.67 10.28 64.47 0C292.54 421.75 297 415 297 408.28v-12.41Zm-75.61-14.79c8-4.59 18.61-7.12 30-7.12s22.07 2.53 30 7.12c7.19 4.15 11.15 9.41 11.15 14.79s-4 10.65-11.15 14.8c-7.95 4.59-18.61 7.11-30 7.11s-22.08-2.52-30-7.11c-7.19-4.15-11.15-9.41-11.15-14.8s3.95-10.64 11.14-14.79Z" opacity=".3"/><path fill="#4682b4" d="M212.37 389.08a12.56 12.56 0 0 0-2.14 6.79c0 5.39 4 10.65 11.15 14.8a49.91 49.91 0 0 0 11.31 4.65v17a54.64 54.64 0 0 1-13.52-5.39c-8.9-5.14-13.35-11.87-13.35-18.61v-12.45a16.92 16.92 0 0 1 2.85-9.16Z" opacity=".4"/><path fill="#fff" d="M297 395.87v12.41c0 6.74-4.45 13.47-13.35 18.61a50.63 50.63 0 0 1-7.84 3.62l-.07-17.09a46.28 46.28 0 0 0 5.7-2.75c7.19-4.15 11.15-9.41 11.15-14.8a11.93 11.93 0 0 0-1.3-5.29l3.45-2.88a16.5 16.5 0 0 1 2.26 8.17Z" opacity=".3"/><path fill="#4682b4" d="M219.17 414.48c17.8 10.28 46.66 10.28 64.47 0s17.8-26.94 0-37.22-46.67-10.27-64.47 0-17.8 26.95 0 37.22Zm-8.94-18.61c0-5.38 4-10.64 11.14-14.79 7.95-4.59 18.62-7.12 30-7.12s22.08 2.53 30 7.12c7.19 4.15 11.15 9.41 11.15 14.79s-4 10.65-11.15 14.8c-7.95 4.59-18.61 7.11-30 7.11s-22.08-2.52-30-7.11c-7.18-4.15-11.14-9.41-11.14-14.8Z"/><path fill="#fff" d="M219.17 414.48c17.8 10.28 46.66 10.28 64.47 0s17.8-26.94 0-37.22-46.67-10.27-64.47 0-17.8 26.95 0 37.22Zm-8.94-18.61c0-5.38 4-10.64 11.14-14.79 7.95-4.59 18.62-7.12 30-7.12s22.08 2.53 30 7.12c7.19 4.15 11.15 9.41 11.15 14.79s-4 10.65-11.15 14.8c-7.95 4.59-18.61 7.11-30 7.11s-22.08-2.52-30-7.11c-7.18-4.15-11.14-9.41-11.14-14.8Z" opacity=".5"/><path fill="#fff" d="M291.7 383.44a20 20 0 0 1 5 8.81 15.83 15.83 0 0 1-.89 10.09 23.44 23.44 0 0 1-6.12 8.17 38.55 38.55 0 0 1-4.09 3.1c-.72.46-1.44.92-2.19 1.32l-2.27 1.19a22.27 22.27 0 0 1-2.33 1.07c-.78.34-1.56.68-2.35 1l-2.43.83-1.21.42c-.4.13-.82.22-1.23.34a75.11 75.11 0 0 1-40.42 0c-.41-.12-.82-.21-1.23-.34l-1.21-.42-2.42-.83c-.79-.32-1.57-.66-2.36-1a23.33 23.33 0 0 1-2.32-1.08l-2.27-1.19c-.76-.4-1.48-.86-2.2-1.32a38.43 38.43 0 0 1-4.08-3.1 23.46 23.46 0 0 1-6.13-8.17 15.9 15.9 0 0 1-.89-10.09 20.19 20.19 0 0 1 5-8.81 34.9 34.9 0 0 1 8.07-6.18 34.61 34.61 0 0 0-7.94 6.3 19.79 19.79 0 0 0-4.81 8.77 15.53 15.53 0 0 0 1 9.83 23.11 23.11 0 0 0 6.07 7.94 39 39 0 0 0 8.47 5.47 20.84 20.84 0 0 0 2.3 1.06c.78.32 1.55.66 2.33 1l2.4.82 1.2.4c.4.13.81.23 1.22.34a76.23 76.23 0 0 0 40.07 0c.4-.11.81-.21 1.22-.34l1.2-.4 2.39-.82c.79-.31 1.56-.65 2.34-1a21.73 21.73 0 0 0 2.3-1.06 38.29 38.29 0 0 0 8.46-5.47 23 23 0 0 0 6.08-7.94 15.59 15.59 0 0 0 1-9.83 19.89 19.89 0 0 0-4.81-8.77 34.83 34.83 0 0 0-7.94-6.3 34.85 34.85 0 0 1 8.02 6.19Z" opacity=".4"/><path fill="#4682b4" d="M210.22 395.87a12.17 12.17 0 0 0 1.79 6.21c1.8-3.13 5-6.07 9.37-8.59 7.94-4.59 18.61-7.12 30-7.12s22.07 2.53 30 7.12c4.38 2.52 7.56 5.46 9.38 8.59a12.34 12.34 0 0 0 1.77-6.21c0-5.38-4-10.64-11.15-14.79-7.95-4.59-18.61-7.12-30-7.12s-22.09 2.53-30 7.12c-7.2 4.15-11.16 9.41-11.16 14.79Z"/><path fill="#fff" d="M210.22 395.87a12.17 12.17 0 0 0 1.79 6.21c1.8-3.13 5-6.07 9.37-8.59 7.94-4.59 18.61-7.12 30-7.12s22.07 2.53 30 7.12c4.38 2.52 7.56 5.46 9.38 8.59a12.34 12.34 0 0 0 1.77-6.21c0-5.38-4-10.64-11.15-14.79-7.95-4.59-18.61-7.12-30-7.12s-22.09 2.53-30 7.12c-7.2 4.15-11.16 9.41-11.16 14.79Z" opacity=".3"/><path fill="#4682b4" d="M281.43 381.08c7.19 4.15 11.15 9.41 11.15 14.79a12.34 12.34 0 0 1-1.77 6.21c-1.82-3.13-5-6.07-9.38-8.59a45.8 45.8 0 0 0-5.76-2.77c1.74.67 7.07 2.39 5.13-2.7-2.31-6-13.59-12.58-21.88-13.66a56.93 56.93 0 0 1 22.51 6.72Z" opacity=".4"/><path fill="#fff" d="M221.37 386.7c7.95-4.59 18.62-7.12 30-7.12s22.08 2.53 30 7.12c5.93 3.42 9.66 7.6 10.78 12-1.12 4.39-4.85 8.56-10.78 12-7.95 4.59-18.61 7.11-30 7.11s-22.08-2.52-30-7.11c-5.93-3.43-9.65-7.6-10.78-12 1.13-4.4 4.85-8.58 10.78-12Z" opacity=".7"/><path fill="#4682b4" d="M191.67 44v26.4l-2.39 1.34v-8.32c0-4.49-3.66-6-8.16-3.42l-11.2 6.47v47.61c0 5.21 3.18 7.59 7.11 5.32l6.95-4h.07l7.62 4.4-38.1 22-5.15-3-2.42 1.41v-2.86l7-4.06c3.93-2.27 7.11-8.33 7.11-13.53V72.15l-11.2 6.46c-4.5 2.61-8.16 8.35-8.16 12.84v8.32l-2.4 1.43V74.8Z"/><path fill="#fff" d="M191.67 44v26.4l-2.39 1.34v-8.32c0-4.49-3.66-6-8.16-3.42l-11.2 6.47v47.61c0 5.21 3.18 7.59 7.11 5.32l6.95-4h.07l7.62 4.4-38.1 22-5.15-3-2.42 1.41v-2.86l7-4.06c3.93-2.27 7.11-8.33 7.11-13.53V72.15l-11.2 6.46c-4.5 2.61-8.16 8.35-8.16 12.84v8.32l-2.4 1.43V74.8Z" opacity=".2"/><path fill="#4682b4" d="m196.9 76.14-7.62-4.4V58.59l7.62 1.44v16.11z"/><path fill="#4682b4" d="M199.3 48.4v26.4l-2.4 1.34v-8.32c0-4.49-3.65-6-8.16-3.42l-11.2 6.47v47.61c0 5.21 3.18 7.59 7.11 5.32l7-4.06v2.87l-38.1 22v-2.86l7-4.06c3.92-2.27 7.11-8.33 7.11-13.53V76.55L156.5 83c-4.5 2.61-8.16 8.35-8.16 12.84v8.32L146 105.6V79.2Z"/><path fill="#fff" d="M199.3 48.4v26.4l-2.4 1.34v-8.32c0-4.49-3.65-6-8.16-3.42l-11.2 6.47v47.61c0 5.21 3.18 7.59 7.11 5.32l7-4.06v2.87l-38.1 22v-2.86l7-4.06c3.92-2.27 7.11-8.33 7.11-13.53V76.55L156.5 83c-4.5 2.61-8.16 8.35-8.16 12.84v8.32L146 105.6V79.2Z" opacity=".5"/><path fill="#4682b4" d="m191.68 44 7.62 4.4-53.35 30.8-7.63-4.4L191.68 44z"/><path fill="#fff" d="m191.68 44 7.62 4.4-53.35 30.8-7.63-4.4L191.68 44z" opacity=".7"/><path fill="#4682b4" d="m138.32 74.8 7.63 4.4v26.4l-7.63-4.4V74.8z"/><path fill="#fff" d="m138.32 74.8 7.63 4.4v26.4l-7.63-4.4V74.8z" opacity=".2"/><path fill="#4682b4" d="m145.95 137.35 7.62 4.4v2.86l-7.62-4.4v-2.86z"/></svg>