<svg xmlns="http://www.w3.org/2000/svg" viewBox="74.04 86.27 317.4 329.24"><path fill="#4682b4" d="M242.35 386.62c-.94-32.63-2.14-189.64-.26-206l3.75-4.09s-.09 4.69-.18 17.18c-.39 55.9-1.84 184.57-1.52 192.88Z"/><path fill="#fff" d="M242.35 386.62c-.94-32.63-2.14-189.64-.26-206l3.75-4.09s-.09 4.69-.18 17.18c-.39 55.9-1.84 184.57-1.52 192.88Z" opacity=".6"/><path fill="#4682b4" d="M257.66 293.8a123.67 123.67 0 0 1 31.46-22.8c8.63-4.22-14 23.34-22.86 33.61S246.5 326.23 243 335.82c-.7-19.54 3.74-31.15 14.66-42.02Z"/><path fill="#fff" d="M257.66 293.8a123.67 123.67 0 0 1 31.46-22.8c8.63-4.22-14 23.34-22.86 33.61S246.5 326.23 243 335.82c-.7-19.54 3.74-31.15 14.66-42.02Z" opacity=".6"/><path fill="#4682b4" d="M242.91 210.39c-6.74-29.74-4.66-46.84 2.93-65.17 7.1-17.14 12.64-24.8 20.89-31.29 2.13-1.67-2.66 22.29-10 40.15-5.18 12.6-7.75 29-11.33 38.44-2.49 6.48-2.49 17.87-2.49 17.87Z"/><path fill="#fff" d="M242.91 210.39c-6.74-29.74-4.66-46.84 2.93-65.17 7.1-17.14 12.64-24.8 20.89-31.29 2.13-1.67-2.66 22.29-10 40.15-5.18 12.6-7.75 29-11.33 38.44-2.49 6.48-2.49 17.87-2.49 17.87Z" opacity=".6"/><path fill="#4682b4" d="M243.27 275.56c-.74-17.8-1.63-35 11.9-57.61 3.29-5.51 32.4-52 42.45-54.8 4.93-1.36-3.83 34.61-17.29 56.08-10.1 16.09-14.76 20.35-25.81 39.13-4.35 7.4-11.25 17.2-11.25 17.2Z"/><path fill="#fff" d="M243.27 275.56c-.74-17.8-1.63-35 11.9-57.61 3.29-5.51 32.4-52 42.45-54.8 4.93-1.36-3.83 34.61-17.29 56.08-10.1 16.09-14.76 20.35-25.81 39.13-4.35 7.4-11.25 17.2-11.25 17.2Z" opacity=".6"/><path fill="#4682b4" d="M225.89 202.05c-11.88-11.46-23.53-19-32.16-22.81s14.09 24.7 25 37.08 20.91 23.12 25.19 34.14c-1.23-23.61-6.14-36.94-18.03-48.41Z"/><path fill="#fff" d="M225.89 202.05c-11.88-11.46-23.53-19-32.16-22.81s14.09 24.7 25 37.08 20.91 23.12 25.19 34.14c-1.23-23.61-6.14-36.94-18.03-48.41Z" opacity=".6"/><path fill="#4682b4" d="M243.93 309.32C242 295.91 237.6 280.6 230.85 270s-17.14-26.76-25.74-31.13c-2.06-1.05 9.31 31.7 14.82 40.76a98.76 98.76 0 0 0 16.31 20.39c1.46 1.51 7.69 9.3 7.69 9.3Z"/><path fill="#fff" d="M243.93 309.32C242 295.91 237.6 280.6 230.85 270s-17.14-26.76-25.74-31.13c-2.06-1.05 9.31 31.7 14.82 40.76a98.76 98.76 0 0 0 16.31 20.39c1.46 1.51 7.69 9.3 7.69 9.3Z" opacity=".6"/><path fill="#4682b4" d="M258.38 395.08h-30.24l-2.28-32.58h34.8l-2.28 32.58z"/><path fill="#4682b4" d="M262.91 367.99h-39.3l-1.13-8.49h41.56l-1.13 8.49z"/><g opacity=".4"><path d="M258.38 395.08h-30.24l-2.28-32.58h34.8l-2.28 32.58z"/><path d="M262.91 367.99h-39.3l-1.13-8.49h41.56l-1.13 8.49z"/></g><path fill="#4682b4" d="M214.67 142.92v242h148.9v-242Zm136 232.3H218.82V152.61h131.83Z"/><path fill="#fff" d="M214.67 142.92v242h148.9v-242Zm136 232.3H218.82V152.61h131.83Z" opacity=".6"/><path fill="#fff" d="M217.43 152.61h1.39v222.61h-1.39z"/><path fill="#f0f0f0" d="M217.43 152.61h1.39v222.61h-1.39z"/><path fill="#4682b4" d="M379.18 86.27H110.43a8.79 8.79 0 0 0-8.77 8.73v311.75a8.79 8.79 0 0 0 8.77 8.76h268.75a8.78 8.78 0 0 0 8.76-8.76V95a8.78 8.78 0 0 0-8.76-8.73Zm-160.36 66.34h131.83v222.61H218.82Z"/><path d="M379.18 86.27H110.43a8.79 8.79 0 0 0-8.77 8.73v311.75a8.79 8.79 0 0 0 8.77 8.76h268.75a8.78 8.78 0 0 0 8.76-8.76V95a8.78 8.78 0 0 0-8.76-8.73Zm-160.36 66.34h131.83v222.61H218.82Z" opacity=".5"/><path fill="#4682b4" d="M376.85 86.27H108.1A8.79 8.79 0 0 0 99.33 95v311.75a8.79 8.79 0 0 0 8.77 8.76h268.75a8.79 8.79 0 0 0 8.76-8.76V95a8.79 8.79 0 0 0-8.76-8.73Zm-158 66.34h131.8v222.61H218.82Z"/><path d="M376.85 86.27H108.1A8.79 8.79 0 0 0 99.33 95v311.75a8.79 8.79 0 0 0 8.77 8.76h268.75a8.79 8.79 0 0 0 8.76-8.76V95a8.79 8.79 0 0 0-8.76-8.73Zm-158 66.34h131.8v222.61H218.82Z" opacity=".2"/><path fill="#4682b4" d="M99.33 108.93v297.82a8.79 8.79 0 0 0 8.77 8.76h268.75a8.79 8.79 0 0 0 8.76-8.76V108.93Zm119.49 43.68h131.83v222.61H218.82Z"/><path fill="#fff" d="M99.33 108.93v297.82a8.79 8.79 0 0 0 8.77 8.76h268.75a8.79 8.79 0 0 0 8.76-8.76V108.93Zm119.49 43.68h131.83v222.61H218.82Z" opacity=".6"/><path fill="#fff" d="M101 120.58v283.28h283V120.58Zm249.7 254.64H218.82V152.61h131.83Z"/><circle cx="366.38" cy="97.66" r="4.66" fill="#4682b4" opacity=".76"/><circle cx="349.87" cy="97.66" r="4.66" fill="#4682b4" opacity=".76"/><path fill="#4682b4" d="M328.7 97.66a4.66 4.66 0 1 0 4.66-4.66 4.66 4.66 0 0 0-4.66 4.66Z" opacity=".76"/><path fill="#4682b4" d="M385.61 109.51H99.34v-1.17h286.27zM391.44 142.92h-1v-7h1Zm0-13.09h-1V107h1Z"/><path d="M391.44 142.92h-1v-7h1Zm0-13.09h-1V107h1Z" opacity=".4"/><path fill="#4682b4" d="M176.22 214.78h-28.19v-14.01h28.19z"/><path fill="#fff" d="M176.22 214.78h-28.19v-14.01h28.19z" opacity=".6"/><path fill="#4682b4" d="M180.05 307.27h-52.16v-14.01h52.16z"/><path fill="#fff" d="M180.05 307.27h-52.16v-14.01h52.16z" opacity=".6"/><path fill="#4682b4" d="M188.87 145.41H81V131.4h107.87z"/><path fill="#fff" d="M188.87 145.41H81V131.4h107.87z" opacity=".6"/><path fill="#4682b4" d="M168.16 168.53H81v-14.01h87.16z"/><path fill="#fff" d="M168.16 168.53H81v-14.01h87.16z" opacity=".6"/><path fill="#4682b4" d="M180.05 191.65H81v-14.01h99.05z"/><path fill="#fff" d="M180.05 191.65H81v-14.01h99.05z" opacity=".6"/><path fill="#4682b4" d="M136.32 214.78H81v-14.01h55.32z"/><path fill="#fff" d="M136.32 214.78H81v-14.01h55.32z" opacity=".6"/><path fill="#4682b4" d="M180.05 237.9H81v-14.01h99.05z"/><path fill="#fff" d="M180.05 237.9H81v-14.01h99.05z" opacity=".6"/><path fill="#4682b4" d="M188.87 261.02H81v-14.01h107.87z"/><path fill="#fff" d="M188.87 261.02H81v-14.01h107.87z" opacity=".6"/><path fill="#4682b4" d="M157.04 284.15H81v-14.01h76.04z"/><path fill="#fff" d="M157.04 284.15H81v-14.01h76.04z" opacity=".6"/><path fill="#4682b4" d="M116.19 307.27H81v-14.01h35.19z"/><path fill="#fff" d="M116.19 307.27H81v-14.01h35.19z" opacity=".6"/><circle cx="101.57" cy="350.95" r="23.9" fill="#4682b4" transform="rotate(-80.48 101.564 350.95)"/><circle cx="101.57" cy="350.95" r="23.9" fill="#fff" opacity=".6" transform="rotate(-80.48 101.564 350.95)"/><path fill="#fff" d="M104 346.79c-5.68-1.74-9.2-7.92-9.2-7.92s-1.79-.1-1.88 1.52a7.93 7.93 0 0 0 2.36 5.9l-2.73-.15a9.07 9.07 0 0 0-2.89.31l-.91.24a3 3 0 0 0-2.11 3.6L88 355.6a6.6 6.6 0 0 0 7.37 5c2.78-.41 7.11-1 7.86-1.18l2-.16.67-11.91Z"/><rect width="9.81" height="15.68" x="104.17" y="345.14" fill="#4682b4" rx="1.08"/><circle cx="162.16" cy="350.95" r="23.9" fill="#4682b4" transform="rotate(-45 162.155 350.943)"/><circle cx="162.16" cy="350.95" r="23.9" fill="#fff" opacity=".6" transform="rotate(-45 162.155 350.943)"/><path fill="#4682b4" d="M174.07 342.4a8.42 8.42 0 0 0-11.91 0 8.42 8.42 0 0 0-11.91 11.91l11.91 11.91 11.91-11.91a8.44 8.44 0 0 0 0-11.91ZM207.75 142.92v242h152.58v-242Zm142.9 232.3H218.82V152.61h131.83Z"/><path fill="#fff" d="M207.75 142.92v242h152.58v-242Zm142.9 232.3H218.82V152.61h131.83Z" opacity=".8"/></svg>