<svg xmlns="http://www.w3.org/2000/svg" viewBox="39.36 19.48 381.47 443.27"><path fill="#37474f" d="M387.55 263.2V83c0-4.64-2.3-5.91-4.35-7.1a8.52 8.52 0 0 0-8.32-.21l-74.41 43a11.65 11.65 0 0 0-5.26 9.11V308a7.4 7.4 0 0 0 4.15 6.52c2.05 1.18 5.61 2.48 8.52.8l74.41-43a9.9 9.9 0 0 0 5.26-9.12Z"/><path fill="#263238" d="m382.82 264.91-76.52 44.17v-181l-9.58-5.52a10.75 10.75 0 0 0-1.54 5.18V308a7.4 7.4 0 0 0 4.15 6.52c2.05 1.18 5.61 2.48 8.52.8l74.41-43a10.07 10.07 0 0 0 4.56-5.09l-.3-.17Z"/><path fill="#455a64" d="m382.15 81.44-74.62 43.09a8.17 8.17 0 0 0-3.7 6.39v178.74c0 3.6 2.56 5.08 5.68 3.27L382.15 271a9.31 9.31 0 0 0 4.19-7.25V83.86c0-2.66-1.89-3.75-4.19-2.42Z"/><path d="M382.7 92.4v167.08a8.81 8.81 0 0 1-4 6.89l-67.27 38.84c-2.2 1.28-4 .25-4-2.29v-168.3a8.87 8.87 0 0 1 2.79-6l.38-.35a7.22 7.22 0 0 1 .81-.55l18.92-10.92 1.23-.72c.68-.39 1.24-.07 1.24.72s.59 1.08 1.32.66l22-12.73a2.85 2.85 0 0 0 1.32-2.18 2.79 2.79 0 0 1 1.1-2.07l.13-.08 18.51-10.68.39-.23c2.87-1.59 5.13-.28 5.13 2.91Z"/><path fill="#263238" d="M373 261.91a8.8 8.8 0 0 0 4-6.89V89.93l-18.16 10.48-.13.08a2.79 2.79 0 0 0-1.1 2.07 2.85 2.85 0 0 1-1.32 2.18l-22 12.73c-.73.42-1.32.12-1.32-.66s-.56-1.11-1.24-.72l-1.23.72-18.92 10.92a7.22 7.22 0 0 0-.81.55l-.38.35a8.87 8.87 0 0 0-2.79 6v165.08Z"/><path fill="#263238" d="m337.5 110.74 10.11-5.83c.61-.35 1.09-.1 1.09.55a2.32 2.32 0 0 1-1.09 1.81l-10.11 5.84c-.6.35-1.09.1-1.09-.55a2.35 2.35 0 0 1 1.09-1.82ZM352.8 101.43c.68-.39 1.23-.07 1.23.71a2.7 2.7 0 0 1-1.23 2.13c-.68.4-1.23.08-1.23-.71a2.72 2.72 0 0 1 1.23-2.13Z"/><path fill="#455a64" d="M302.11 149.38a4.46 4.46 0 0 0-1.94-3.52 1.33 1.33 0 0 0-1.33-.11l-1.46.84a1.52 1.52 0 0 0-.6 1.38v14.68a4.45 4.45 0 0 0 1.94 3.52 1.32 1.32 0 0 0 1.29.14c.27-.14 1.25-.71 1.5-.86a1.53 1.53 0 0 0 .6-1.39Z"/><path fill="#37474f" d="M300.67 150.22v14.68c0 1.32-.87 1.89-1.95 1.27a4.45 4.45 0 0 1-1.94-3.52V148c0-1.32.87-1.89 1.94-1.27a4.43 4.43 0 0 1 1.95 3.49Z"/><path fill="#455a64" d="M302.11 175.08a4.46 4.46 0 0 0-1.94-3.52 1.28 1.28 0 0 0-1.33-.11c-.25.15-1.21.68-1.46.84a1.52 1.52 0 0 0-.6 1.38v14.68a4.46 4.46 0 0 0 1.94 3.52 1.37 1.37 0 0 0 1.28.13l1.5-.86a1.55 1.55 0 0 0 .6-1.39Z"/><path fill="#37474f" d="M300.67 175.91v14.69c0 1.32-.87 1.89-1.95 1.27a4.46 4.46 0 0 1-1.94-3.52v-14.68c0-1.32.87-1.89 1.94-1.27a4.43 4.43 0 0 1 1.95 3.51Z"/><path fill="#4682b4" d="M389 96.88a3.58 3.58 0 0 0-3.6.35l-.4.23-18.79 10.85a.57.57 0 0 0-.13.08 2.83 2.83 0 0 0-1.13 2.1 2.89 2.89 0 0 1-1.33 2.21l-22.39 12.92h-.05a.83.83 0 0 0-.37-.76l-1.29-.75a.87.87 0 0 0-.88.09l-1.25.72L318.13 136a6.26 6.26 0 0 0-.82.56l-.39.35a9.06 9.06 0 0 0-2.83 6.08v170.89a2.83 2.83 0 0 0 1.18 2.61l1.3.75a2.84 2.84 0 0 0 2.85-.28l68.29-39.43a9 9 0 0 0 4-7V100.92a3.59 3.59 0 0 0-1.49-3.29Z"/><path d="M319.8 316.4v.33l-.38.22a2.82 2.82 0 0 1-2.85.29l-1.3-.75a2.82 2.82 0 0 1-1.17-2.61V143a8.34 8.34 0 0 1 1.39-4.31l1.54.89a8.16 8.16 0 0 0-1.36 4.17v170.88a3.16 3.16 0 0 0 .56 1.95 1.73 1.73 0 0 0 1.38.65 3.43 3.43 0 0 0 1.67-.52ZM367 109.93a2.4 2.4 0 0 0-.47 1.3 2.9 2.9 0 0 1-.49 1.5l-1.55-.89a2.62 2.62 0 0 0 .47-1.35 2.7 2.7 0 0 1 .5-1.46Z" opacity=".3"/><path fill="#fafafa" d="M317.61 317.23a1.73 1.73 0 0 1-1.38-.65 3.14 3.14 0 0 1-.56-1.95V143.78a8.81 8.81 0 0 1 2.74-5.88l.13-.11.25-.22a7.08 7.08 0 0 1 .77-.53L338.77 126l1.25-.73a1 1 0 0 1 .42-.13c.37 0 .41.42.41.61a1 1 0 0 0 1 1.15 1.62 1.62 0 0 0 .78-.23L365 113.7a3.18 3.18 0 0 0 1.49-2.47 2.49 2.49 0 0 1 1-1.86l.1-.07 18.79-10.84.41-.24a4.42 4.42 0 0 1 2.12-.65c1.57 0 2.55 1.29 2.55 3.35v169.61a8.6 8.6 0 0 1-3.89 6.75l-68.29 39.43a3.43 3.43 0 0 1-1.67.52Z"/><path fill="#4682b4" d="M388.91 97.57a4.42 4.42 0 0 0-2.12.65l-.41.24-18.79 10.84-.1.07a2.49 2.49 0 0 0-1 1.86 3.18 3.18 0 0 1-1.49 2.47l-22.38 12.92a1.62 1.62 0 0 1-.78.23 1 1 0 0 1-1-1.15c0-.19 0-.61-.41-.61a1 1 0 0 0-.42.13l-1.25.73-19.2 11.05a7.08 7.08 0 0 0-.77.53l-.25.22-.13.11a8.81 8.81 0 0 0-2.74 5.88v15.89l75.79-43.77v-15c0-2-.98-3.29-2.55-3.29Z"/><path fill="#fff" d="M388.91 97.57a4.42 4.42 0 0 0-2.12.65l-.41.24-18.79 10.84-.1.07a2.49 2.49 0 0 0-1 1.86 3.18 3.18 0 0 1-1.49 2.47l-22.38 12.92a1.62 1.62 0 0 1-.78.23 1 1 0 0 1-1-1.15c0-.19 0-.61-.41-.61a1 1 0 0 0-.42.13l-1.25.73-19.2 11.05a7.08 7.08 0 0 0-.77.53l-.25.22-.13.11a8.81 8.81 0 0 0-2.74 5.88v15.89l75.79-43.77v-15c0-2-.98-3.29-2.55-3.29Z" opacity=".3"/><path fill="#fafafa" d="M383.81 113.61a.23.23 0 0 0 .14 0l4.48-2.58a.29.29 0 0 0 .11-.4.31.31 0 0 0-.41-.11l-4.47 2.58a.29.29 0 0 0-.11.4.3.3 0 0 0 .26.11Zm4.32.32-4.47 2.58a.29.29 0 0 0-.11.4.3.3 0 0 0 .26.15.23.23 0 0 0 .14 0l4.48-2.58a.29.29 0 0 0 .11-.4.31.31 0 0 0-.41-.15Zm0-1.72-4.47 2.58a.29.29 0 0 0-.11.4.29.29 0 0 0 .4.11l4.48-2.59a.29.29 0 1 0-.3-.5ZM321.14 143.83a.27.27 0 0 1 0 .12.19.19 0 0 1-.07.08l-.16.09h-.07a.1.1 0 0 1 0-.08v-2.75l-.6 1a.17.17 0 0 1-.08.07.06.06 0 0 1-.07 0l-.09-.1a.2.2 0 0 1 0-.09.49.49 0 0 1 0-.11l.8-1.28a.14.14 0 0 1 .06-.07h.06l.16-.09h.07a.08.08 0 0 1 0 .07ZM322.72 142.92a.27.27 0 0 1 0 .12l-.07.08-.16.09h-.07a.1.1 0 0 1 0-.08v-2.76l-.61 1a.12.12 0 0 1-.07.07.06.06 0 0 1-.07 0l-.09-.1v-.09a.21.21 0 0 1 0-.11l.8-1.29.06-.07h.06l.16-.09h.07a.08.08 0 0 1 0 .07ZM323.6 140.19h.07a.1.1 0 0 1 0 .08v.33a.27.27 0 0 1 0 .12.27.27 0 0 1-.07.08l-.25.14h-.07a.08.08 0 0 1 0-.07v-.34a.23.23 0 0 1 0-.11s0-.07.07-.08Zm0 1.75h.07a.1.1 0 0 1 0 .08v.33a.27.27 0 0 1 0 .12.27.27 0 0 1-.07.08l-.25.14h-.07a.08.08 0 0 1 0-.07v-.34a.23.23 0 0 1 0-.11s0-.07.07-.08ZM324.47 141.13c0 .14.11.23.22.25a.52.52 0 0 0 .38-.08 1.3 1.3 0 0 0 .23-.18 1.12 1.12 0 0 0 .19-.24 1.36 1.36 0 0 0 .13-.3 1.34 1.34 0 0 0 .05-.35.76.76 0 0 0-.05-.29.32.32 0 0 0-.13-.15.3.3 0 0 0-.19 0 .61.61 0 0 0-.23.09 1.14 1.14 0 0 0-.23.17l-.14.17a1 1 0 0 1-.09.15.31.31 0 0 1-.1.1l-.19.11h-.06a.06.06 0 0 1 0-.06l.12-1.74a.26.26 0 0 1 0-.11.19.19 0 0 1 .07-.08l1.32-.76h.07a.08.08 0 0 1 0 .07v.18a.2.2 0 0 1 0 .11.22.22 0 0 1-.07.09l-1.09.63-.06.9a1.36 1.36 0 0 1 .17-.18 1.55 1.55 0 0 1 .28-.2 1 1 0 0 1 .37-.13.39.39 0 0 1 .3.06.48.48 0 0 1 .21.25 1.12 1.12 0 0 1 .07.45 1.88 1.88 0 0 1-.07.53 2 2 0 0 1-.21.49 2.06 2.06 0 0 1-.3.41 1.62 1.62 0 0 1-.37.29 1.26 1.26 0 0 1-.36.14.5.5 0 0 1-.3 0 .4.4 0 0 1-.21-.18.68.68 0 0 1-.08-.34.29.29 0 0 1 0-.09.22.22 0 0 1 .06-.07l.18-.1h.05a.07.07 0 0 1 .06-.01ZM326.69 139.92a.75.75 0 0 0 .06.13.14.14 0 0 0 .1.08.24.24 0 0 0 .17 0 1 1 0 0 0 .29-.12 1.18 1.18 0 0 0 .22-.17 1.37 1.37 0 0 0 .19-.22 1.59 1.59 0 0 0 .12-.27 1.06 1.06 0 0 0 .05-.31.55.55 0 0 0-.05-.25.21.21 0 0 0-.12-.11.38.38 0 0 0-.18 0 .89.89 0 0 0-.23.1l-.31.22h-.07c-.02 0 0 0 0-.08v-.18a.29.29 0 0 1 0-.09v-.09l.67-1.36-1.08.62h-.07a.08.08 0 0 1 0-.07v-.18a.2.2 0 0 1 0-.11.35.35 0 0 1 .07-.09l1.48-.85h.07c.02 0 0 0 0 .08v.18a.2.2 0 0 1 0 .1.76.76 0 0 1 0 .11l-.67 1.33a1.46 1.46 0 0 1 .35-.12.44.44 0 0 1 .26.05.46.46 0 0 1 .17.23 1 1 0 0 1 .07.38 1.69 1.69 0 0 1-.08.5 2.13 2.13 0 0 1-.2.46 1.57 1.57 0 0 1-.3.38 1.64 1.64 0 0 1-.36.29 1.51 1.51 0 0 1-.43.17.48.48 0 0 1-.3 0 .37.37 0 0 1-.18-.19.61.61 0 0 1-.06-.28.44.44 0 0 1 0-.1.17.17 0 0 1 .06-.06l.18-.1h.06a.09.09 0 0 1 .05-.01ZM332.54 134l-1.15 4v-1.72l-1.29.75 2.44-3m0-.29a.33.33 0 0 0-.14 0s-.05 0-.06.05l-2.44 3a.29.29 0 0 0 0 .38.3.3 0 0 0 .37.06l.85-.49V138a.28.28 0 0 0 .25.29.29.29 0 0 0 .28-.21l1.15-3.91a.43.43 0 0 0 0-.11.29.29 0 0 0-.29-.29Zm0 .58ZM372.64 114.2l-.63.36v-1.23l.63-.36v1.23zM373.64 113.62l-.63.36v-1.75l.63-.37v1.76zM374.63 113.05l-.63.36v-2.42l.63-.36v2.42z"/><path fill="#4682b4" d="m375.63 112.47-.63.36v-3.06l.63-.36v3.06z"/><path fill="#fafafa" d="M380 106.8a4.67 4.67 0 0 0-1.66 1.86l.41.33a3.59 3.59 0 0 1 1.25-1.4 1.12 1.12 0 0 1 1.25 0l.42-.81a1.52 1.52 0 0 0-1.67.02Zm-1.08 2.32.38.3a2 2 0 0 1 .7-.79.62.62 0 0 1 .71 0l.38-.75a1 1 0 0 0-1.09 0 3.09 3.09 0 0 0-1.08 1.24Zm.56.45.52.42.53-1a.47.47 0 0 0-.53 0 1.41 1.41 0 0 0-.52.58Z"/><path fill="#4682b4" d="M387.58 102.51c.22-.13.4 0 .4.31v2a1 1 0 0 1-.4.77l-3.53 2c-.23.13-.41 0-.41-.31v-2a1 1 0 0 1 .41-.78l3.53-2m0-.17-3.53 2a1.27 1.27 0 0 0-.54 1v2c0 .39.24.57.54.4l3.53-2a1.29 1.29 0 0 0 .53-1v-2c0-.39-.24-.57-.53-.4Z"/><path fill="#fafafa" d="m386.15 105.91-2 1.14c-.09.06-.17 0-.17-.12v-1.64a.43.43 0 0 1 .17-.32l2-1.14c.09-.06.16 0 .16.12v1.64a.42.42 0 0 1-.16.32Z"/><path fill="#4682b4" d="m388.49 104.05-.14.08v-1.07l.14-.08c.08 0 .14.16.14.45a1 1 0 0 1-.14.62Z"/><path fill="#4682b4" d="M388.91 97.86c1.42 0 2.26 1.14 2.26 3.06v169.61a8.42 8.42 0 0 1-3.74 6.5l-68.3 39.43a3.15 3.15 0 0 1-1.52.48c-1 0-1.65-.87-1.65-2.31V143.78a8.49 8.49 0 0 1 2.64-5.66l.13-.12.23-.2a5.53 5.53 0 0 1 .75-.51l19.21-11.1 1.25-.72a.63.63 0 0 1 .27-.09c.12 0 .12.28.12.32a1.31 1.31 0 0 0 1.28 1.44 1.83 1.83 0 0 0 .92-.27l22.39-12.93a3.46 3.46 0 0 0 1.62-2.71 2.31 2.31 0 0 1 .88-1.63h.09l18.79-10.84.4-.24a4.1 4.1 0 0 1 2-.61m0-.58a4.66 4.66 0 0 0-2.27.7l-.4.23-18.79 10.84-.13.08a2.86 2.86 0 0 0-1.12 2.1 2.9 2.9 0 0 1-1.34 2.22l-22.39 12.92a1.28 1.28 0 0 1-.63.2c-.42 0-.71-.32-.71-.87s-.28-.9-.69-.9a1.11 1.11 0 0 0-.56.18l-1.25.72-19.21 11.09a7 7 0 0 0-.82.56l-.38.34a9 9 0 0 0-2.83 6.09v170.8c0 1.83.9 2.88 2.22 2.88a3.71 3.71 0 0 0 1.81-.55l68.29-39.43a9 9 0 0 0 4-7V100.92c0-2.3-1.16-3.64-2.84-3.64Z"/><path fill="#e0e0e0" d="M342.59 189.24 322.22 201a3.75 3.75 0 0 0-1.69 2.92v37.78c0 1.07.76 1.51 1.69 1l20.37-11.75a3.75 3.75 0 0 0 1.69-2.92v-37.81c0-1.08-.76-1.51-1.69-.98Z"/><path fill="#fafafa" d="m340.26 218-2.26 1.29a1.85 1.85 0 0 0-.85 1.42c0 .51.38.7.85.43l2.31-1.33a1.85 1.85 0 0 0 .85-1.42c-.05-.51-.43-.7-.9-.39ZM338 197.42l2.31-1.34a1.81 1.81 0 0 0 .85-1.41c0-.51-.38-.71-.85-.43l-2.31 1.33a1.83 1.83 0 0 0-.85 1.42c-.05.51.33.7.85.43Zm-4.1 6.18c0 .51.39.7.86.43l2.31-1.34a1.82 1.82 0 0 0 .85-1.42c0-.51-.38-.7-.85-.43l-2.31 1.34a1.84 1.84 0 0 0-.91 1.42Zm4 2.41c0-.51-.38-.71-.85-.43l-2.31 1.33a1.84 1.84 0 0 0-.86 1.42c0 .51.39.7.86.43l2.31-1.34a1.81 1.81 0 0 0 .82-1.42Zm2.39 2.46L338 209.8a1.83 1.83 0 0 0-.85 1.42c0 .51.38.7.85.43l2.31-1.34a1.81 1.81 0 0 0 .85-1.41c-.05-.51-.43-.71-.9-.43Zm-6.41 9.36c0 .51.39.7.86.43l2.31-1.33a1.85 1.85 0 0 0 .85-1.42c0-.51-.38-.7-.85-.43l-2.31 1.33a1.86 1.86 0 0 0-.89 1.42Zm-9.3-12.69 9.39-5.4a1.85 1.85 0 0 0 .85-1.42c0-.51-.38-.7-.85-.43l-9.39 5.41a1.83 1.83 0 0 0-.86 1.41c-.03.51.36.71.83.43Zm0 23.73 9.39-5.41a1.83 1.83 0 0 0 .85-1.42c0-.51-.38-.7-.85-.43l-9.42 5.39a1.84 1.84 0 0 0-.86 1.42c0 .58.39.72.86.45Zm0-19 6.14-3.55a1.81 1.81 0 0 0 .85-1.41c0-.51-.38-.71-.85-.43l-6.17 3.52a1.84 1.84 0 0 0-.86 1.42c0 .58.39.74.86.47Zm0 4.74 6.14-3.54a1.83 1.83 0 0 0 .85-1.42c0-.51-.38-.7-.85-.43l-6.14 3.55a1.83 1.83 0 0 0-.86 1.41c-.03.53.36.73.83.45Zm0 4.75 9.39-5.41a1.83 1.83 0 0 0 .85-1.42c0-.51-.38-.7-.85-.43l-9.39 5.41a1.84 1.84 0 0 0-.86 1.42c-.03.53.36.72.83.45Zm0 4.74 6.14-3.54a1.83 1.83 0 0 0 .85-1.42c0-.51-.38-.7-.85-.43l-6.14 3.55a1.83 1.83 0 0 0-.86 1.41c-.03.53.36.72.83.45Zm15.71 3.38-2.29 1.35a1.85 1.85 0 0 0-.85 1.42c0 .51.38.7.85.43l2.31-1.33a1.85 1.85 0 0 0 .85-1.42c-.05-.51-.43-.7-.9-.43Zm-2.39-2.45c0-.51-.38-.7-.85-.43l-2.34 1.4a1.86 1.86 0 0 0-.86 1.42c0 .51.39.7.86.43l2.31-1.33a1.85 1.85 0 0 0 .85-1.47Zm-3.93 6.1-9.39 5.41a1.84 1.84 0 0 0-.86 1.42c0 .51.39.7.86.43l9.39-5.41a1.83 1.83 0 0 0 .85-1.42c-.03-.49-.41-.68-.88-.41Zm-9.39 2.51 6.14-3.54a1.83 1.83 0 0 0 .85-1.42c0-.51-.38-.7-.85-.43l-6.14 3.55a1.83 1.83 0 0 0-.86 1.41c-.03.53.36.73.83.45Z"/><path fill="#e0e0e0" d="m342.59 150.38-20.37 11.75a3.73 3.73 0 0 0-1.69 2.92v29c0 1.07.76 1.51 1.69 1l20.37-11.75a3.73 3.73 0 0 0 1.69-2.92v-29c0-1.1-.76-1.54-1.69-1Z"/><path fill="#fafafa" d="m340.26 179.09-2.26 1.34a1.83 1.83 0 0 0-.85 1.42c0 .51.38.7.85.43l2.31-1.34a1.81 1.81 0 0 0 .85-1.41c-.05-.53-.43-.71-.9-.44ZM338 158.56l2.31-1.34a1.83 1.83 0 0 0 .85-1.42c0-.51-.38-.7-.85-.43l-2.31 1.34a1.81 1.81 0 0 0-.85 1.41c-.05.51.33.71.85.44Zm-4.1 6.17c0 .51.39.71.86.43l2.31-1.33a1.83 1.83 0 0 0 .85-1.42c0-.51-.38-.7-.85-.43l-2.31 1.34a1.83 1.83 0 0 0-.91 1.41Zm3.17 2-2.31 1.34a1.83 1.83 0 0 0-.86 1.41c0 .51.39.71.86.44l2.31-1.34a1.83 1.83 0 0 0 .85-1.42c-.05-.53-.43-.72-.92-.45Zm3.24 2.89-2.31 1.32a1.81 1.81 0 0 0-.85 1.41c0 .51.38.71.85.44l2.31-1.34a1.83 1.83 0 0 0 .85-1.42c-.05-.51-.43-.7-.9-.43Zm-2.39 7.05c0-.51-.38-.71-.85-.44l-2.31 1.34a1.84 1.84 0 0 0-.86 1.42c0 .51.39.7.86.43l2.31-1.34a1.81 1.81 0 0 0 .8-1.43ZM324.6 166.3l9.39-5.41a1.81 1.81 0 0 0 .85-1.41c0-.51-.38-.71-.85-.43l-9.39 5.4a1.86 1.86 0 0 0-.86 1.42c-.05.49.34.68.81.41Zm9.39 16.47-9.39 5.41a1.83 1.83 0 0 0-.86 1.41c0 .51.39.71.86.43l9.39-5.4a1.85 1.85 0 0 0 .85-1.42c-.05-.53-.43-.72-.9-.45ZM324.55 171l6.14-3.55a1.83 1.83 0 0 0 .85-1.42c0-.51-.38-.7-.85-.43l-6.14 3.55a1.83 1.83 0 0 0-.86 1.42c0 .54.39.73.86.43Zm0 4.74 6.14-3.55a1.81 1.81 0 0 0 .85-1.41c0-.51-.38-.7-.85-.43l-6.14 3.54a1.86 1.86 0 0 0-.86 1.42c0 .54.39.69.86.46Zm0 4.75 9.39-5.41a1.85 1.85 0 0 0 .85-1.42c0-.51-.38-.7-.85-.43l-9.39 5.41a1.83 1.83 0 0 0-.86 1.41c0 .54.39.74.86.47Zm0 4.74 6.14-3.54a1.85 1.85 0 0 0 .85-1.42c0-.51-.38-.7-.85-.43l-6.14 3.54a1.84 1.84 0 0 0-.86 1.42c0 .54.39.73.86.46Z"/><path fill="#e0e0e0" d="m342.59 260.77-20.37 11.74a3.75 3.75 0 0 0-1.69 2.92v29c0 1.08.76 1.51 1.69 1l20.37-11.75a3.71 3.71 0 0 0 1.69-2.92v-29c0-1.1-.76-1.53-1.69-.99Z"/><path fill="#fafafa" d="m340.26 289.48-2.26 1.34a1.81 1.81 0 0 0-.85 1.41c0 .51.38.7.85.43l2.31-1.33a1.85 1.85 0 0 0 .85-1.42c-.05-.51-.43-.7-.9-.43ZM338 268.94l2.31-1.34a1.81 1.81 0 0 0 .85-1.41c0-.51-.38-.7-.85-.43l-2.31 1.33a1.83 1.83 0 0 0-.85 1.42c-.05.49.33.7.85.43Zm-4.1 6.18c0 .51.39.7.86.43l2.31-1.34a1.81 1.81 0 0 0 .85-1.41c0-.51-.38-.71-.85-.43l-2.31 1.33a1.84 1.84 0 0 0-.91 1.42Zm3.17 2-2.31 1.33a1.84 1.84 0 0 0-.86 1.42c0 .51.39.7.86.43l2.31-1.34a1.81 1.81 0 0 0 .85-1.41c-.05-.55-.43-.72-.92-.45Zm3.24 2.89-2.31 1.31a1.83 1.83 0 0 0-.85 1.42c0 .51.38.7.85.43l2.31-1.34a1.81 1.81 0 0 0 .85-1.41c-.05-.51-.43-.7-.9-.42Zm-2.39 7c0-.51-.38-.7-.85-.43l-2.31 1.34a1.83 1.83 0 0 0-.86 1.41c0 .51.39.7.86.43l2.31-1.33a1.83 1.83 0 0 0 .8-1.43Zm-13.32-10.36 9.39-5.41a1.83 1.83 0 0 0 .85-1.42c0-.51-.38-.7-.85-.43l-9.39 5.41a1.84 1.84 0 0 0-.86 1.42c-.05.53.34.72.81.45Zm9.39 16.46-9.39 5.41a1.84 1.84 0 0 0-.86 1.42c0 .51.39.7.86.43l9.39-5.41a1.83 1.83 0 0 0 .85-1.42c-.05-.49-.43-.68-.9-.41Zm-9.39-11.72 6.14-3.55a1.81 1.81 0 0 0 .85-1.41c0-.51-.38-.7-.85-.43l-6.14 3.54a1.86 1.86 0 0 0-.86 1.42c-.05.53.34.72.81.45Zm0 4.75 6.14-3.55a1.83 1.83 0 0 0 .85-1.42c0-.51-.38-.7-.85-.43l-6.14 3.55a1.83 1.83 0 0 0-.86 1.41c-.05.53.34.73.81.46Zm0 4.74 9.39-5.41a1.81 1.81 0 0 0 .85-1.41c0-.51-.38-.71-.85-.44l-9.39 5.41a1.84 1.84 0 0 0-.86 1.42c-.05.55.34.72.81.45Zm0 4.74 6.14-3.54a1.83 1.83 0 0 0 .85-1.42c0-.51-.38-.7-.85-.43l-6.14 3.55a1.83 1.83 0 0 0-.86 1.41c-.05.53.34.73.81.45Z"/><path fill="#e0e0e0" d="m342.59 236.83-20.37 11.74a3.75 3.75 0 0 0-1.69 2.92v13.89c0 1.07.76 1.51 1.69 1l20.37-11.75a3.75 3.75 0 0 0 1.69-2.92V237.8c0-1.08-.76-1.51-1.69-.97Z"/><path fill="#fafafa" d="m340.26 241.82-2.26 1.33a1.83 1.83 0 0 0-.85 1.42c0 .51.38.7.85.43l2.31-1.34a1.81 1.81 0 0 0 .85-1.41c-.05-.51-.43-.7-.9-.43Zm-3.26 6.61-2.31 1.33a1.84 1.84 0 0 0-.86 1.42c0 .51.39.7.86.43l2.31-1.34a1.81 1.81 0 0 0 .85-1.41c.02-.51-.36-.71-.85-.43Zm0 4.73-2.31 1.33a1.86 1.86 0 0 0-.86 1.42c0 .51.39.7.86.43L337 255a1.81 1.81 0 0 0 .85-1.41c.02-.51-.36-.7-.85-.43Zm-12.47-.43 9.39-5.41a1.83 1.83 0 0 0 .85-1.42c0-.51-.38-.7-.85-.43l-9.39 5.41a1.84 1.84 0 0 0-.86 1.42c.02.51.41.7.88.43Zm6.14-.65-6.14 3.54a1.86 1.86 0 0 0-.86 1.42c0 .51.39.7.86.43l6.14-3.54a1.85 1.85 0 0 0 .85-1.42c.02-.51-.36-.7-.83-.43Zm0 4.74-6.14 3.55a1.83 1.83 0 0 0-.86 1.41c0 .51.39.71.86.44l6.14-3.55a1.83 1.83 0 0 0 .85-1.42c.02-.51-.36-.7-.83-.43Z"/><path fill="#455a64" d="m352.5 224.45-3.34 1.93a1.32 1.32 0 0 0-.61 1.05v1.23c0 .38.27.54.61.35l3.34-1.93a1.36 1.36 0 0 0 .61-1.05v-1.23c0-.39-.28-.54-.61-.35Zm0-4.89-3.34 1.93a1.32 1.32 0 0 0-.61 1v1.23c0 .39.27.54.61.35l3.34-1.93a1.35 1.35 0 0 0 .61-1.05v-1.23c0-.34-.28-.49-.61-.3Zm0-14.47-3.34 1.91a1.32 1.32 0 0 0-.61 1v1.23c0 .39.27.54.61.35l3.34-1.93a1.35 1.35 0 0 0 .61-1.05v-1.23c0-.32-.28-.47-.61-.28Zm0 4.89-3.34 1.93a1.32 1.32 0 0 0-.61 1.05v1.23c0 .38.27.54.61.35l3.34-1.93a1.38 1.38 0 0 0 .61-1.05v-1.23c0-.39-.28-.55-.61-.33Zm0 37.21-3.34 1.93a1.32 1.32 0 0 0-.61 1v1.23c0 .39.27.54.61.35l3.34-1.93a1.35 1.35 0 0 0 .61-1v-1.23c0-.39-.28-.54-.61-.35Zm0-47-3.34 1.93a1.34 1.34 0 0 0-.61 1.05v1.23c0 .39.27.54.61.35l3.34-1.93a1.35 1.35 0 0 0 .61-1.05v-1.23c0-.38-.28-.54-.61-.34Zm0 42.1-3.34 1.93a1.32 1.32 0 0 0-.61 1.05v1.23c0 .39.27.54.61.35l3.34-1.93a1.35 1.35 0 0 0 .61-1.05v-1.23c0-.38-.28-.53-.61-.34Zm0-4.89-3.34 1.93a1.35 1.35 0 0 0-.61 1v1.23c0 .39.27.55.61.35l3.34-1.91a1.35 1.35 0 0 0 .61-1v-1.23a.37.37 0 0 0-.61-.36Zm0-4.89-3.34 1.93a1.35 1.35 0 0 0-.61 1.06v1.22c0 .39.27.55.61.35l3.34-1.92a1.38 1.38 0 0 0 .61-1.06v-1.22c0-.38-.28-.54-.61-.35Zm0-75.93-3.34 1.93a1.35 1.35 0 0 0-.61 1.06v1.22c0 .39.27.55.61.35l3.34-1.93a1.35 1.35 0 0 0 .61-1.05V157c0-.44-.28-.6-.61-.41Zm0-4.88-3.34 1.93a1.32 1.32 0 0 0-.61 1.05v1.23c0 .38.27.54.61.35l3.34-1.93a1.38 1.38 0 0 0 .61-1.05v-1.23c0-.38-.28-.54-.61-.34Zm0 9.77-3.34 1.93a1.35 1.35 0 0 0-.61 1.05v1.23c0 .39.27.55.61.35l3.34-1.93a1.35 1.35 0 0 0 .61-1.05v-1.23a.37.37 0 0 0-.61-.34Zm0-14.66-3.34 1.93a1.32 1.32 0 0 0-.61 1.05V151c0 .38.27.54.61.35l3.34-1.93a1.36 1.36 0 0 0 .61-1v-1.23c0-.41-.28-.56-.61-.37Zm0 38.91-3.34 1.93a1.32 1.32 0 0 0-.61 1.05v1.23c0 .39.27.54.61.35l3.34-1.93a1.35 1.35 0 0 0 .61-1.05v-1.23c0-.38-.28-.53-.61-.34Zm0-4.89-3.34 1.93a1.35 1.35 0 0 0-.61 1v1.23c0 .39.27.54.61.35l3.34-1.93a1.35 1.35 0 0 0 .61-1.05v-1.23a.37.37 0 0 0-.61-.29Zm0-9.77-3.34 1.94a1.32 1.32 0 0 0-.61 1.05v1.22c0 .39.27.55.61.36l3.34-1.93a1.38 1.38 0 0 0 .61-1.06v-1.22c0-.42-.28-.55-.61-.35Zm0 24.24-3.34 1.93a1.35 1.35 0 0 0-.61 1v1.23c0 .39.27.55.61.35l3.34-1.93a1.35 1.35 0 0 0 .61-1.05v-1.23a.37.37 0 0 0-.61-.29Zm0-19.36-3.34 1.93a1.35 1.35 0 0 0-.61 1.05v1.23c0 .39.27.55.61.35l3.34-1.93a1.35 1.35 0 0 0 .61-1.05v-1.22a.37.37 0 0 0-.61-.3Z"/><path fill="#4682b4" d="m357.52 160.23 28-16.16c.34-.19.62 0 .62.31a1.31 1.31 0 0 1-.62 1l-28 16.16c-.34.19-.62.05-.62-.31a1.31 1.31 0 0 1 .62-1Z"/><path fill="#fff" d="m357.52 160.23 28-16.16c.34-.19.62 0 .62.31a1.31 1.31 0 0 1-.62 1l-28 16.16c-.34.19-.62.05-.62-.31a1.31 1.31 0 0 1 .62-1Z" opacity=".6"/><path fill="#4682b4" d="m381.79 130.14-24.25 14a1.3 1.3 0 0 0-.61 1c0 .36.27.5.61.31l24.25-14a1.31 1.31 0 0 0 .62-1c0-.36-.28-.45-.62-.31Zm4.08-2.33-1.7 1a1.32 1.32 0 0 0-.61 1c0 .37.28.5.61.31l1.7-.95a1.33 1.33 0 0 0 .61-1c0-.41-.27-.55-.61-.36Z"/><path fill="#fff" d="m381.79 130.14-24.25 14a1.3 1.3 0 0 0-.61 1c0 .36.27.5.61.31l24.25-14a1.31 1.31 0 0 0 .62-1c0-.36-.28-.45-.62-.31Zm4.08-2.33-1.7 1a1.32 1.32 0 0 0-.61 1c0 .37.28.5.61.31l1.7-.95a1.33 1.33 0 0 0 .61-1c0-.41-.27-.55-.61-.36Z" opacity=".6"/><path fill="#e0e0e0" d="m357.54 149.3 12.28-7.1a1.31 1.31 0 0 0 .62-1c0-.37-.28-.51-.62-.31L357.54 148a1.3 1.3 0 0 0-.61 1c0 .35.27.49.61.3ZM357.54 153.1l7.38-4.25a1.3 1.3 0 0 0 .61-1c0-.36-.27-.5-.61-.31l-7.38 4.25a1.3 1.3 0 0 0-.61 1c0 .36.27.5.61.31ZM372.2 140.83l13.6-7.91a1.34 1.34 0 0 0 .62-1c0-.37-.28-.51-.62-.31l-13.6 7.91a1.3 1.3 0 0 0-.61 1c0 .36.27.48.61.31ZM379 139.35l-12.15 7.05a1.31 1.31 0 0 0-.62 1c0 .36.28.5.62.31l12.15-7a1.31 1.31 0 0 0 .61-1c.04-.42-.23-.56-.61-.36ZM380.81 139c0 .37.27.51.61.31l4.09-2.2a1.33 1.33 0 0 0 .61-1c0-.37-.27-.51-.61-.31l-4.09 2.2a1.33 1.33 0 0 0-.61 1ZM379 143.43l-21.52 12.35a1.32 1.32 0 0 0-.62 1c0 .37.28.51.62.31L379 144.76a1.31 1.31 0 0 0 .61-1c.04-.39-.23-.53-.61-.33ZM385.51 139.85l-4.09 2.2a1.31 1.31 0 0 0-.61 1c0 .37.27.51.61.31l4.09-2.2a1.33 1.33 0 0 0 .61-1c0-.37-.27-.51-.61-.31Z" opacity=".6"/><path fill="#4682b4" d="m357.67 190.38 2.84-1.63c.34-.2.62-.06.62.31a1.32 1.32 0 0 1-.62 1l-2.84 1.63c-.34.2-.61.06-.61-.31a1.31 1.31 0 0 1 .61-1Z"/><path fill="#fff" d="m357.67 190.38 2.84-1.63c.34-.2.62-.06.62.31a1.32 1.32 0 0 1-.62 1l-2.84 1.63c-.34.2-.61.06-.61-.31a1.31 1.31 0 0 1 .61-1Z" opacity=".6"/><path fill="#4682b4" d="m357.67 169.58 2.84-1.64c.34-.19.62-.05.62.31a1.31 1.31 0 0 1-.62 1l-2.84 1.64c-.34.19-.61.05-.61-.31a1.3 1.3 0 0 1 .61-1Z"/><path fill="#fff" d="m357.67 169.58 2.84-1.64c.34-.19.62-.05.62.31a1.31 1.31 0 0 1-.62 1l-2.84 1.64c-.34.19-.61.05-.61-.31a1.3 1.3 0 0 1 .61-1Z" opacity=".6"/><path fill="#4682b4" d="m357.67 177.76 2.84-1.63c.34-.2.62-.06.62.31a1.32 1.32 0 0 1-.62 1l-2.84 1.63c-.34.2-.61.06-.61-.31a1.33 1.33 0 0 1 .61-1Z"/><path fill="#fff" d="m357.67 177.76 2.84-1.63c.34-.2.62-.06.62.31a1.32 1.32 0 0 1-.62 1l-2.84 1.63c-.34.2-.61.06-.61-.31a1.33 1.33 0 0 1 .61-1Z" opacity=".6"/><path fill="#4682b4" d="m357.67 181.57 2.84-1.63c.34-.2.62-.06.62.31a1.32 1.32 0 0 1-.62 1l-2.84 1.63c-.34.2-.61.06-.61-.31a1.31 1.31 0 0 1 .61-1Z"/><path fill="#fff" d="m357.67 181.57 2.84-1.63c.34-.2.62-.06.62.31a1.32 1.32 0 0 1-.62 1l-2.84 1.63c-.34.2-.61.06-.61-.31a1.31 1.31 0 0 1 .61-1Z" opacity=".6"/><path fill="#4682b4" d="m357.67 185.38 2.84-1.63c.34-.2.62-.06.62.31a1.34 1.34 0 0 1-.62 1l-2.84 1.63c-.34.19-.61.06-.61-.31a1.3 1.3 0 0 1 .61-1Z"/><path fill="#fff" d="m357.67 185.38 2.84-1.63c.34-.2.62-.06.62.31a1.34 1.34 0 0 1-.62 1l-2.84 1.63c-.34.19-.61.06-.61-.31a1.3 1.3 0 0 1 .61-1Z" opacity=".6"/><path fill="#4682b4" d="m357.67 193.82 2.84-1.63c.34-.2.62-.06.62.31a1.32 1.32 0 0 1-.62 1l-2.84 1.63c-.34.2-.61.06-.61-.31a1.33 1.33 0 0 1 .61-1Z"/><path fill="#fff" d="m357.67 193.82 2.84-1.63c.34-.2.62-.06.62.31a1.32 1.32 0 0 1-.62 1l-2.84 1.63c-.34.2-.61.06-.61-.31a1.33 1.33 0 0 1 .61-1Z" opacity=".6"/><path fill="#4682b4" d="m357.67 218.75 2.84-1.63c.34-.2.62-.06.62.31a1.34 1.34 0 0 1-.62 1l-2.84 1.63c-.34.2-.61.06-.61-.31a1.31 1.31 0 0 1 .61-1Z"/><path fill="#fff" d="m357.67 218.75 2.84-1.63c.34-.2.62-.06.62.31a1.34 1.34 0 0 1-.62 1l-2.84 1.63c-.34.2-.61.06-.61-.31a1.31 1.31 0 0 1 .61-1Z" opacity=".6"/><path fill="#4682b4" d="m357.67 222.19 2.84-1.63c.34-.2.62-.06.62.31a1.32 1.32 0 0 1-.62 1l-2.84 1.63c-.34.2-.61.06-.61-.31a1.31 1.31 0 0 1 .61-1Z"/><path fill="#fff" d="m357.67 222.19 2.84-1.63c.34-.2.62-.06.62.31a1.32 1.32 0 0 1-.62 1l-2.84 1.63c-.34.2-.61.06-.61-.31a1.31 1.31 0 0 1 .61-1Z" opacity=".6"/><path fill="#4682b4" d="m357.67 202 2.84-1.63c.34-.2.62-.06.62.31a1.32 1.32 0 0 1-.62 1l-2.84 1.63c-.34.2-.61.06-.61-.31a1.31 1.31 0 0 1 .61-1Z"/><path fill="#fff" d="m357.67 202 2.84-1.63c.34-.2.62-.06.62.31a1.32 1.32 0 0 1-.62 1l-2.84 1.63c-.34.2-.61.06-.61-.31a1.31 1.31 0 0 1 .61-1Z" opacity=".6"/><path fill="#4682b4" d="m357.67 205.82 2.84-1.63c.34-.2.62-.06.62.31a1.34 1.34 0 0 1-.62 1l-2.84 1.63c-.34.19-.61.06-.61-.31a1.3 1.3 0 0 1 .61-1Z"/><path fill="#fff" d="m357.67 205.82 2.84-1.63c.34-.2.62-.06.62.31a1.34 1.34 0 0 1-.62 1l-2.84 1.63c-.34.19-.61.06-.61-.31a1.3 1.3 0 0 1 .61-1Z" opacity=".6"/><path fill="#4682b4" d="m357.67 209.63 2.84-1.64c.34-.19.62-.05.62.31a1.31 1.31 0 0 1-.62 1l-2.84 1.7c-.34.19-.61 0-.61-.31a1.3 1.3 0 0 1 .61-1.06Z"/><path fill="#fff" d="m357.67 209.63 2.84-1.64c.34-.19.62-.05.62.31a1.31 1.31 0 0 1-.62 1l-2.84 1.7c-.34.19-.61 0-.61-.31a1.3 1.3 0 0 1 .61-1.06Z" opacity=".6"/><path fill="#4682b4" d="m357.67 239.22 2.84-1.63c.34-.2.62-.06.62.31a1.32 1.32 0 0 1-.62 1l-2.84 1.63c-.34.2-.61.06-.61-.31a1.31 1.31 0 0 1 .61-1Z"/><path fill="#fff" d="m357.67 239.22 2.84-1.63c.34-.2.62-.06.62.31a1.32 1.32 0 0 1-.62 1l-2.84 1.63c-.34.2-.61.06-.61-.31a1.31 1.31 0 0 1 .61-1Z" opacity=".6"/><path fill="#4682b4" d="m357.67 243 2.84-1.63c.34-.2.62-.06.62.31a1.34 1.34 0 0 1-.62 1l-2.84 1.63c-.34.2-.61.06-.61-.31a1.31 1.31 0 0 1 .61-1Z"/><path fill="#fff" d="m357.67 243 2.84-1.63c.34-.2.62-.06.62.31a1.34 1.34 0 0 1-.62 1l-2.84 1.63c-.34.2-.61.06-.61-.31a1.31 1.31 0 0 1 .61-1Z" opacity=".6"/><path fill="#4682b4" d="m357.67 231.68 2.84-1.64c.34-.19.62 0 .62.31a1.31 1.31 0 0 1-.62 1l-2.84 1.65c-.34.19-.61.05-.61-.31a1.3 1.3 0 0 1 .61-1.01Z"/><path fill="#fff" d="m357.67 231.68 2.84-1.64c.34-.19.62 0 .62.31a1.31 1.31 0 0 1-.62 1l-2.84 1.65c-.34.19-.61.05-.61-.31a1.3 1.3 0 0 1 .61-1.01Z" opacity=".6"/><path fill="#4682b4" d="m357.67 235.48 2.84-1.63c.34-.19.62 0 .62.31a1.31 1.31 0 0 1-.62 1l-2.84 1.64c-.34.19-.61.05-.61-.32a1.33 1.33 0 0 1 .61-1Z"/><path fill="#fff" d="m357.67 235.48 2.84-1.63c.34-.19.62 0 .62.31a1.31 1.31 0 0 1-.62 1l-2.84 1.64c-.34.19-.61.05-.61-.32a1.33 1.33 0 0 1 .61-1Z" opacity=".6"/><path fill="#e0e0e0" d="m363.94 171.62 21.93-12.75a1.31 1.31 0 0 0 .61-1c0-.37-.27-.51-.61-.31l-21.93 12.75a1.34 1.34 0 0 0-.62 1c0 .37.28.51.62.31ZM363.94 167.83l21.93-12.78a1.3 1.3 0 0 0 .61-1c0-.37-.27-.5-.61-.31l-21.93 12.76a1.31 1.31 0 0 0-.62 1c0 .38.28.5.62.33ZM385.87 161.48l-21.93 12.66a1.32 1.32 0 0 0-.62 1c0 .37.28.51.62.31l21.93-12.66a1.31 1.31 0 0 0 .61-1c0-.37-.27-.51-.61-.31ZM385.87 165.29 363.94 178a1.31 1.31 0 0 0-.62 1c0 .37.28.5.62.31l21.93-12.66a1.33 1.33 0 0 0 .61-1c0-.42-.27-.56-.61-.36ZM385.87 169.09l-21.93 12.67a1.31 1.31 0 0 0-.62 1c0 .36.28.5.62.31l21.93-12.66a1.33 1.33 0 0 0 .61-1c0-.41-.27-.51-.61-.32ZM363.94 188.14l21.93-12.65a1.31 1.31 0 0 0 .61-1c0-.37-.27-.51-.61-.31l-21.93 12.65a1.32 1.32 0 0 0-.62 1c0 .37.28.51.62.31ZM363.94 191.61l21.93-12.78a1.3 1.3 0 0 0 .61-1c0-.36-.27-.5-.61-.31l-21.93 12.78a1.31 1.31 0 0 0-.62 1c0 .36.28.5.62.31ZM364.24 216.32l17.55-10.12a1.34 1.34 0 0 0 .62-1c0-.37-.28-.51-.62-.31L364.24 215a1.34 1.34 0 0 0-.61 1c0 .38.28.52.61.32ZM364.22 219.61l21.38-12.38a1.34 1.34 0 0 0 .62-1c0-.37-.28-.51-.62-.31l-21.38 12.38a1.33 1.33 0 0 0-.61 1c0 .37.27.51.61.31ZM385.87 185.82l-21.82 12.56a1.31 1.31 0 0 0-.62 1c0 .36.28.5.62.31l21.82-12.56a1.33 1.33 0 0 0 .61-1c0-.37-.27-.51-.61-.31ZM385.87 189.58l-21.82 12.56a1.31 1.31 0 0 0-.62 1c0 .37.28.51.62.31l21.82-12.56a1.33 1.33 0 0 0 .61-1c0-.37-.27-.51-.61-.31ZM385.87 193.4 364.05 206a1.32 1.32 0 0 0-.62 1c0 .37.28.51.62.31l21.82-12.56a1.31 1.31 0 0 0 .61-1c0-.41-.27-.55-.61-.35ZM385.87 223l-21.82 12.56a1.31 1.31 0 0 0-.62 1c0 .37.28.51.62.31l21.82-12.56a1.31 1.31 0 0 0 .61-1c0-.31-.27-.48-.61-.31ZM385.87 226.79l-21.82 12.56a1.32 1.32 0 0 0-.62 1c0 .37.28.51.62.31l21.82-12.56a1.31 1.31 0 0 0 .61-1c0-.37-.27-.51-.61-.31ZM385.87 215.48 364.05 228a1.34 1.34 0 0 0-.62 1c0 .37.28.51.62.31l21.82-12.56a1.3 1.3 0 0 0 .61-1c0-.32-.27-.46-.61-.27ZM385.87 219.24l-21.82 12.57a1.31 1.31 0 0 0-.62 1c0 .36.28.5.62.31l21.82-12.57a1.3 1.3 0 0 0 .61-1c0-.36-.27-.5-.61-.31ZM385.87 230.61l-21.82 12.56a1.34 1.34 0 0 0-.62 1c0 .37.28.51.62.31l21.82-12.56a1.3 1.3 0 0 0 .61-1c0-.36-.27-.5-.61-.31Z"/><path fill="#4682b4" d="m357.67 246.84 2.84-1.64c.34-.19.62 0 .62.32a1.31 1.31 0 0 1-.62 1l-2.84 1.64c-.34.19-.61.06-.61-.31a1.3 1.3 0 0 1 .61-1.01Z"/><path fill="#fff" d="m357.67 246.84 2.84-1.64c.34-.19.62 0 .62.32a1.31 1.31 0 0 1-.62 1l-2.84 1.64c-.34.19-.61.06-.61-.31a1.3 1.3 0 0 1 .61-1.01Z" opacity=".6"/><path fill="#455a64" d="m352.5 262.15-3.34 1.93a1.32 1.32 0 0 0-.61 1.05v1.23c0 .39.27.54.61.35l3.34-1.93a1.35 1.35 0 0 0 .61-1v-1.28c0-.39-.28-.5-.61-.35ZM352.5 257.26l-3.34 1.93a1.32 1.32 0 0 0-.61 1.05v1.23c0 .39.27.54.61.35l3.34-1.93a1.35 1.35 0 0 0 .61-1.05v-1.23c0-.39-.28-.54-.61-.35ZM352.5 284.89l-3.34 1.93a1.32 1.32 0 0 0-.61 1.05v1.23c0 .39.27.54.61.35l3.34-1.93a1.35 1.35 0 0 0 .61-1v-1.23c0-.44-.28-.59-.61-.4ZM352.5 280l-3.34 1.93a1.34 1.34 0 0 0-.61 1.05v1.23c0 .39.27.54.61.35l3.34-1.93a1.35 1.35 0 0 0 .61-1.05v-1.23a.37.37 0 0 0-.61-.35ZM352.5 275.11l-3.34 1.89a1.35 1.35 0 0 0-.61 1v1.23c0 .39.27.55.61.35l3.34-1.93a1.35 1.35 0 0 0 .61-1.05v-1.23a.37.37 0 0 0-.61-.26ZM352.5 270.23l-3.34 1.92a1.35 1.35 0 0 0-.61 1.06v1.22c0 .39.27.55.61.35l3.34-1.92a1.38 1.38 0 0 0 .61-1.06v-1.22c0-.39-.28-.58-.61-.35Z"/><path fill="#4682b4" d="m357.67 256.45 2.84-1.63c.34-.2.62-.06.62.31a1.32 1.32 0 0 1-.62 1l-2.84 1.63c-.34.2-.61.06-.61-.31a1.31 1.31 0 0 1 .61-1Z"/><path fill="#fff" d="m357.67 256.45 2.84-1.63c.34-.2.62-.06.62.31a1.32 1.32 0 0 1-.62 1l-2.84 1.63c-.34.2-.61.06-.61-.31a1.31 1.31 0 0 1 .61-1Z" opacity=".6"/><path fill="#4682b4" d="m357.67 259.89 2.84-1.63c.34-.2.62-.06.62.31a1.32 1.32 0 0 1-.62 1l-2.84 1.63c-.34.2-.61.06-.61-.31a1.33 1.33 0 0 1 .61-1Z"/><path fill="#fff" d="m357.67 259.89 2.84-1.63c.34-.2.62-.06.62.31a1.32 1.32 0 0 1-.62 1l-2.84 1.63c-.34.2-.61.06-.61-.31a1.33 1.33 0 0 1 .61-1Z" opacity=".6"/><path fill="#4682b4" d="m357.67 276.92 2.84-1.63c.34-.2.62-.06.62.31a1.32 1.32 0 0 1-.62 1l-2.84 1.63c-.34.2-.61.06-.61-.31a1.33 1.33 0 0 1 .61-1Z"/><path fill="#fff" d="m357.67 276.92 2.84-1.63c.34-.2.62-.06.62.31a1.32 1.32 0 0 1-.62 1l-2.84 1.63c-.34.2-.61.06-.61-.31a1.33 1.33 0 0 1 .61-1Z" opacity=".6"/><path fill="#4682b4" d="m357.67 280.73 2.84-1.63c.34-.2.62-.06.62.31a1.32 1.32 0 0 1-.62 1l-2.84 1.63c-.34.2-.61.06-.61-.31a1.31 1.31 0 0 1 .61-1Z"/><path fill="#fff" d="m357.67 280.73 2.84-1.63c.34-.2.62-.06.62.31a1.32 1.32 0 0 1-.62 1l-2.84 1.63c-.34.2-.61.06-.61-.31a1.31 1.31 0 0 1 .61-1Z" opacity=".6"/><path fill="#4682b4" d="m357.67 269.38 2.84-1.64c.34-.19.62-.05.62.32a1.34 1.34 0 0 1-.62 1l-2.84 1.63c-.34.19-.61.06-.61-.31a1.3 1.3 0 0 1 .61-1Z"/><path fill="#fff" d="m357.67 269.38 2.84-1.64c.34-.19.62-.05.62.32a1.34 1.34 0 0 1-.62 1l-2.84 1.63c-.34.19-.61.06-.61-.31a1.3 1.3 0 0 1 .61-1Z" opacity=".6"/><path fill="#4682b4" d="m357.67 273.19 2.84-1.64c.34-.19.62-.05.62.31a1.31 1.31 0 0 1-.62 1l-2.84 1.64c-.34.19-.61.05-.61-.31a1.3 1.3 0 0 1 .61-1Z"/><path fill="#fff" d="m357.67 273.19 2.84-1.64c.34-.19.62-.05.62.31a1.31 1.31 0 0 1-.62 1l-2.84 1.64c-.34.19-.61.05-.61-.31a1.3 1.3 0 0 1 .61-1Z" opacity=".6"/><path fill="#e0e0e0" d="m364.24 254 17.55-10.12a1.34 1.34 0 0 0 .62-1c0-.37-.28-.51-.62-.31l-17.55 10.12a1.34 1.34 0 0 0-.61 1c0 .39.28.53.61.31ZM364.22 257.32l21.38-12.39a1.32 1.32 0 0 0 .62-1c0-.37-.28-.51-.62-.31L364.22 256a1.3 1.3 0 0 0-.61 1c0 .37.27.51.61.32ZM385.87 260.73l-21.82 12.56a1.32 1.32 0 0 0-.62 1c0 .37.28.51.62.31l21.82-12.56a1.31 1.31 0 0 0 .61-1c0-.37-.27-.51-.61-.31ZM385.87 264.49l-21.82 12.56a1.32 1.32 0 0 0-.62 1c0 .37.28.51.62.31l21.82-12.56a1.31 1.31 0 0 0 .61-1c0-.37-.27-.51-.61-.31ZM385.87 253.18l-21.82 12.57a1.31 1.31 0 0 0-.62 1c0 .36.28.5.62.31l21.82-12.57a1.3 1.3 0 0 0 .61-1c0-.36-.27-.49-.61-.31ZM385.87 256.94l-21.82 12.57a1.31 1.31 0 0 0-.62 1c0 .36.28.5.62.31l21.82-12.57a1.3 1.3 0 0 0 .61-1c0-.36-.27-.5-.61-.31ZM385.87 268.31l-21.82 12.56a1.34 1.34 0 0 0-.62 1c0 .37.28.51.62.32l21.82-12.57a1.3 1.3 0 0 0 .61-1c0-.36-.27-.5-.61-.31Z"/><path fill="#4682b4" d="m357.67 284.54 2.84-1.63c.34-.2.62-.06.62.31a1.34 1.34 0 0 1-.62 1l-2.84 1.63c-.34.19-.61.06-.61-.31a1.3 1.3 0 0 1 .61-1Z"/><path fill="#fff" d="m357.67 284.54 2.84-1.63c.34-.2.62-.06.62.31a1.34 1.34 0 0 1-.62 1l-2.84 1.63c-.34.19-.61.06-.61-.31a1.3 1.3 0 0 1 .61-1Z" opacity=".6"/><path fill="#e6e6e6" d="M198.38 338.2 170 321.78c-5.84-3.37-15.67-4.14-22-1.72l-16.87 6.5a97 97 0 0 0-21 11.93L93 352c-2.47 1.94-3.68 4.31-3.68 6.62v3.92c0 2.61 1.59 5.15 4.66 6.93l28.43 16.41c5.84 3.37 15.3 3.37 21.14 0l54.86-31.68c2.93-1.69 4.38-3.91 4.36-6.12v-3.78c-.02-2.21-1.47-4.42-4.39-6.1Z"/><path fill="#e0e0e0" d="M89.29 362.55c0 2.61 1.59 5.15 4.66 6.93l28.43 16.41a21.66 21.66 0 0 0 10.62 2.53v-4.06l-43.72-25.21c0 1 0 2.85.01 3.4Z"/><path d="M89.29 362.55c0 2.61 1.59 5.15 4.66 6.93l28.43 16.41a21.66 21.66 0 0 0 10.62 2.53v-4.06l-43.72-25.21c0 1 0 2.85.01 3.4Z" opacity=".1"/><path fill="#f0f0f0" d="m148 320.06-16.87 6.5a97 97 0 0 0-21 11.93L93 352c-5.29 4.17-4.85 10.28 1 13.65l28.43 16.41c5.84 3.37 15.3 3.37 21.14 0l54.86-31.67c5.84-3.37 5.84-8.83 0-12.2L170 321.78c-5.89-3.37-15.72-4.14-22-1.72Z"/><path d="M170 321.78c-5.84-3.37-15.67-4.14-22-1.72l-16.87 6.5a97 97 0 0 0-21 11.93L93 352c-2.47 1.94-3.68 4.31-3.68 6.62v3.92c0 2.61 1.59 5.15 4.66 6.93l15.84 9.14v-3.8l76-43.88Z" opacity=".1"/><path fill="#e0e0e0" d="M143.31 339.05c0-8.38 2.63-34.78 8.13-41l-17.6-1.94c-8.66 9.15-19 31-25.29 43.6 0 0 5.16 2.1 11.54 4.74s15.24 2.63 19.8 0a6.13 6.13 0 0 0 3.41-5.44Z"/><path d="M143.31 339.05c0-8.38 2.63-34.78 8.13-41l-17.6-1.94c-8.66 9.15-19 31-25.29 43.6 0 0 5.16 2.1 11.54 4.74s15.24 2.63 19.8 0a6.13 6.13 0 0 0 3.41-5.44Z" opacity=".1"/><path fill="#e0e0e0" d="M140 298.69c3.42 1.41 8.17 1.41 10.62 0s2.44-4.16 0-6.14l-4.41-3.55a50.85 50.85 0 0 0-12.37 7.18s2.77 1.09 6.16 2.51Z"/><path fill="#455a64" d="M43.76 356.62a10 10 0 0 0 9.07-.17l213.08-123a10.34 10.34 0 0 0 4.67-8.1V28.42a10 10 0 0 0-4.39-7.94 10 10 0 0 0-9.06.17l-213.08 123a10.37 10.37 0 0 0-4.68 8.11v196.92a10.06 10.06 0 0 0 4.39 7.94Z"/><path fill="#37474f" d="m52.83 356.44 213.08-123a10.35 10.35 0 0 0 4.68-8.11V28.41c0-3-2.1-4.19-4.68-2.7l-213.08 123a10.35 10.35 0 0 0-4.68 8.1v196.93c0 2.99 2.1 4.19 4.68 2.7Z"/><path fill="#ebebeb" d="M48.15 337.82v15.92c0 3 2.1 4.19 4.68 2.7l213.08-123a10.35 10.35 0 0 0 4.68-8.11v-15.95Z"/><path fill="#fff" d="M54.33 323V158.94a6.36 6.36 0 0 1 2.87-5L261.52 36c1.58-.92 2.87-.17 2.87 1.66v164.06a6.37 6.37 0 0 1-2.88 5l-204.31 118c-1.58.87-2.87.13-2.87-1.72Z"/><path fill="#263238" d="m40.75 147.16 8.78 5.06a9.87 9.87 0 0 0-1.39 4.63v196.89c0 2.72 1.84 4.25 4.68 2.71a10 10 0 0 1-9.07.17 9 9 0 0 1-4.39-7.38V151.79a9.74 9.74 0 0 1 1.39-4.63Z"/><path fill="#4682b4" d="m156.79 284 10.58-6.08c.95-.54 1.72-.16 1.72.87a3.68 3.68 0 0 1-1.72 2.85l-10.58 6.07c-.95.55-1.72.16-1.72-.86a3.66 3.66 0 0 1 1.72-2.85Z"/><path fill="#fafafa" d="M70 337.06a1.37 1.37 0 0 1-.34 0 .69.69 0 0 1-.19-.07l-.15-.08-.17-.11a1.88 1.88 0 0 1-1-1.66V170.28c0-4 1.68-6.37 3.24-7.28L272.82 47a2.68 2.68 0 0 1 1.3-.41 1.24 1.24 0 0 1 .58.13.91.91 0 0 1 .22.12.71.71 0 0 1 .15.15h.05l.06.1v.06a1.23 1.23 0 0 1 .14.31v.16l.07.19a1 1 0 0 1 0 .21V215.14a7.18 7.18 0 0 1-3.24 5.62l-198 114.06-3.26 1.88h-.13a1.78 1.78 0 0 1-.86.27Z"/><path fill="#4682b4" d="M274.12 47.12a.89.89 0 0 1 .39.09h.12l.08.11.07.11.07.14v.05l.15.38v.06a.34.34 0 0 1 0 .1v166.98a6.72 6.72 0 0 1-3 5.18L74 334.38l-3.23 1.87-.09.06-.09.05a1.32 1.32 0 0 1-.66.2H69.63l-.09-.06-.08-.05h-.05a1.38 1.38 0 0 1-.74-1.22V170.46c0-3.77 1.55-6 3-6.84l201.4-116a2.28 2.28 0 0 1 1.06-.34m0-1a3.15 3.15 0 0 0-1.55.47l-201.41 116c-1.92 1.11-3.49 3.83-3.49 7.71v164.76a2.37 2.37 0 0 0 1.26 2.1l.15.1.18.1a1.06 1.06 0 0 0 .3.1 1.74 1.74 0 0 0 .45.06 2.23 2.23 0 0 0 1.1-.33l.1-.05 3.33-1.92 198-114.06a7.72 7.72 0 0 0 3.49-6.05V48.17a1.13 1.13 0 0 0-.06-.32s0 0 0-.07a1.57 1.57 0 0 0-.08-.31 1.38 1.38 0 0 0-.21-.44.72.72 0 0 0-.11-.19.58.58 0 0 0-.1-.12 1.25 1.25 0 0 0-.23-.23 1.75 1.75 0 0 0-.29-.18 1.91 1.91 0 0 0-.8-.17Z"/><path fill="#4682b4" d="M274.92 46.29a2.58 2.58 0 0 0-2.35.3l-201.41 116a7.75 7.75 0 0 0-3.49 6.05v6.77l-4.46-2.61v-6.69a7.7 7.7 0 0 1 3.49-6l201.41-116a2.43 2.43 0 0 1 2.53-.2c.63.33 3.53 1.99 4.28 2.38Z"/><path fill="#4682b4" d="M276.05 48.58c0-2.2-1.56-3.09-3.48-2l-201.41 116a7.71 7.71 0 0 0-3.49 6v6.77l208.37-120Z"/><path fill="#fff" d="m272.57 46.59-201.4 116a7.14 7.14 0 0 0-2.46 2.59l-4.44-2.56a7 7 0 0 1 2.43-2.55l201.41-116a2.46 2.46 0 0 1 2.53-.21c.63.39 3.53 2 4.26 2.43a2.51 2.51 0 0 0-2.33.3Z" opacity=".2"/><path d="M63.21 172.79v-6.7a7.25 7.25 0 0 1 1.06-3.49l4.45 2.55a7 7 0 0 0-1 3.47v6.77Z" opacity=".15"/><path fill="#fafafa" d="M260.9 56.77a3.54 3.54 0 0 0-1.48 2.83c0 1.09.66 1.59 1.48 1.12a3.54 3.54 0 0 0 1.48-2.83c0-1.09-.66-1.59-1.48-1.12ZM266.23 53.69a3.54 3.54 0 0 0-1.48 2.83c0 1.09.66 1.59 1.48 1.12a3.54 3.54 0 0 0 1.48-2.83c0-1.09-.66-1.59-1.48-1.12ZM271.57 50.6a3.56 3.56 0 0 0-1.49 2.83c0 1.09.67 1.6 1.49 1.12a3.57 3.57 0 0 0 1.48-2.83c0-1.09-.67-1.59-1.48-1.12Z"/><path fill="#4682b4" d="m68.93 337.21-.18-.1-3.68-2.11a3.7 3.7 0 0 1-1.83-2.7 4.36 4.36 0 0 1 0-.51v-159l4.46 2.61v159.7a2.29 2.29 0 0 0 1.09 2 .67.67 0 0 0 .11.07Z"/><path fill="#fff" d="m68.93 337.21-.18-.1-3.68-2.11a3.7 3.7 0 0 1-1.83-2.7 4.36 4.36 0 0 1 0-.51v-159l4.46 2.61v159.7a2.29 2.29 0 0 0 1.09 2 .67.67 0 0 0 .11.07Z" opacity=".5"/><path fill="#e0e0e0" d="m113.91 211-34.73 20a5.14 5.14 0 0 0-2.33 4v52.31c0 1.49 1 2.09 2.33 1.34l34.73-20a5.15 5.15 0 0 0 2.34-4v-52.34c0-1.49-1.05-2.09-2.34-1.31Z"/><path fill="#fafafa" d="m110.69 250.72-3.2 1.85a2.52 2.52 0 0 0-1.18 2c0 .7.53 1 1.18.59l3.2-1.85a2.52 2.52 0 0 0 1.18-2c0-.7-.53-.97-1.18-.59Zm-3.2-28.44 3.2-1.85a2.52 2.52 0 0 0 1.18-2c0-.71-.53-1-1.18-.6l-3.2 1.85a2.55 2.55 0 0 0-1.18 2c0 .71.53.98 1.18.6Zm-5.67 8.55c0 .71.53 1 1.18.6l3.19-1.85a2.55 2.55 0 0 0 1.19-2c0-.71-.53-1-1.19-.6l-3.19 1.89a2.55 2.55 0 0 0-1.18 1.96Zm5.56 3.34c0-.7-.53-1-1.19-.6l-3.19 1.85a2.55 2.55 0 0 0-1.18 2c0 .71.53 1 1.18.6l3.19-1.85a2.53 2.53 0 0 0 1.19-2Zm3.31 3.4-3.2 1.85a2.55 2.55 0 0 0-1.18 2c0 .71.53 1 1.18.6l3.2-1.85a2.52 2.52 0 0 0 1.18-2c0-.7-.53-.97-1.18-.6Zm-8.87 13c0 .71.53 1 1.18.6l3.19-1.85a2.56 2.56 0 0 0 1.19-2c0-.71-.53-1-1.19-.6l-3.19 1.86a2.52 2.52 0 0 0-1.18 1.96Zm-19.41-13.81 19.52-11.27a2.54 2.54 0 0 0 1.18-2c0-.71-.53-1-1.18-.6l-19.52 11.32a2.49 2.49 0 0 0-1.18 2c0 .66.52.93 1.18.55Zm0 32.85 19.52-11.28a2.52 2.52 0 0 0 1.18-2c0-.7-.53-1-1.18-.6l-19.52 11.32a2.51 2.51 0 0 0-1.18 2c0 .67.52.95 1.18.56Zm0-26.28 15-8.69a2.55 2.55 0 0 0 1.18-2c0-.71-.53-1-1.18-.6l-15 8.69a2.53 2.53 0 0 0-1.18 2c0 .71.52.98 1.18.6Zm0 6.57 15-8.69a2.55 2.55 0 0 0 1.18-2c0-.7-.53-1-1.18-.59l-15 8.69a2.52 2.52 0 0 0-1.18 2c0 .69.52.97 1.18.59Zm0 6.57 19.52-11.27a2.55 2.55 0 0 0 1.18-2c0-.7-.53-1-1.18-.59l-19.52 11.3a2.52 2.52 0 0 0-1.18 2c0 .67.52.94 1.18.56Zm0 6.57 15-8.7a2.52 2.52 0 0 0 1.18-2c0-.7-.53-1-1.18-.59l-15 8.69a2.51 2.51 0 0 0-1.18 2c0 .71.52.97 1.18.56Zm28.28.89-3.2 1.84a2.55 2.55 0 0 0-1.18 2c0 .71.53 1 1.18.6l3.2-1.85a2.52 2.52 0 0 0 1.18-2c0-.7-.53-.97-1.18-.59Zm-3.31-3.39c0-.71-.53-1-1.19-.6l-3.19 1.85a2.52 2.52 0 0 0-1.18 2c0 .7.53 1 1.18.59l3.19-1.84a2.56 2.56 0 0 0 1.19-2Zm-5.45 8.46-19.52 11.26a2.49 2.49 0 0 0-1.18 2c0 .7.52 1 1.18.6l19.52-11.28a2.54 2.54 0 0 0 1.18-2c0-.71-.53-.97-1.18-.58Zm-19.52 7.27 15-8.7a2.52 2.52 0 0 0 1.18-2c0-.7-.53-1-1.18-.59l-15 8.69a2.51 2.51 0 0 0-1.18 2c0 .69.52.95 1.18.58Z"/><path fill="#e0e0e0" d="m113.91 157.16-34.73 20.05a5.14 5.14 0 0 0-2.33 4v40.11c0 1.48 1 2.09 2.33 1.34l34.73-20a5.15 5.15 0 0 0 2.34-4V158.5c0-1.5-1.05-2.09-2.34-1.34Z"/><path fill="#fafafa" d="m110.69 196.91-3.2 1.85a2.55 2.55 0 0 0-1.18 2c0 .71.53 1 1.18.6l3.2-1.85a2.54 2.54 0 0 0 1.18-2c0-.71-.53-.97-1.18-.6Zm-3.2-28.43 3.2-1.85a2.55 2.55 0 0 0 1.18-2c0-.71-.53-1-1.18-.6l-3.2 1.85a2.54 2.54 0 0 0-1.18 2c0 .7.53.97 1.18.6Zm-5.67 8.52c0 .7.53 1 1.18.59l3.19-1.84a2.56 2.56 0 0 0 1.19-2c0-.71-.53-1-1.19-.6l-3.19 1.92a2.52 2.52 0 0 0-1.18 1.93Zm4.37 2.74-3.19 1.88a2.52 2.52 0 0 0-1.18 2c0 .71.53 1 1.18.6l3.19-1.85a2.56 2.56 0 0 0 1.19-2c0-.71-.53-.98-1.19-.6Zm4.5 4-3.2 1.85a2.54 2.54 0 0 0-1.18 2c0 .71.53 1 1.18.6l3.2-1.85a2.55 2.55 0 0 0 1.18-2c0-.68-.53-.95-1.18-.57Zm-3.31 9.75c0-.7-.53-1-1.19-.6l-3.19 1.88a2.55 2.55 0 0 0-1.18 2c0 .71.53 1 1.18.6l3.19-1.85a2.53 2.53 0 0 0 1.19-2ZM82.41 183l19.52-11.28a2.52 2.52 0 0 0 1.18-2c0-.7-.53-1-1.18-.59L82.41 180.4a2.52 2.52 0 0 0-1.18 2c0 .67.52.94 1.18.6Zm19.52 19-19.52 11.24a2.52 2.52 0 0 0-1.18 2c0 .71.52 1 1.18.6l19.52-11.27a2.55 2.55 0 0 0 1.18-2c0-.71-.53-.98-1.18-.57Zm-19.52-12.47 15-8.7a2.52 2.52 0 0 0 1.18-2c0-.7-.53-1-1.18-.6l-15 8.7a2.51 2.51 0 0 0-1.18 2c0 .71.52.97 1.18.6Zm0 6.57 15-8.7a2.54 2.54 0 0 0 1.18-2c0-.71-.53-1-1.18-.6l-15 8.7a2.51 2.51 0 0 0-1.18 2c0 .71.52.97 1.18.6Zm0 6.56 19.52-11.27a2.54 2.54 0 0 0 1.18-2c0-.71-.53-1-1.18-.6l-19.52 11.32a2.49 2.49 0 0 0-1.18 2c0 .66.52.89 1.18.55Zm0 6.57 15-8.69a2.54 2.54 0 0 0 1.18-2c0-.71-.53-1-1.18-.6l-15 8.7a2.49 2.49 0 0 0-1.18 2c0 .7.52.97 1.18.59Z"/><path fill="#e0e0e0" d="m113.91 276.84-34.73 20.05a5.14 5.14 0 0 0-2.33 4v19.22c0 1.49 1 2.09 2.33 1.35l34.73-20.05a5.18 5.18 0 0 0 2.34-4.05v-19.17c0-1.49-1.05-2.1-2.34-1.35Z"/><path fill="#fafafa" d="m110.69 283.75-3.2 1.85a2.54 2.54 0 0 0-1.18 2c0 .71.53 1 1.18.6l3.2-1.85a2.55 2.55 0 0 0 1.18-2c0-.71-.53-.98-1.18-.6Zm-4.5 9.15-3.19 1.85a2.52 2.52 0 0 0-1.18 2c0 .7.53 1 1.18.59l3.19-1.84a2.56 2.56 0 0 0 1.19-2c0-.71-.53-.98-1.19-.6Zm0 6.55L103 301.3a2.54 2.54 0 0 0-1.18 2c0 .71.53 1 1.18.6l3.19-1.85a2.56 2.56 0 0 0 1.19-2c0-.71-.53-.98-1.19-.6Zm-23.78 3.19 19.52-11.28a2.52 2.52 0 0 0 1.18-2c0-.7-.53-1-1.18-.59l-19.52 11.31a2.52 2.52 0 0 0-1.18 2c0 .67.52.92 1.18.56Zm15-4.69-15 8.7a2.51 2.51 0 0 0-1.18 2c0 .71.52 1 1.18.6l15-8.7a2.52 2.52 0 0 0 1.18-2c.03-.7-.5-.97-1.15-.55Zm0 6.57-15 8.7a2.51 2.51 0 0 0-1.18 2c0 .71.52 1 1.18.6l15-8.7a2.54 2.54 0 0 0 1.18-2c.03-.71-.5-.97-1.15-.6Z"/><path fill="#455a64" d="m129.63 258.23-4.53 2.62a1.8 1.8 0 0 0-.82 1.42v1.67c0 .52.37.73.82.47l4.53-2.61a1.84 1.84 0 0 0 .82-1.43v-1.66c0-.53-.37-.71-.82-.48Zm0-6.62-4.53 2.61a1.81 1.81 0 0 0-.82 1.43v1.66c0 .53.37.74.82.48l4.53-2.62a1.82 1.82 0 0 0 .82-1.42v-1.67c0-.52-.37-.73-.82-.47Zm0-19.61-4.53 2.62a1.8 1.8 0 0 0-.82 1.42v1.67c0 .52.37.73.82.47l4.53-2.61a1.84 1.84 0 0 0 .82-1.43v-1.66c0-.48-.37-.74-.82-.48Zm0 6.63-4.53 2.61a1.8 1.8 0 0 0-.82 1.42v1.67c0 .52.37.74.82.47l4.53-2.61a1.82 1.82 0 0 0 .82-1.42v-1.67c0-.52-.37-.74-.82-.47Zm0 50.41-4.53 2.62a1.8 1.8 0 0 0-.82 1.42v1.67c0 .52.37.73.82.47l4.53-2.61a1.84 1.84 0 0 0 .82-1.43v-1.66c0-.52-.37-.74-.82-.52Zm0-63.66L125.1 228a1.81 1.81 0 0 0-.82 1.43v1.66c0 .53.37.74.82.48l4.53-2.62a1.82 1.82 0 0 0 .82-1.42v-1.66c0-.54-.37-.75-.82-.49Zm0 57L125.1 285a1.81 1.81 0 0 0-.82 1.43v1.66c0 .53.37.74.82.48l4.53-2.62a1.82 1.82 0 0 0 .82-1.42v-1.63c0-.53-.37-.74-.82-.48Zm0-6.62-4.53 2.61a1.8 1.8 0 0 0-.82 1.43v1.66c0 .52.37.74.82.47l4.53-2.61a1.82 1.82 0 0 0 .82-1.42v-1.67c0-.48-.37-.69-.82-.43Zm0-6.63-4.53 2.62a1.8 1.8 0 0 0-.82 1.42v1.67c0 .52.37.73.82.47l4.53-2.61a1.82 1.82 0 0 0 .82-1.43v-1.66c0-.48-.37-.7-.82-.44Zm0-102.87-4.53 2.61a1.8 1.8 0 0 0-.82 1.43v1.7c0 .52.37.74.82.47l4.53-2.61a1.82 1.82 0 0 0 .82-1.42v-1.67c0-.52-.37-.77-.82-.47Zm0-6.63-4.53 2.62a1.8 1.8 0 0 0-.82 1.42v1.67c0 .52.37.73.82.47l4.53-2.61a1.82 1.82 0 0 0 .82-1.43v-1.66c0-.48-.37-.7-.82-.44Zm0 13.25-4.53 2.61a1.81 1.81 0 0 0-.82 1.43v1.66c0 .53.37.74.82.48l4.53-2.62a1.82 1.82 0 0 0 .82-1.42v-1.62c0-.53-.37-.74-.82-.48Zm0-19.87-4.53 2.62a1.8 1.8 0 0 0-.82 1.42v1.66c0 .53.37.74.82.48l4.53-2.61a1.84 1.84 0 0 0 .82-1.43v-1.66c0-.49-.37-.7-.82-.44Zm0 52.72-4.53 2.62a1.8 1.8 0 0 0-.82 1.42v1.67c0 .52.37.73.82.47l4.53-2.61a1.84 1.84 0 0 0 .82-1.43v-1.66c0-.49-.37-.7-.82-.44Zm0-6.62-4.53 2.61a1.81 1.81 0 0 0-.82 1.43v1.66c0 .53.37.74.82.48l4.53-2.62a1.82 1.82 0 0 0 .82-1.42v-1.66c0-.49-.37-.7-.82-.44Zm0-13.25-4.53 2.62a1.8 1.8 0 0 0-.82 1.42v1.67c0 .52.37.73.82.47l4.53-2.61a1.82 1.82 0 0 0 .82-1.43v-1.66c0-.49-.37-.7-.82-.44Zm0 32.86-4.53 2.61a1.8 1.8 0 0 0-.82 1.43v1.66c0 .52.37.74.82.47l4.53-2.61a1.82 1.82 0 0 0 .82-1.42v-1.67c0-.48-.37-.69-.82-.43Zm0-26.23-4.53 2.61a1.8 1.8 0 0 0-.82 1.43v1.66c0 .52.37.74.82.47l4.53-2.61a1.82 1.82 0 0 0 .82-1.42V193c0-.52-.37-.73-.82-.47Z"/><path fill="#4682b4" d="m141.26 166.38 121.22-69.95c.46-.27.83-.08.83.42a1.8 1.8 0 0 1-.83 1.38l-121.22 70c-.46.26-.84.07-.84-.42a1.78 1.78 0 0 1 .84-1.43Z"/><path fill="#fff" d="m141.26 166.38 121.22-69.95c.46-.27.83-.08.83.42a1.8 1.8 0 0 1-.83 1.38l-121.22 70c-.46.26-.84.07-.84-.42a1.78 1.78 0 0 1 .84-1.43Z" opacity=".6"/><path fill="#4682b4" d="m174.15 125.62-32.86 19a1.77 1.77 0 0 0-.83 1.38c0 .5.37.69.83.42l32.86-19A1.8 1.8 0 0 0 175 126c0-.46-.39-.65-.85-.38ZM263 74.4l-85.61 49.35a1.8 1.8 0 0 0-.83 1.38c0 .5.37.69.83.43L263 76.2a1.78 1.78 0 0 0 .83-1.38c-.02-.5-.39-.69-.83-.42Z"/><path fill="#fff" d="m174.15 125.62-32.86 19a1.77 1.77 0 0 0-.83 1.38c0 .5.37.69.83.42l32.86-19A1.8 1.8 0 0 0 175 126c0-.46-.39-.65-.85-.38ZM263 74.4l-85.61 49.35a1.8 1.8 0 0 0-.83 1.38c0 .5.37.69.83.43L263 76.2a1.78 1.78 0 0 0 .83-1.38c-.02-.5-.39-.69-.83-.42Z" opacity=".6"/><path fill="#e0e0e0" d="m141.29 151.57 16.64-9.57a1.77 1.77 0 0 0 .83-1.38c0-.5-.37-.69-.83-.42l-16.64 9.62a1.77 1.77 0 0 0-.83 1.38c0 .45.37.63.83.37ZM141.29 156.72l10-5.75a1.8 1.8 0 0 0 .83-1.39c0-.49-.37-.68-.83-.42l-10 5.75a1.8 1.8 0 0 0-.83 1.39c0 .49.37.7.83.42ZM161.15 140.09l19.44-11.31a1.8 1.8 0 0 0 .83-1.38c0-.5-.37-.69-.83-.42l-19.44 11.31a1.77 1.77 0 0 0-.83 1.38c0 .5.37.69.83.42ZM170.41 138.09 154 147.64a1.77 1.77 0 0 0-.83 1.38c0 .5.37.69.83.42l16.46-9.55a1.79 1.79 0 0 0 .84-1.38c-.05-.51-.43-.69-.89-.42ZM172.81 137.61c0 .49.37.68.83.42L262.49 87a1.77 1.77 0 0 0 .83-1.38c0-.5-.37-.68-.83-.42l-88.85 51.05a1.8 1.8 0 0 0-.83 1.36ZM170.41 143.61l-29.15 16.74a1.81 1.81 0 0 0-.84 1.38c0 .5.38.69.84.42l29.15-16.73a1.81 1.81 0 0 0 .84-1.38c0-.5-.38-.69-.84-.43ZM262.49 90.7l-88.85 51.05a1.8 1.8 0 0 0-.83 1.38c0 .5.37.69.83.42l88.85-51.05a1.77 1.77 0 0 0 .83-1.38c0-.5-.32-.69-.83-.42Z" opacity=".6"/><path fill="#4682b4" d="m141.46 207.23 3.85-2.21c.46-.27.84-.08.84.42a1.78 1.78 0 0 1-.84 1.38l-3.85 2.18c-.46.27-.83.08-.83-.42a1.78 1.78 0 0 1 .83-1.35Z"/><path fill="#fff" d="m141.46 207.23 3.85-2.21c.46-.27.84-.08.84.42a1.78 1.78 0 0 1-.84 1.38l-3.85 2.18c-.46.27-.83.08-.83-.42a1.78 1.78 0 0 1 .83-1.35Z" opacity=".6"/><path fill="#4682b4" d="m141.46 179 3.85-2.21c.46-.27.84-.08.84.42a1.78 1.78 0 0 1-.84 1.38l-3.85 2.21c-.46.27-.83.08-.83-.42a1.8 1.8 0 0 1 .83-1.38Z"/><path fill="#fff" d="m141.46 179 3.85-2.21c.46-.27.84-.08.84.42a1.78 1.78 0 0 1-.84 1.38l-3.85 2.21c-.46.27-.83.08-.83-.42a1.8 1.8 0 0 1 .83-1.38Z" opacity=".6"/><path fill="#4682b4" d="m141.46 190.14 3.85-2.22c.46-.26.84-.07.84.42a1.81 1.81 0 0 1-.84 1.39l-3.85 2.21c-.46.26-.83.07-.83-.42a1.77 1.77 0 0 1 .83-1.38Z"/><path fill="#fff" d="m141.46 190.14 3.85-2.22c.46-.26.84-.07.84.42a1.81 1.81 0 0 1-.84 1.39l-3.85 2.21c-.46.26-.83.07-.83-.42a1.77 1.77 0 0 1 .83-1.38Z" opacity=".6"/><path fill="#4682b4" d="m141.46 195.29 3.85-2.21c.46-.26.84-.08.84.42a1.78 1.78 0 0 1-.84 1.38l-3.85 2.22c-.46.26-.83.07-.83-.42a1.8 1.8 0 0 1 .83-1.39Z"/><path fill="#fff" d="m141.46 195.29 3.85-2.21c.46-.26.84-.08.84.42a1.78 1.78 0 0 1-.84 1.38l-3.85 2.22c-.46.26-.83.07-.83-.42a1.8 1.8 0 0 1 .83-1.39Z" opacity=".6"/><path fill="#4682b4" d="m141.46 200.45 3.85-2.21c.46-.26.84-.08.84.42a1.78 1.78 0 0 1-.84 1.38l-3.85 2.22c-.46.26-.83.07-.83-.42a1.8 1.8 0 0 1 .83-1.39Z"/><path fill="#fff" d="m141.46 200.45 3.85-2.21c.46-.26.84-.08.84.42a1.78 1.78 0 0 1-.84 1.38l-3.85 2.22c-.46.26-.83.07-.83-.42a1.8 1.8 0 0 1 .83-1.39Z" opacity=".6"/><path fill="#4682b4" d="m141.46 211.89 3.85-2.21c.46-.26.84-.08.84.42a1.78 1.78 0 0 1-.84 1.38l-3.85 2.22c-.46.26-.83.07-.83-.42a1.8 1.8 0 0 1 .83-1.39Z"/><path fill="#fff" d="m141.46 211.89 3.85-2.21c.46-.26.84-.08.84.42a1.78 1.78 0 0 1-.84 1.38l-3.85 2.22c-.46.26-.83.07-.83-.42a1.8 1.8 0 0 1 .83-1.39Z" opacity=".6"/><path fill="#4682b4" d="m141.46 245.67 3.85-2.22c.46-.26.84-.07.84.43a1.81 1.81 0 0 1-.84 1.38l-3.85 2.21c-.46.27-.83.08-.83-.42a1.77 1.77 0 0 1 .83-1.38Z"/><path fill="#fff" d="m141.46 245.67 3.85-2.22c.46-.26.84-.07.84.43a1.81 1.81 0 0 1-.84 1.38l-3.85 2.21c-.46.27-.83.08-.83-.42a1.77 1.77 0 0 1 .83-1.38Z" opacity=".6"/><path fill="#4682b4" d="m141.46 250.33 3.85-2.21c.46-.27.84-.08.84.42a1.78 1.78 0 0 1-.84 1.38l-3.85 2.21c-.46.27-.83.08-.83-.42a1.8 1.8 0 0 1 .83-1.38Z"/><path fill="#fff" d="m141.46 250.33 3.85-2.21c.46-.27.84-.08.84.42a1.78 1.78 0 0 1-.84 1.38l-3.85 2.21c-.46.27-.83.08-.83-.42a1.8 1.8 0 0 1 .83-1.38Z" opacity=".6"/><path fill="#4682b4" d="m141.46 223 3.85-2.21c.46-.27.84-.08.84.42a1.81 1.81 0 0 1-.84 1.38l-3.85 2.21c-.46.27-.83.08-.83-.42a1.77 1.77 0 0 1 .83-1.38Z"/><path fill="#fff" d="m141.46 223 3.85-2.21c.46-.27.84-.08.84.42a1.81 1.81 0 0 1-.84 1.38l-3.85 2.21c-.46.27-.83.08-.83-.42a1.77 1.77 0 0 1 .83-1.38Z" opacity=".6"/><path fill="#4682b4" d="m141.46 228.15 3.85-2.22c.46-.26.84-.07.84.43a1.81 1.81 0 0 1-.84 1.38l-3.85 2.26c-.46.27-.83.08-.83-.42a1.77 1.77 0 0 1 .83-1.43Z"/><path fill="#fff" d="m141.46 228.15 3.85-2.22c.46-.26.84-.07.84.43a1.81 1.81 0 0 1-.84 1.38l-3.85 2.26c-.46.27-.83.08-.83-.42a1.77 1.77 0 0 1 .83-1.43Z" opacity=".6"/><path fill="#4682b4" d="m141.46 233.31 3.85-2.22c.46-.26.84-.07.84.42a1.81 1.81 0 0 1-.84 1.39l-3.85 2.21c-.46.26-.83.08-.83-.42a1.77 1.77 0 0 1 .83-1.38Z"/><path fill="#fff" d="m141.46 233.31 3.85-2.22c.46-.26.84-.07.84.42a1.81 1.81 0 0 1-.84 1.39l-3.85 2.21c-.46.26-.83.08-.83-.42a1.77 1.77 0 0 1 .83-1.38Z" opacity=".6"/><path fill="#4682b4" d="m141.46 273.41 3.85-2.22c.46-.26.84-.07.84.42a1.81 1.81 0 0 1-.84 1.39l-3.85 2.21c-.46.26-.83.08-.83-.42a1.77 1.77 0 0 1 .83-1.38Z"/><path fill="#fff" d="m141.46 273.41 3.85-2.22c.46-.26.84-.07.84.42a1.81 1.81 0 0 1-.84 1.39l-3.85 2.21c-.46.26-.83.08-.83-.42a1.77 1.77 0 0 1 .83-1.38Z" opacity=".6"/><path fill="#4682b4" d="m141.46 278.56 3.85-2.21c.46-.26.84-.08.84.42a1.78 1.78 0 0 1-.84 1.38l-3.85 2.22c-.46.26-.83.07-.83-.42a1.8 1.8 0 0 1 .83-1.39Z"/><path fill="#fff" d="m141.46 278.56 3.85-2.21c.46-.26.84-.08.84.42a1.78 1.78 0 0 1-.84 1.38l-3.85 2.22c-.46.26-.83.07-.83-.42a1.8 1.8 0 0 1 .83-1.39Z" opacity=".6"/><path fill="#4682b4" d="m141.46 263.18 3.85-2.21c.46-.26.84-.08.84.42a1.78 1.78 0 0 1-.84 1.38l-3.85 2.23c-.46.26-.83.07-.83-.43a1.8 1.8 0 0 1 .83-1.39Z"/><path fill="#fff" d="m141.46 263.18 3.85-2.21c.46-.26.84-.08.84.42a1.78 1.78 0 0 1-.84 1.38l-3.85 2.23c-.46.26-.83.07-.83-.43a1.8 1.8 0 0 1 .83-1.39Z" opacity=".6"/><path fill="#4682b4" d="m141.46 268.34 3.85-2.21c.46-.27.84-.08.84.42a1.78 1.78 0 0 1-.84 1.38l-3.85 2.22c-.46.26-.83.07-.83-.43a1.8 1.8 0 0 1 .83-1.38Z"/><path fill="#fff" d="m141.46 268.34 3.85-2.21c.46-.27.84-.08.84.42a1.78 1.78 0 0 1-.84 1.38l-3.85 2.22c-.46.26-.83.07-.83-.43a1.8 1.8 0 0 1 .83-1.38Z" opacity=".6"/><path fill="#e0e0e0" d="m150 181.82 113-65.35a1.78 1.78 0 0 0 .84-1.38c0-.5-.38-.69-.84-.42L150 180a1.8 1.8 0 0 0-.83 1.39c-.05.5.32.69.83.43ZM150 176.67l113-65.37a1.78 1.78 0 0 0 .83-1.38c0-.5-.37-.69-.83-.42l-113 65.37a1.77 1.77 0 0 0-.83 1.38c-.05.5.32.69.83.42ZM263 120l-113 65.23a1.77 1.77 0 0 0-.83 1.38c0 .5.37.69.83.42l113-65.22a1.78 1.78 0 0 0 .84-1.38c-.02-.5-.4-.69-.84-.43ZM263 125.17l-113 65.22a1.77 1.77 0 0 0-.83 1.38c0 .5.37.68.83.42L263 127a1.79 1.79 0 0 0 .84-1.38c-.02-.53-.4-.72-.84-.45ZM263 130.33l-113 65.22a1.77 1.77 0 0 0-.83 1.38c0 .5.37.68.83.42l113-65.22a1.79 1.79 0 0 0 .84-1.38c-.02-.5-.4-.69-.84-.42ZM150 204.2 263 139a1.78 1.78 0 0 0 .83-1.38c0-.5-.37-.69-.83-.42l-113 65.2a1.8 1.8 0 0 0-.83 1.39c-.05.48.32.67.83.41ZM150 208.89l113-65.37a1.77 1.77 0 0 0 .83-1.38c0-.5-.37-.69-.83-.42l-113 65.37a1.8 1.8 0 0 0-.83 1.38c-.05.53.32.69.83.42ZM150.37 242.38l23.78-13.72a1.8 1.8 0 0 0 .83-1.38c0-.5-.37-.69-.83-.42l-23.78 13.71a1.8 1.8 0 0 0-.83 1.39c0 .49.37.68.83.42ZM150.34 246.84 262.62 182a1.78 1.78 0 0 0 .84-1.38c0-.5-.38-.69-.84-.42L150.34 245a1.77 1.77 0 0 0-.83 1.38c0 .54.37.73.83.46ZM263 153l-112.9 65.07a1.77 1.77 0 0 0-.83 1.38c0 .5.37.68.83.42L263 154.78a1.78 1.78 0 0 0 .84-1.38c-.02-.5-.4-.68-.84-.4ZM263 158.08l-112.9 65.08a1.8 1.8 0 0 0-.83 1.38c0 .5.37.69.83.42L263 159.88a1.79 1.79 0 0 0 .84-1.38c-.02-.5-.4-.69-.84-.42ZM263 163.26l-112.9 65.08a1.8 1.8 0 0 0-.83 1.38c0 .5.37.69.83.43L263 165.06a1.78 1.78 0 0 0 .84-1.38c-.02-.5-.4-.68-.84-.42ZM263 203.4l-112.9 65.08a1.8 1.8 0 0 0-.83 1.39c0 .49.37.68.83.42L263 205.2a1.78 1.78 0 0 0 .84-1.38c-.02-.5-.4-.69-.84-.42ZM263 208.49l-112.9 65.09a1.77 1.77 0 0 0-.83 1.38c0 .5.37.69.83.42L263 210.3a1.81 1.81 0 0 0 .84-1.38c-.02-.5-.4-.69-.84-.43ZM263 193.18l-112.9 65.08a1.78 1.78 0 0 0-.83 1.38c0 .5.37.69.83.42L263 195a1.79 1.79 0 0 0 .84-1.38c-.02-.52-.4-.71-.84-.44ZM263 198.27l-112.9 65.09a1.77 1.77 0 0 0-.83 1.38c0 .5.37.69.83.42L263 200.08a1.81 1.81 0 0 0 .84-1.39c-.02-.49-.4-.69-.84-.42ZM263 213.68l-112.9 65.08a1.78 1.78 0 0 0-.83 1.38c0 .5.37.69.83.42L263 215.48a1.81 1.81 0 0 0 .84-1.38c-.02-.5-.4-.69-.84-.42Z"/><path fill="#4682b4" d="m141.46 283.72 3.85-2.21c.46-.26.84-.08.84.42a1.78 1.78 0 0 1-.84 1.38l-3.85 2.22c-.46.26-.83.07-.83-.42a1.8 1.8 0 0 1 .83-1.39Z"/><path fill="#fff" d="m141.46 283.72 3.85-2.21c.46-.26.84-.08.84.42a1.78 1.78 0 0 1-.84 1.38l-3.85 2.22c-.46.26-.83.07-.83-.42a1.8 1.8 0 0 1 .83-1.39Z" opacity=".6"/><path fill="#4682b4" d="M112.89 400.1a1.58 1.58 0 0 1-1.08-1.62l.34-2.73a1.26 1.26 0 0 0-1.12-1.4l-7.19-.75a2 2 0 0 0-1.85 1l-1.43 2.79a2.5 2.5 0 0 1-1.86 1.21c-1.25.1-2.5.25-3.72.46a3.61 3.61 0 0 1-2.32-.46l-3.87-2.6a2.73 2.73 0 0 0-2.25-.23l-5.75 2.3a.84.84 0 0 0-.59.74v5.94a.94.94 0 0 0 .28.64l.33.36a3 3 0 0 1-1.58.49l-6.56-.24a1.75 1.75 0 0 0-1.67 1.17l-1 3.18a1.29 1.29 0 0 0 0 .39v5.93a1.07 1.07 0 0 0 .93 1l5.09.87-2 1a.82.82 0 0 0-.51.72v5.94a.86.86 0 0 0 .35.65l3.67 3.06a2.62 2.62 0 0 0 2.2.43l5.59-1.75a4 4 0 0 1 2.38.15 28.08 28.08 0 0 0 3 1.11 1.6 1.6 0 0 1 .74.52v4a1.25 1.25 0 0 0 1.12 1.23l7.18.75a2 2 0 0 0 1.86-1l1.43-2.79a2.5 2.5 0 0 1 1.86-1.21c1.25-.1 2.5-.25 3.72-.46a3.61 3.61 0 0 1 2.32.46l3.87 2.57a2.73 2.73 0 0 0 2.25.23l5.74-2.3a.84.84 0 0 0 .6-.77v-5.92a1 1 0 0 0-.28-.64l-.34-.35a3 3 0 0 1 1.59-.49l6.56.26a1.75 1.75 0 0 0 1.66-1.16l1-3.18a1.12 1.12 0 0 0 0-.36v-5.9a1.06 1.06 0 0 0-.91-1.1l-5.09-.87 2-1a.8.8 0 0 0 .52-.73v-5.9a.86.86 0 0 0-.35-.68l-3.69-3.06a2.64 2.64 0 0 0-2.21-.43l-5.59 1.75a3.92 3.92 0 0 1-2.37-.16 30.39 30.39 0 0 0-3-1.06ZM89.05 415a10.74 10.74 0 0 1 4.9-3.55c6.23-2.5 14.79-1.6 19.11 2a8.3 8.3 0 0 1 1.46 1.54 10.6 10.6 0 0 1-4.92 3.57c-6.22 2.49-14.78 1.6-19.1-2a7.77 7.77 0 0 1-1.45-1.56Z"/><path fill="#fff" d="M112.89 400.1a1.58 1.58 0 0 1-1.08-1.62l.34-2.73a1.26 1.26 0 0 0-1.12-1.4l-7.19-.75a2 2 0 0 0-1.85 1l-1.43 2.79a2.5 2.5 0 0 1-1.86 1.21c-1.25.1-2.5.25-3.72.46a3.61 3.61 0 0 1-2.32-.46l-3.87-2.6a2.73 2.73 0 0 0-2.25-.23l-5.75 2.3a.84.84 0 0 0-.59.74v5.94a.94.94 0 0 0 .28.64l.33.36a3 3 0 0 1-1.58.49l-6.56-.24a1.75 1.75 0 0 0-1.67 1.17l-1 3.18a1.29 1.29 0 0 0 0 .39v5.93a1.07 1.07 0 0 0 .93 1l5.09.87-2 1a.82.82 0 0 0-.51.72v5.94a.86.86 0 0 0 .35.65l3.67 3.06a2.62 2.62 0 0 0 2.2.43l5.59-1.75a4 4 0 0 1 2.38.15 28.08 28.08 0 0 0 3 1.11 1.6 1.6 0 0 1 .74.52v4a1.25 1.25 0 0 0 1.12 1.23l7.18.75a2 2 0 0 0 1.86-1l1.43-2.79a2.5 2.5 0 0 1 1.86-1.21c1.25-.1 2.5-.25 3.72-.46a3.61 3.61 0 0 1 2.32.46l3.87 2.57a2.73 2.73 0 0 0 2.25.23l5.74-2.3a.84.84 0 0 0 .6-.77v-5.92a1 1 0 0 0-.28-.64l-.34-.35a3 3 0 0 1 1.59-.49l6.56.26a1.75 1.75 0 0 0 1.66-1.16l1-3.18a1.12 1.12 0 0 0 0-.36v-5.9a1.06 1.06 0 0 0-.91-1.1l-5.09-.87 2-1a.8.8 0 0 0 .52-.73v-5.9a.86.86 0 0 0-.35-.68l-3.69-3.06a2.64 2.64 0 0 0-2.21-.43l-5.59 1.75a3.92 3.92 0 0 1-2.37-.16 30.39 30.39 0 0 0-3-1.06ZM89.05 415a10.74 10.74 0 0 1 4.9-3.55c6.23-2.5 14.79-1.6 19.11 2a8.3 8.3 0 0 1 1.46 1.54 10.6 10.6 0 0 1-4.92 3.57c-6.22 2.49-14.78 1.6-19.1-2a7.77 7.77 0 0 1-1.45-1.56Z" opacity=".2"/><path d="M78.66 414.31a2.15 2.15 0 0 0-1.52-1.46l-6.25-1.07a1.07 1.07 0 0 1-.93-1v5.86a1.09 1.09 0 0 0 .92 1l5.09.87 2.63-1.32a1.24 1.24 0 0 0 .53-1.69 8.62 8.62 0 0 1-.47-1.19Zm1.53-9.54a1 1 0 0 0 .28.65l.33.35a2.63 2.63 0 0 0 .55-.41 12.6 12.6 0 0 1 1.57-1.4 1.12 1.12 0 0 0 .16-1.69l-2.61-2.77a.94.94 0 0 1-.28-.64ZM94 405.52c-5.38 2.15-7.27 6.11-4.9 9.47a10.54 10.54 0 0 1 4.9-3.56c6.23-2.49 14.79-1.61 19.11 2a8.23 8.23 0 0 1 1.45 1.55c1.67-2.38 1.28-5.19-1.44-7.46-4.38-3.61-12.93-4.52-19.12-2Z" opacity=".1"/><path fill="#4682b4" d="M103.6 426a2.11 2.11 0 0 0-.59.69l-1.44 2.79a2 2 0 0 1-1.06.89v5.92a2 2 0 0 0 1-.89l1.44-2.79a2.17 2.17 0 0 1 .61-.68Zm19.76-.78a.83.83 0 0 1-.6.77l-5.74 2.3a2.56 2.56 0 0 1-1.51.06v5.92a2.74 2.74 0 0 0 1.51-.06l5.75-2.31a.82.82 0 0 0 .59-.76Zm-38.14-2.48-5.51 1.73a2.44 2.44 0 0 1-1.39 0v5.9a2.54 2.54 0 0 0 1.39 0l5.53-1.73Zm48.39-9.35a2.21 2.21 0 0 1-.06.34l-1 3.18a1.77 1.77 0 0 1-1.66 1.17l-6.57-.27a2.74 2.74 0 0 0-1 .21v5.92a2.63 2.63 0 0 1 1-.21l6.56.26a1.75 1.75 0 0 0 1.66-1.16l1-3.18a.91.91 0 0 0 .06-.36Zm-3.51-9.58a.84.84 0 0 1 0 .2.64.64 0 0 1-.2.3 1.08 1.08 0 0 1-.29.21L125 406.8a1.26 1.26 0 0 0-.28.2 1.14 1.14 0 0 0-.31.48 1.2 1.2 0 0 0-.07.46 2 2 0 0 0 0 .24 2 2 0 0 0 .11.32 8.39 8.39 0 0 1 .47 1.23 2.16 2.16 0 0 0 1.52 1.48l1.16.19 2-1a.85.85 0 0 0 .52-.74Z"/><path fill="#fff" d="M103.6 426a2.11 2.11 0 0 0-.59.69l-1.44 2.79a2 2 0 0 1-1.06.89v5.92a2 2 0 0 0 1-.89l1.44-2.79a2.17 2.17 0 0 1 .61-.68Zm19.76-.78a.83.83 0 0 1-.6.77l-5.74 2.3a2.56 2.56 0 0 1-1.51.06v5.92a2.74 2.74 0 0 0 1.51-.06l5.75-2.31a.82.82 0 0 0 .59-.76Zm-38.14-2.48-5.51 1.73a2.44 2.44 0 0 1-1.39 0v5.9a2.54 2.54 0 0 0 1.39 0l5.53-1.73Zm48.39-9.35a2.21 2.21 0 0 1-.06.34l-1 3.18a1.77 1.77 0 0 1-1.66 1.17l-6.57-.27a2.74 2.74 0 0 0-1 .21v5.92a2.63 2.63 0 0 1 1-.21l6.56.26a1.75 1.75 0 0 0 1.66-1.16l1-3.18a.91.91 0 0 0 .06-.36Zm-3.51-9.58a.84.84 0 0 1 0 .2.64.64 0 0 1-.2.3 1.08 1.08 0 0 1-.29.21L125 406.8a1.26 1.26 0 0 0-.28.2 1.14 1.14 0 0 0-.31.48 1.2 1.2 0 0 0-.07.46 2 2 0 0 0 0 .24 2 2 0 0 0 .11.32 8.39 8.39 0 0 1 .47 1.23 2.16 2.16 0 0 0 1.52 1.48l1.16.19 2-1a.85.85 0 0 0 .52-.74Z" opacity=".7"/><path fill="#4682b4" d="m123.85 399.61-5.59 1.75a3.92 3.92 0 0 1-2.37-.16 30.39 30.39 0 0 0-3-1.1 1.58 1.58 0 0 1-1.08-1.62l.34-2.73a1.26 1.26 0 0 0-1.12-1.4l-7.19-.75a2 2 0 0 0-1.85 1l-1.43 2.79a2.5 2.5 0 0 1-1.86 1.21c-1.25.1-2.5.25-3.72.46a3.61 3.61 0 0 1-2.32-.46l-3.87-2.6a2.73 2.73 0 0 0-2.25-.23l-5.75 2.3a.82.82 0 0 0-.31 1.41l2.61 2.77a1.11 1.11 0 0 1-.16 1.68 14.39 14.39 0 0 0-1.57 1.41 3.23 3.23 0 0 1-2.13.9l-6.56-.24a1.75 1.75 0 0 0-1.67 1.17l-1 3.18a1.08 1.08 0 0 0 .88 1.43l6.25 1.07a2.14 2.14 0 0 1 1.52 1.47 9 9 0 0 0 .47 1.24 1.24 1.24 0 0 1-.52 1.69l-4.6 2.32a.77.77 0 0 0-.16 1.39L77.5 424a2.63 2.63 0 0 0 2.2.44l5.6-1.76a3.92 3.92 0 0 1 2.37.16 30.39 30.39 0 0 0 3 1.1 1.56 1.56 0 0 1 1.07 1.63l-.33 2.72a1.27 1.27 0 0 0 1.12 1.41l7.19.75a2 2 0 0 0 1.85-1l1.43-2.79a2.52 2.52 0 0 1 1.86-1.21c1.25-.09 2.5-.25 3.72-.46a3.67 3.67 0 0 1 2.32.46l3.87 2.57a2.69 2.69 0 0 0 2.25.23l5.75-2.3a.82.82 0 0 0 .31-1.41l-2.61-2.77a1.11 1.11 0 0 1 .16-1.68 15.44 15.44 0 0 0 1.57-1.4 3.18 3.18 0 0 1 2.13-.91l6.56.27a1.76 1.76 0 0 0 1.66-1.17l1-3.18a1.08 1.08 0 0 0-.88-1.43l-6.25-1.07a2.15 2.15 0 0 1-1.52-1.46 9.08 9.08 0 0 0-.47-1.25 1.24 1.24 0 0 1 .52-1.69l4.62-2.31a.78.78 0 0 0 .16-1.39l-3.67-3.1a2.64 2.64 0 0 0-2.21-.39Zm-10.79 7.9c4.32 3.6 2.78 8.53-3.46 11s-14.78 1.6-19.1-2-2.78-8.53 3.45-11 14.79-1.6 19.11 2Z"/><g fill="#fff" opacity=".55"><path d="m123.85 399.61-5.59 1.75a3.92 3.92 0 0 1-2.37-.16 30.39 30.39 0 0 0-3-1.1 1.58 1.58 0 0 1-1.08-1.62l.34-2.73a1.26 1.26 0 0 0-1.12-1.4l-7.19-.75a2 2 0 0 0-1.85 1l-1.43 2.79a2.5 2.5 0 0 1-1.86 1.21c-1.25.1-2.5.25-3.72.46a3.61 3.61 0 0 1-2.32-.46l-3.87-2.6a2.73 2.73 0 0 0-2.25-.23l-5.75 2.3a.82.82 0 0 0-.31 1.41l2.61 2.77a1.11 1.11 0 0 1-.16 1.68 14.39 14.39 0 0 0-1.57 1.41 3.23 3.23 0 0 1-2.13.9l-6.56-.24a1.75 1.75 0 0 0-1.67 1.17l-1 3.18a1.08 1.08 0 0 0 .88 1.43l6.25 1.07a2.14 2.14 0 0 1 1.52 1.47 9 9 0 0 0 .47 1.24 1.24 1.24 0 0 1-.52 1.69l-4.6 2.32a.77.77 0 0 0-.16 1.39L77.5 424a2.63 2.63 0 0 0 2.2.44l5.6-1.76a3.92 3.92 0 0 1 2.37.16 30.39 30.39 0 0 0 3 1.1 1.56 1.56 0 0 1 1.07 1.63l-.33 2.72a1.27 1.27 0 0 0 1.12 1.41l7.19.75a2 2 0 0 0 1.85-1l1.43-2.79a2.52 2.52 0 0 1 1.86-1.21c1.25-.09 2.5-.25 3.72-.46a3.67 3.67 0 0 1 2.32.46l3.87 2.57a2.69 2.69 0 0 0 2.25.23l5.75-2.3a.82.82 0 0 0 .31-1.41l-2.61-2.77a1.11 1.11 0 0 1 .16-1.68 15.44 15.44 0 0 0 1.57-1.4 3.18 3.18 0 0 1 2.13-.91l6.56.27a1.76 1.76 0 0 0 1.66-1.17l1-3.18a1.08 1.08 0 0 0-.88-1.43l-6.25-1.07a2.15 2.15 0 0 1-1.52-1.46 9.08 9.08 0 0 0-.47-1.25 1.24 1.24 0 0 1 .52-1.69l4.62-2.31a.78.78 0 0 0 .16-1.39l-3.67-3.1a2.64 2.64 0 0 0-2.21-.39Zm-10.79 7.9c4.32 3.6 2.78 8.53-3.46 11s-14.78 1.6-19.1-2-2.78-8.53 3.45-11 14.79-1.6 19.11 2Z"/><path d="M99.87 430.82h-.19l-7.18-.75a1.58 1.58 0 0 1-1.1-.6 1.61 1.61 0 0 1-.34-1.2l.33-2.73a1.22 1.22 0 0 0-.83-1.24 30.08 30.08 0 0 1-3-1.11 3.63 3.63 0 0 0-2.16-.19l-5.59 1.76a3 3 0 0 1-2.54-.51l-3.66-3a1.21 1.21 0 0 1-.49-1.06 1.19 1.19 0 0 1 .71-.92l4.61-2.32a.89.89 0 0 0 .37-1.22 9.21 9.21 0 0 1-.49-1.29 1.75 1.75 0 0 0-1.24-1.21l-6.25-1.07a1.46 1.46 0 0 1-1.16-1.9l1-3.17a2.11 2.11 0 0 1 2-1.42l6.57.26a2.79 2.79 0 0 0 1.85-.79 17.33 17.33 0 0 1 1.61-1.44.83.83 0 0 0 .34-.58.74.74 0 0 0-.22-.57l-2.61-2.78a1.26 1.26 0 0 1-.36-1.12 1.29 1.29 0 0 1 .8-.86l5.75-2.3a3.08 3.08 0 0 1 2.58.26l3.87 2.57a3.3 3.3 0 0 0 2.06.41c1.22-.21 2.48-.37 3.75-.46a2.2 2.2 0 0 0 1.57-1l1.43-2.79a2.37 2.37 0 0 1 2.21-1.2l7.18.75a1.61 1.61 0 0 1 1.44 1.8l-.33 2.73a1.22 1.22 0 0 0 .83 1.24 28.4 28.4 0 0 1 3 1.12 3.63 3.63 0 0 0 2.13.14l5.59-1.75a3 3 0 0 1 2.54.5l3.66 3.05a1.13 1.13 0 0 1-.22 2l-4.62 2.31a.89.89 0 0 0-.36 1.22 8.88 8.88 0 0 1 .49 1.3 1.79 1.79 0 0 0 1.24 1.21l6.25 1.07a1.43 1.43 0 0 1 1 .67 1.48 1.48 0 0 1 .14 1.22l-1 3.18a2.1 2.1 0 0 1-2 1.41l-6.57-.26a2.83 2.83 0 0 0-1.85.8 17.25 17.25 0 0 1-1.61 1.43.85.85 0 0 0-.34.58.77.77 0 0 0 .22.58l2.61 2.77a1.16 1.16 0 0 1-.44 2l-5.75 2.3a3.08 3.08 0 0 1-2.58-.26l-3.87-2.57a3.3 3.3 0 0 0-2.06-.41c-1.21.21-2.48.37-3.75.47a2.14 2.14 0 0 0-1.57 1l-1.43 2.78a2.37 2.37 0 0 1-1.97 1.16Zm-13.68-8.6a4.26 4.26 0 0 1 1.63.3 29.34 29.34 0 0 0 3 1.09 1.94 1.94 0 0 1 1.32 2l-.33 2.73a.9.9 0 0 0 .19.66.87.87 0 0 0 .61.33l7.18.75a1.64 1.64 0 0 0 1.5-.81l1.43-2.79a2.91 2.91 0 0 1 2.15-1.41 36.12 36.12 0 0 0 3.69-.45 4 4 0 0 1 2.58.52l3.86 2.56a2.38 2.38 0 0 0 1.93.2l5.74-2.3a.53.53 0 0 0 .37-.36.55.55 0 0 0-.18-.47l-2.65-2.77a1.45 1.45 0 0 1-.41-1.12 1.53 1.53 0 0 1 .61-1.09 17.23 17.23 0 0 0 1.54-1.37 3.61 3.61 0 0 1 2.39-1l6.57.26a1.4 1.4 0 0 0 1.3-.92l1-3.17a.74.74 0 0 0-.6-1l-6.25-1.07a2.45 2.45 0 0 1-1.8-1.71 8.14 8.14 0 0 0-.46-1.19 1.62 1.62 0 0 1 .69-2.17l4.62-2.31a.54.54 0 0 0 .32-.37.52.52 0 0 0-.23-.43l-3.67-3.05A2.23 2.23 0 0 0 124 400l-5.59 1.75a4.33 4.33 0 0 1-2.63-.17 28.47 28.47 0 0 0-3-1.09 1.93 1.93 0 0 1-1.32-2l.33-2.72a.88.88 0 0 0-.19-.67.92.92 0 0 0-.61-.34l-7.18-.75a1.68 1.68 0 0 0-1.5.81l-1.43 2.79a2.88 2.88 0 0 1-2.15 1.39 36.82 36.82 0 0 0-3.69.46 4.1 4.1 0 0 1-2.58-.52l-3.87-2.57a2.35 2.35 0 0 0-1.92-.2l-5.74 2.3c-.21.09-.34.21-.37.36a.54.54 0 0 0 .18.47l2.61 2.7a1.43 1.43 0 0 1 .41 1.11 1.55 1.55 0 0 1-.61 1.1 15.72 15.72 0 0 0-1.54 1.36 3.49 3.49 0 0 1-2.39 1l-6.57-.27a1.38 1.38 0 0 0-1.3.92l-1 3.18a.73.73 0 0 0 .07.63.76.76 0 0 0 .53.34l6.25 1.07a2.48 2.48 0 0 1 1.8 1.72 8.32 8.32 0 0 0 .46 1.19 1.6 1.6 0 0 1-.69 2.16l-4.62 2.32a.51.51 0 0 0-.32.36.52.52 0 0 0 .23.43l3.67 3.06a2.26 2.26 0 0 0 1.87.36l5.59-1.75a3.37 3.37 0 0 1 1-.07Zm15.62-1.92c-4.44 0-8.82-1.21-11.54-3.48-1.93-1.61-2.83-3.59-2.52-5.57.39-2.47 2.61-4.68 6.07-6.07 6.33-2.53 15.06-1.61 19.47 2.05 1.93 1.62 2.83 3.59 2.52 5.57-.39 2.47-2.61 4.68-6.07 6.07a21.59 21.59 0 0 1-7.93 1.43Zm0-15.85a21.1 21.1 0 0 0-7.68 1.39c-3.23 1.3-5.28 3.31-5.63 5.53a5.35 5.35 0 0 0 2.27 4.9c4.22 3.52 12.63 4.39 18.74 1.94 3.23-1.29 5.28-3.31 5.63-5.52.27-1.72-.53-3.46-2.27-4.91-2.64-2.16-6.87-3.33-11.1-3.33Z"/></g><path fill="#4682b4" d="m206.78 416-7.78-4.52a2.08 2.08 0 0 0-1.71-.08l-7.87 3.65a2.92 2.92 0 0 1-1.8.11 46.14 46.14 0 0 0-6.11-1.46 1.46 1.46 0 0 1-1.14-1.1l-1-5.19a1.23 1.23 0 0 0-1.15-1h-11.39a1.23 1.23 0 0 0-1.15 1l-1 5.19a1.46 1.46 0 0 1-1.14 1.1 46.14 46.14 0 0 0-6.11 1.46 2.92 2.92 0 0 1-1.8-.11l-7.87-3.65a2.08 2.08 0 0 0-1.71.08L138.3 416a.63.63 0 0 0-.36.53v6.73a.66.66 0 0 0 .31.52l3.57 2.57a1.74 1.74 0 0 1-.88.37l-10.34.65a1.05 1.05 0 0 0-1 1v12.49a1 1 0 0 0 1 1l10.34.66a1.7 1.7 0 0 1 .9.38l-3.55 2.55a.66.66 0 0 0-.31.52v6.74a.66.66 0 0 0 .37.52l7.76 4.48a2.07 2.07 0 0 0 1.72.08l7.86-3.64a2.85 2.85 0 0 1 1.8-.11 47.75 47.75 0 0 0 6.11 1.45 1.49 1.49 0 0 1 1.14 1.11l1 5.18a1.21 1.21 0 0 0 1.15.95h11.41a1.21 1.21 0 0 0 1.15-.95l1-5.18a1.49 1.49 0 0 1 1.14-1.11 47.75 47.75 0 0 0 6.11-1.45 2.85 2.85 0 0 1 1.8.11l7.87 3.64a2.07 2.07 0 0 0 1.72-.08l7.76-4.48a.64.64 0 0 0 .36-.51v-6.75a.66.66 0 0 0-.31-.52l-3.57-2.57a1.73 1.73 0 0 1 .88-.36l10.34-.66a1 1 0 0 0 1-1V428.39a1.05 1.05 0 0 0-1-1l-10.34-.65a1.7 1.7 0 0 1-.9-.38l3.55-2.56a.64.64 0 0 0 .31-.51v-6.74a.63.63 0 0 0-.39-.55Zm-52.41 17.4c.56-1.86 2.22-3.68 5-5.32 7.25-4.18 19-4.18 26.23 0 2.66 1.54 4.39 3.22 5.17 4.95-.61 2.12-2.33 4.15-5.16 5.79-7.25 4.18-19 4.18-26.23 0a10.8 10.8 0 0 1-5.01-5.42Z"/><path fill="#fff" d="m206.78 416-7.78-4.52a2.08 2.08 0 0 0-1.71-.08l-7.87 3.65a2.92 2.92 0 0 1-1.8.11 46.14 46.14 0 0 0-6.11-1.46 1.46 1.46 0 0 1-1.14-1.1l-1-5.19a1.23 1.23 0 0 0-1.15-1h-11.39a1.23 1.23 0 0 0-1.15 1l-1 5.19a1.46 1.46 0 0 1-1.14 1.1 46.14 46.14 0 0 0-6.11 1.46 2.92 2.92 0 0 1-1.8-.11l-7.87-3.65a2.08 2.08 0 0 0-1.71.08L138.3 416a.63.63 0 0 0-.36.53v6.73a.66.66 0 0 0 .31.52l3.57 2.57a1.74 1.74 0 0 1-.88.37l-10.34.65a1.05 1.05 0 0 0-1 1v12.49a1 1 0 0 0 1 1l10.34.66a1.7 1.7 0 0 1 .9.38l-3.55 2.55a.66.66 0 0 0-.31.52v6.74a.66.66 0 0 0 .37.52l7.76 4.48a2.07 2.07 0 0 0 1.72.08l7.86-3.64a2.85 2.85 0 0 1 1.8-.11 47.75 47.75 0 0 0 6.11 1.45 1.49 1.49 0 0 1 1.14 1.11l1 5.18a1.21 1.21 0 0 0 1.15.95h11.41a1.21 1.21 0 0 0 1.15-.95l1-5.18a1.49 1.49 0 0 1 1.14-1.11 47.75 47.75 0 0 0 6.11-1.45 2.85 2.85 0 0 1 1.8.11l7.87 3.64a2.07 2.07 0 0 0 1.72-.08l7.76-4.48a.64.64 0 0 0 .36-.51v-6.75a.66.66 0 0 0-.31-.52l-3.57-2.57a1.73 1.73 0 0 1 .88-.36l10.34-.66a1 1 0 0 0 1-1V428.39a1.05 1.05 0 0 0-1-1l-10.34-.65a1.7 1.7 0 0 1-.9-.38l3.55-2.56a.64.64 0 0 0 .31-.51v-6.74a.63.63 0 0 0-.39-.55Zm-52.41 17.4c.56-1.86 2.22-3.68 5-5.32 7.25-4.18 19-4.18 26.23 0 2.66 1.54 4.39 3.22 5.17 4.95-.61 2.12-2.33 4.15-5.16 5.79-7.25 4.18-19 4.18-26.23 0a10.8 10.8 0 0 1-5.01-5.42Z" opacity=".2"/><path d="M142.32 436.75a1.89 1.89 0 0 0-1.4-.93l-10.35-.66a1 1 0 0 1-1-1v-1.36 8.09a1.05 1.05 0 0 0 1 1l10.35.66a1.7 1.7 0 0 1 .91.37l2.58-1.86a.83.83 0 0 0 .12-1.27 15.56 15.56 0 0 1-2.21-3.04Zm-4.4-13.53a.62.62 0 0 0 .3.52l3.57 2.58a1.75 1.75 0 0 0 .52-.57 15.5 15.5 0 0 1 2.2-3.05.81.81 0 0 0-.12-1.26l-6.14-4.44a.73.73 0 0 1-.31-.45ZM185.65 423.68c-7.24-4.18-19-4.19-26.22 0-4.58 2.65-6.27 6.33-5.06 9.73.55-1.85 2.22-3.68 5-5.32 7.25-4.18 19-4.18 26.23 0 2.65 1.53 4.39 3.21 5.18 4.94 1.01-3.3-.72-6.81-5.13-9.35Z" opacity=".1"/><path fill="#4682b4" d="M215.46 434.27a1.05 1.05 0 0 1-1 .89l-10.34.66a1.26 1.26 0 0 0-.52.14v6.74a1.41 1.41 0 0 1 .51-.15l10.34-.66a1 1 0 0 0 1-1Zm-8.32-17.78a.52.52 0 0 1 0 .21.49.49 0 0 1-.13.2.55.55 0 0 1-.14.12l-6.15 4.43a.64.64 0 0 0-.15.13.8.8 0 0 0-.19.38.77.77 0 0 0 0 .26.5.5 0 0 0 0 .13 1.07 1.07 0 0 0 .2.36.81.81 0 0 1 .12.14 15.2 15.2 0 0 1 2.08 2.91 2.11 2.11 0 0 0 .49.55l3.56-2.55a.67.67 0 0 0 .31-.52Zm0 29.57a.69.69 0 0 1-.36.48L199 451a2.07 2.07 0 0 1-1.2.21V458a2 2 0 0 0 1.2-.21l7.76-4.48a.62.62 0 0 0 .36-.51Zm-50.71 1.2a2.55 2.55 0 0 0-.78.18l-7.87 3.65a1.54 1.54 0 0 1-.7.15V458a1.94 1.94 0 0 0 .7-.14l7.87-3.65a2.81 2.81 0 0 1 .77-.18Zm22.78 8.26a1.19 1.19 0 0 1-1 .51h-11.38a1.21 1.21 0 0 1-.7-.26v6.73a1.08 1.08 0 0 0 .69.25h11.41a1.25 1.25 0 0 0 1-.57Z"/><path fill="#fff" d="M215.46 434.27a1.05 1.05 0 0 1-1 .89l-10.34.66a1.26 1.26 0 0 0-.52.14v6.74a1.41 1.41 0 0 1 .51-.15l10.34-.66a1 1 0 0 0 1-1Zm-8.32-17.78a.52.52 0 0 1 0 .21.49.49 0 0 1-.13.2.55.55 0 0 1-.14.12l-6.15 4.43a.64.64 0 0 0-.15.13.8.8 0 0 0-.19.38.77.77 0 0 0 0 .26.5.5 0 0 0 0 .13 1.07 1.07 0 0 0 .2.36.81.81 0 0 1 .12.14 15.2 15.2 0 0 1 2.08 2.91 2.11 2.11 0 0 0 .49.55l3.56-2.55a.67.67 0 0 0 .31-.52Zm0 29.57a.69.69 0 0 1-.36.48L199 451a2.07 2.07 0 0 1-1.2.21V458a2 2 0 0 0 1.2-.21l7.76-4.48a.62.62 0 0 0 .36-.51Zm-50.71 1.2a2.55 2.55 0 0 0-.78.18l-7.87 3.65a1.54 1.54 0 0 1-.7.15V458a1.94 1.94 0 0 0 .7-.14l7.87-3.65a2.81 2.81 0 0 1 .77-.18Zm22.78 8.26a1.19 1.19 0 0 1-1 .51h-11.38a1.21 1.21 0 0 1-.7-.26v6.73a1.08 1.08 0 0 0 .69.25h11.41a1.25 1.25 0 0 0 1-.57Z" opacity=".7"/><path fill="#4682b4" d="m197.3 411.4-7.87 3.65a2.92 2.92 0 0 1-1.8.11 46.14 46.14 0 0 0-6.11-1.46 1.46 1.46 0 0 1-1.14-1.1l-1-5.19a1.23 1.23 0 0 0-1.15-1h-11.4a1.23 1.23 0 0 0-1.15 1l-1 5.19a1.46 1.46 0 0 1-1.14 1.1 46.14 46.14 0 0 0-6.11 1.46 2.92 2.92 0 0 1-1.8-.11l-7.87-3.65a2.08 2.08 0 0 0-1.71.08L138.3 416a.58.58 0 0 0-.05 1.05l6.15 4.43a.81.81 0 0 1 .12 1.26 15.92 15.92 0 0 0-2.2 3.05 1.91 1.91 0 0 1-1.4.93l-10.34.65a1.05 1.05 0 0 0-1 1v5.77a1 1 0 0 0 1 1l10.34.66a1.9 1.9 0 0 1 1.4.93 15.56 15.56 0 0 0 2.2 3 .83.83 0 0 1-.12 1.27l-6.15 4.42a.58.58 0 0 0 .05 1l7.77 4.48a2 2 0 0 0 1.71.08l7.87-3.64a2.85 2.85 0 0 1 1.8-.11 47.75 47.75 0 0 0 6.11 1.45 1.49 1.49 0 0 1 1.14 1.11l1 5.18a1.21 1.21 0 0 0 1.15.95h11.42a1.21 1.21 0 0 0 1.15-.95l1-5.18a1.49 1.49 0 0 1 1.14-1.11 47.75 47.75 0 0 0 6.11-1.45 2.85 2.85 0 0 1 1.8.11l7.87 3.64a2 2 0 0 0 1.66.02l7.77-4.48a.58.58 0 0 0 .05-1l-6.15-4.42a.83.83 0 0 1-.12-1.27 15.56 15.56 0 0 0 2.2-3 1.9 1.9 0 0 1 1.4-.93l10.34-.66a1 1 0 0 0 1-1v-5.77a1.05 1.05 0 0 0-1-1l-10.34-.65a1.93 1.93 0 0 1-1.4-.93 15.92 15.92 0 0 0-2.2-3.05.81.81 0 0 1 .12-1.26l6.15-4.43a.58.58 0 0 0-.05-1.05l-7.77-4.62a2.08 2.08 0 0 0-1.7-.08Zm-11.64 12.28c7.24 4.18 7.24 11 0 15.14s-19 4.18-26.23 0-7.25-11 0-15.14 18.98-4.19 26.23 0Z"/><g fill="#fff" opacity=".55"><path d="m197.3 411.4-7.87 3.65a2.92 2.92 0 0 1-1.8.11 46.14 46.14 0 0 0-6.11-1.46 1.46 1.46 0 0 1-1.14-1.1l-1-5.19a1.23 1.23 0 0 0-1.15-1h-11.4a1.23 1.23 0 0 0-1.15 1l-1 5.19a1.46 1.46 0 0 1-1.14 1.1 46.14 46.14 0 0 0-6.11 1.46 2.92 2.92 0 0 1-1.8-.11l-7.87-3.65a2.08 2.08 0 0 0-1.71.08L138.3 416a.58.58 0 0 0-.05 1.05l6.15 4.43a.81.81 0 0 1 .12 1.26 15.92 15.92 0 0 0-2.2 3.05 1.91 1.91 0 0 1-1.4.93l-10.34.65a1.05 1.05 0 0 0-1 1v5.77a1 1 0 0 0 1 1l10.34.66a1.9 1.9 0 0 1 1.4.93 15.56 15.56 0 0 0 2.2 3 .83.83 0 0 1-.12 1.27l-6.15 4.42a.58.58 0 0 0 .05 1l7.77 4.48a2 2 0 0 0 1.71.08l7.87-3.64a2.85 2.85 0 0 1 1.8-.11 47.75 47.75 0 0 0 6.11 1.45 1.49 1.49 0 0 1 1.14 1.11l1 5.18a1.21 1.21 0 0 0 1.15.95h11.42a1.21 1.21 0 0 0 1.15-.95l1-5.18a1.49 1.49 0 0 1 1.14-1.11 47.75 47.75 0 0 0 6.11-1.45 2.85 2.85 0 0 1 1.8.11l7.87 3.64a2 2 0 0 0 1.66.02l7.77-4.48a.58.58 0 0 0 .05-1l-6.15-4.42a.83.83 0 0 1-.12-1.27 15.56 15.56 0 0 0 2.2-3 1.9 1.9 0 0 1 1.4-.93l10.34-.66a1 1 0 0 0 1-1v-5.77a1.05 1.05 0 0 0-1-1l-10.34-.65a1.93 1.93 0 0 1-1.4-.93 15.92 15.92 0 0 0-2.2-3.05.81.81 0 0 1 .12-1.26l6.15-4.43a.58.58 0 0 0-.05-1.05l-7.77-4.62a2.08 2.08 0 0 0-1.7-.08Zm-11.64 12.28c7.24 4.18 7.24 11 0 15.14s-19 4.18-26.23 0-7.25-11 0-15.14 18.98-4.19 26.23 0Z"/><path d="M178.25 456.31h-11.42a1.49 1.49 0 0 1-1.42-1.18l-1-5.18a1.23 1.23 0 0 0-.91-.89 46.06 46.06 0 0 1-6.15-1.46 2.57 2.57 0 0 0-1.6.1l-7.87 3.64a2.34 2.34 0 0 1-2-.09l-7.76-4.48a.88.88 0 0 1-.5-.73.91.91 0 0 1 .42-.78l6.15-4.43a.52.52 0 0 0 .24-.39.57.57 0 0 0-.17-.46 15.61 15.61 0 0 1-2.23-3.1 1.63 1.63 0 0 0-1.18-.79l-10.34-.65a1.33 1.33 0 0 1-1.23-1.31v-5.77a1.32 1.32 0 0 1 1.22-1.3l10.35-.66a1.64 1.64 0 0 0 1.17-.78 15.33 15.33 0 0 1 2.23-3.1.59.59 0 0 0 .17-.47.55.55 0 0 0-.24-.39l-6.15-4.42a.86.86 0 0 1 .08-1.52l7.76-4.48a2.38 2.38 0 0 1 2-.09l7.87 3.65a2.65 2.65 0 0 0 1.6.09 47.65 47.65 0 0 1 6.15-1.46 1.22 1.22 0 0 0 .91-.88l1-5.19a1.48 1.48 0 0 1 1.42-1.17h11.42a1.48 1.48 0 0 1 1.42 1.17l1 5.19a1.21 1.21 0 0 0 .92.88 49.63 49.63 0 0 1 6.14 1.46 2.64 2.64 0 0 0 1.6-.09l7.87-3.65a2.38 2.38 0 0 1 2 .09l7.77 4.48a1 1 0 0 1 .5.74.93.93 0 0 1-.43.78l-6.15 4.42a.55.55 0 0 0-.07.86 15.61 15.61 0 0 1 2.23 3.1 1.62 1.62 0 0 0 1.18.78l10.34.66a1.33 1.33 0 0 1 1.23 1.3v5.77a1.33 1.33 0 0 1-1.23 1.31l-10.34.65a1.68 1.68 0 0 0-1.18.79 15.61 15.61 0 0 1-2.23 3.1.54.54 0 0 0 .07.85l6.15 4.43a.85.85 0 0 1-.07 1.51l-7.77 4.48a2.31 2.31 0 0 1-2 .09l-7.87-3.64a2.57 2.57 0 0 0-1.6-.1 46.06 46.06 0 0 1-6.15 1.46 1.23 1.23 0 0 0-.91.89l-1 5.18a1.49 1.49 0 0 1-1.41 1.18ZM156.74 447a2.92 2.92 0 0 1 .8.1 46.42 46.42 0 0 0 6.07 1.45 1.77 1.77 0 0 1 1.36 1.32l1 5.19a.94.94 0 0 0 .87.73h11.42a1 1 0 0 0 .88-.73l1-5.19a1.77 1.77 0 0 1 1.36-1.32 48.51 48.51 0 0 0 6.07-1.44 3.17 3.17 0 0 1 2 .11l7.87 3.65a1.8 1.8 0 0 0 1.47-.07l7.76-4.48c.14-.08.22-.18.22-.28a.36.36 0 0 0-.19-.3l-6.15-4.43a1.08 1.08 0 0 1-.47-.78 1.15 1.15 0 0 1 .31-.89 15 15 0 0 0 2.16-3 2.18 2.18 0 0 1 1.62-1.07l10.35-.65a.77.77 0 0 0 .7-.76v-5.77a.75.75 0 0 0-.7-.75l-10.38-.64a2.18 2.18 0 0 1-1.62-1.07 15.26 15.26 0 0 0-2.16-3 1.17 1.17 0 0 1-.31-.89 1.08 1.08 0 0 1 .47-.78l6.15-4.43a.37.37 0 0 0 .19-.31c0-.1-.08-.2-.22-.28l-7.76-4.48a1.88 1.88 0 0 0-1.47-.07l-7.87 3.65a3.15 3.15 0 0 1-2 .12 46.58 46.58 0 0 0-6.08-1.44 1.76 1.76 0 0 1-1.36-1.33l-1-5.18a1 1 0 0 0-.88-.73h-11.39a.93.93 0 0 0-.87.73l-1 5.18a1.76 1.76 0 0 1-1.36 1.33 46.42 46.42 0 0 0-6.07 1.44 3.18 3.18 0 0 1-2-.12l-7.87-3.65a1.85 1.85 0 0 0-1.46.07l-7.77 4.48c-.14.08-.22.18-.22.28a.37.37 0 0 0 .19.31l6.16 4.43a1.1 1.1 0 0 1 .15 1.67 15.68 15.68 0 0 0-2.16 3 2.18 2.18 0 0 1-1.62 1.07l-10.34.66a.76.76 0 0 0-.71.75v5.77a.78.78 0 0 0 .71.76l10.34.65a2.18 2.18 0 0 1 1.62 1.07 15.74 15.74 0 0 0 2.16 3 1.09 1.09 0 0 1-.16 1.67l-6.15 4.43a.36.36 0 0 0-.19.3c0 .1.08.2.22.28l7.77 4.48a1.77 1.77 0 0 0 1.46.07l7.87-3.64a3 3 0 0 1 1.21-.25Zm15.8-4.75a27.07 27.07 0 0 1-13.25-3.16c-3.59-2.07-5.57-4.85-5.57-7.81s2-5.74 5.57-7.81c7.31-4.22 19.2-4.22 26.5 0 3.6 2.07 5.57 4.84 5.57 7.81s-2 5.73-5.57 7.81a27.07 27.07 0 0 1-13.25 3.13Zm0-21.4a26.51 26.51 0 0 0-13 3.1c-3.41 2-5.29 4.57-5.29 7.33s1.88 5.36 5.29 7.33c7.16 4.13 18.8 4.13 26 0 3.41-2 5.29-4.58 5.29-7.33s-1.88-5.36-5.29-7.33a26.51 26.51 0 0 0-13-3.13Z"/></g><path fill="#263238" d="m319.14 369.07-9.39-54.16-5.94-.3 12.34 54.46a.84.84 0 0 0 .4.53 2.36 2.36 0 0 0 2.12.1.7.7 0 0 0 .46-.63Z"/><path fill="#37474f" d="M230.8 306h-5.94l-14 56.26a.72.72 0 0 0 .43.66 2.39 2.39 0 0 0 2.12 0 .84.84 0 0 0 .43-.52ZM271.94 394.89l-.26-60.67-5.94-.3 3.21 61a.84.84 0 0 0 .4.53 2.34 2.34 0 0 0 2.11.11.73.73 0 0 0 .47-.63Z"/><path fill="#263238" d="M263.27 287.13h-5.95l-9.52 59.78a.75.75 0 0 0 .44.66 2.39 2.39 0 0 0 2.12 0 .86.86 0 0 0 .42-.51Z"/><path fill="#4682b4" d="M213.68 240.31a33.82 33.82 0 0 0-2.38 10.44c-.67 8 2 33.93 3.66 45.52 2.35 19.37 5.24 19.41 9.44 22.65 7.21 5.58 28 16.51 34.83 19.21 12.43 4.89 22.59-2.65 30.16-6.39a175.61 175.61 0 0 0 20.06-11.89c1.89-1.37 2.88-2.77 2.86-4.23v-3.58c0-1.87-1.65-3.87-5.12-6.13-6.42-4.16-29.62-17.69-38.61-22.67a.09.09 0 0 0-.07-.07c-6.92-4.2-11.08-32.74-15.87-47.92-.1-.33-.2-.64-.31-1s-.17-.47-.25-.7c-.3-.83-.61-1.58-.94-2.28"/><path fill="#4682b4" d="M312.31 312c0-1.87-1.65-3.87-5.12-6.13-6.42-4.16-29.62-17.69-38.61-22.67a.09.09 0 0 0-.07-.07c-6.92-4.2-11.08-32.74-15.87-47.92a26.71 26.71 0 0 0-1-2.8l-.09-.2-.27-.62c-.05-.1-.09-.21-.14-.31a14.54 14.54 0 0 0-3.19-4.61 7.26 7.26 0 0 0-1.57-1.1l-2.83-1.57c-4.7-2.81-10.86.56-18.54 4.77-4.77 2.62-8.85 5.73-11.33 11.53a33.82 33.82 0 0 0-2.38 10.44c-.67 8 2 33.93 3.66 45.52 2.35 19.37 5.24 19.41 9.44 22.65 7.21 5.58 28 16.51 34.83 19.21 12.43 4.89 22.59-2.65 30.16-6.39a175.61 175.61 0 0 0 20.06-11.89c1.89-1.37 2.88-2.77 2.86-4.23-.01-.61 0-2.96 0-3.61Z"/><path d="M312.31 312c0-1.87-1.65-3.87-5.12-6.13-6.42-4.16-29.62-17.69-38.61-22.67a.09.09 0 0 0-.07-.07c-6.92-4.2-11.08-32.74-15.87-47.92a26.71 26.71 0 0 0-1-2.8l-.09-.2-.27-.62c-.05-.1-.09-.21-.14-.31a14.54 14.54 0 0 0-3.19-4.61 7.26 7.26 0 0 0-1.57-1.1l-2.83-1.57c-4.7-2.81-10.86.56-18.54 4.77-4.77 2.62-8.85 5.73-11.33 11.53a33.82 33.82 0 0 0-2.38 10.44c-.67 8 2 33.93 3.66 45.52 2.35 19.37 5.24 19.41 9.44 22.65 7.21 5.58 28 16.51 34.83 19.21 12.43 4.89 22.59-2.65 30.16-6.39a175.61 175.61 0 0 0 20.06-11.89c1.89-1.37 2.88-2.77 2.86-4.23-.01-.61 0-2.96 0-3.61Z" opacity=".15"/><path fill="#4682b4" d="M289.39 328.13a176.2 176.2 0 0 0 20.06-11.89c4.31-3.13 3.91-6.33-2.26-10.33-8.58-5.57-43.54-25.41-43.54-25.41s-44.2 26.09-42.3 30.9 29.26 19.72 37.88 23.11c12.43 4.89 22.59-2.65 30.16-6.38Z"/><path fill="#fff" d="M289.39 328.13a176.2 176.2 0 0 0 20.06-11.89c4.31-3.13 3.91-6.33-2.26-10.33-8.58-5.57-43.54-25.41-43.54-25.41s-44.2 26.09-42.3 30.9 29.26 19.72 37.88 23.11c12.43 4.89 22.59-2.65 30.16-6.38Z" opacity=".3"/><path fill="#4682b4" d="M246.37 225.6c-4.65-2.45-10.7.87-18.18 5-4.79 2.63-8.87 5.74-11.35 11.56l-3.16-1.82c2.48-5.8 6.56-8.91 11.33-11.53 7.68-4.21 13.84-7.58 18.54-4.77Z"/><path fill="#fff" d="M246.37 225.6c-4.65-2.45-10.7.87-18.18 5-4.79 2.63-8.87 5.74-11.35 11.56l-3.16-1.82c2.48-5.8 6.56-8.91 11.33-11.53 7.68-4.21 13.84-7.58 18.54-4.77Z" opacity=".3"/><path fill="#4682b4" d="M252.64 235.24c-.1-.33-1.7-5.9-4.7-8.54a7.55 7.55 0 0 0-5.09-1.94c-4.06 0-8.94 2.68-14.66 5.81-.48.27-.95.53-1.41.81l-.53.32c-.22.12-.43.26-.64.39l-.46.31a26.55 26.55 0 0 0-2.88 2.18l-.43.4a17.53 17.53 0 0 0-1.63 1.7c-.1.1-.19.21-.28.32l-.32.4-.32.42q-.15.19-.3.42a21 21 0 0 0-1.15 1.83l-.13.24-.27.52c-.13.26-.25.51-.37.77a33 33 0 0 0-2.59 11c-1.11 13.15 3.4 56.61 7.92 60.36 0 0-.7-4.25 8.4-10 6.18-3.89 10.52-7.16 17.12-10.39 16.08-7.9 20.59-9.38 20.59-9.38-6.92-4.19-11.08-32.77-15.87-47.95Z"/><path fill="#fff" d="M252.64 235.24c-.1-.33-1.7-5.9-4.7-8.54a7.55 7.55 0 0 0-5.09-1.94c-4.06 0-8.94 2.68-14.66 5.81-.48.27-.95.53-1.41.81l-.53.32c-.22.12-.43.26-.64.39l-.46.31a26.55 26.55 0 0 0-2.88 2.18l-.43.4a17.53 17.53 0 0 0-1.63 1.7c-.1.1-.19.21-.28.32l-.32.4-.32.42q-.15.19-.3.42a21 21 0 0 0-1.15 1.83l-.13.24-.27.52c-.13.26-.25.51-.37.77a33 33 0 0 0-2.59 11c-1.11 13.15 3.4 56.61 7.92 60.36 0 0-.7-4.25 8.4-10 6.18-3.89 10.52-7.16 17.12-10.39 16.08-7.9 20.59-9.38 20.59-9.38-6.92-4.19-11.08-32.77-15.87-47.95Z" opacity=".1"/><path fill="#ffa8a7" d="m277.4 330.6 8.43-11 13.17 9.65c-8.75 5.93-18.36 13.33-20.73 16.19 0 0-7.45-3.17-7.94-7.35s4.73-6.57 7.07-7.49Z"/><path fill="#263238" d="M267.76 333.74a6.46 6.46 0 0 0-2.07 1.56c-.64.65-1.15 4.27-1.94 5.85s-1.24 2-2.43 3.9c-1.32 2.16-3.35 4-2.61 10.27s3.17 9.7 5.39 11.62a6.66 6.66 0 0 0 2.88 1.29s3.5-.62 3.36-2.65-2.58-31.84-2.58-31.84Z"/><path fill="#4682b4" d="M280.9 343c-.2.59-1.24 1.38-1.68 1.81a16.61 16.61 0 0 0-3.23 5.57c-3.69 9.07-.83 14.56-6.57 17.15-1.64.65-4.64-.17-8.17-7-1.81-3.48-2-10-.54-12.63s3.05-4.26 4.06-6.32 1.44-6.18 3-7.82a9 9 0 0 1 3.42-2c1-.38 3.1-.73 4.12-1.08s1.63-.85 2.1-.07l-1.31 1.11c-2.08 2-1.68 2.4-1.87 3.63a18.85 18.85 0 0 1-1.34 3.77c1.46-1.27 2.18-2.48 3.42-2s1.41.44 2.93 2.51 1.84 2.8 1.66 3.37Z"/><path d="M280.9 343c-.2.59-1.24 1.38-1.68 1.81a16.61 16.61 0 0 0-3.23 5.57c-3.69 9.07-.83 14.56-6.57 17.15-1.64.65-4.64-.17-8.17-7-1.81-3.48-2-10-.54-12.63s3.05-4.26 4.06-6.32 1.44-6.18 3-7.82a9 9 0 0 1 3.42-2c1-.38 3.1-.73 4.12-1.08s1.63-.85 2.1-.07l-1.31 1.11c-2.08 2-1.68 2.4-1.87 3.63a18.85 18.85 0 0 1-1.34 3.77c1.46-1.27 2.18-2.48 3.42-2s1.41.44 2.93 2.51 1.84 2.8 1.66 3.37Z" opacity=".4"/><path d="M261.25 360.51c-1.81-3.48-2-10-.54-12.63a24.72 24.72 0 0 1 1.6-2.53c-.08.18-.17.36-.23.52-.13.36-.24.72-.35 1.08a8.55 8.55 0 0 0-.32 4.37c.31 1.27 1 4.45 2.57 4.81a2.43 2.43 0 0 0 2.35-1.47c.22-.4.68-1.5.68-1.5a14.32 14.32 0 0 1 3.81 2.45c2 1.95 1.87 2.28 1.87 2.28a6 6 0 0 0-.45 2 5 5 0 0 0 .48 2.17 2.87 2.87 0 0 0 .5.58 6.23 6.23 0 0 1-3.8 4.85c-1.64.65-4.64-.17-8.17-6.98Z" opacity=".3"/><path fill="#37474f" d="M276 350.34a32.14 32.14 0 0 0-2 7.43c-1.32 2.25-2.07 2-1.94.77s2.77-6.16 4.81-10.22c-.32.68-.61 1.36-.87 2.02ZM273.07 334.14a5.33 5.33 0 0 1 1.57-3.28l.66-.19c1.1-.38 1.63-.85 2.1-.07l-1.31 1.11c-2.08 2-1.68 2.4-1.87 3.63a18.85 18.85 0 0 1-1.34 3.77c-1.72 3.91-2.85 5.12-4 8.9s-.88 6.53-1.47 6.65-1.61-.53-1.23-3.67 2.72-8.09 4.14-10.38 2.68-4.78 2.75-6.47Z"/><path fill="#ebebeb" d="M266.68 353.38a.37.37 0 0 0 .18.14 9.44 9.44 0 0 1 5.51 4.78.39.39 0 0 0 .68-.39 10.15 10.15 0 0 0-5.9-5.11.39.39 0 0 0-.51.21.4.4 0 0 0 .04.37ZM267.77 350.24a.35.35 0 0 0 .17.15 10.53 10.53 0 0 1 5.78 5.17.39.39 0 0 0 .55.14.4.4 0 0 0 .15-.55 11.34 11.34 0 0 0-6.15-5.5.4.4 0 0 0-.5.59ZM268.36 346.68a.46.46 0 0 0 .2.16 12 12 0 0 1 6.45 5.8.45.45 0 0 0 .77-.45 12.9 12.9 0 0 0-6.87-6.17.45.45 0 0 0-.58.23.44.44 0 0 0 .03.43ZM269.44 343.74a.49.49 0 0 0 .19.16 11.6 11.6 0 0 1 6.31 5.66.45.45 0 0 0 .6.16.43.43 0 0 0 .16-.59 12.5 12.5 0 0 0-6.72-6 .43.43 0 0 0-.57.22.42.42 0 0 0 .03.39ZM271.11 341a.43.43 0 0 0 .19.16 11.69 11.69 0 0 1 6.31 5.67.42.42 0 0 0 .59.15.43.43 0 0 0 .16-.59 12.53 12.53 0 0 0-6.72-6 .43.43 0 0 0-.57.22.44.44 0 0 0 .04.39Z"/><path fill="#455a64" d="M270.38 280.92s33.87 7.48 46.16 10.82c12.54 3.4 11.22 13.14 6.55 18.08-8.94 9.48-34.36 26.94-34.36 26.94s-7.2-4.43-7.75-11.08l7-9.87-25.24-3.08-3.59-4.36Z"/><path fill="#37474f" d="M294.07 326.59c-1.79-4.16-3.38-5.44-7.79-8.41l-5.3 7.5c.55 6.65 7.75 11.08 7.75 11.08s2.93-2 7.15-5a49.44 49.44 0 0 0-1.81-5.17ZM292.37 305.91c-2.2 1.93-4.12 3.68-5.82 5.39s-5.58 1.73-9.06 0c-4.32-2.14-8.9-5.79-11.57-7.89 3.93-4.39 2.36-10.82 2.36-10.82-.39 4.17-2.27 7.65-4.29 9.3l-2.13 1.5-.77 6.62 1.19 2.61 25.72 3.19c7.05-9.16 9.48-13.37 15.38-14.07-.05 0-4.51-1.54-11.01 4.17Z"/><path fill="#ffa8a7" d="m288.05 378.7-.36-1.21-8.22-21.3 15.5-5.8c2 10.95 4.5 25.4 6.85 29.2 0 0-4.2 6.51-8.34 5.75s-5.23-4.14-5.43-6.64Z"/><path fill="#263238" d="M288.58 386.48a6.42 6.42 0 0 0 .89 2.43c.43.8 3.75 2.36 5 3.57s1.51 1.76 3 3.46c1.68 1.89 2.82 4.36 9.06 5.5s10.2-.2 12.69-1.77a6.57 6.57 0 0 0 2.07-2.37s.43-3.53-1.55-4-31.16-6.82-31.16-6.82Z"/><path fill="#4682b4" d="M301.24 376.6a7.32 7.32 0 0 1 1.24 2.14 16.68 16.68 0 0 0 4.38 4.72c7.6 6.17 13.69 5.05 14.49 11.29.14 1.76-1.52 4.39-9.06 5.78-3.86.71-10.12-1-12.24-3.17s-3.18-4.17-4.86-5.73-5.49-3.19-6.61-5.15a9 9 0 0 1-.9-3.85c-.07-1.07-.1-4.69-.1-4.69 1.29 2.57 3.3 2.29 4.42 2.83a18.78 18.78 0 0 1 3.21 2.38c-.78-1.76-1.73-2.81-.92-3.86s.83-1.22 3.25-2.07 3.24-.95 3.7-.62Z"/><path d="M301.24 376.6a7.32 7.32 0 0 1 1.24 2.14 16.68 16.68 0 0 0 4.38 4.72c7.6 6.17 13.69 5.05 14.49 11.29.14 1.76-1.52 4.39-9.06 5.78-3.86.71-10.12-1-12.24-3.17s-3.18-4.17-4.86-5.73-5.49-3.19-6.61-5.15a9 9 0 0 1-.9-3.85c-.07-1.07-.1-4.69-.1-4.69 1.29 2.57 3.3 2.29 4.42 2.83a18.78 18.78 0 0 1 3.21 2.38c-.78-1.76-1.73-2.81-.92-3.86s.83-1.22 3.25-2.07 3.24-.95 3.7-.62Z" opacity=".4"/><path d="M312.29 400.53c-3.86.71-10.12-1-12.24-3.17a28.34 28.34 0 0 1-2-2.27c.15.12.3.27.44.37.3.22.61.44.92.64a8.63 8.63 0 0 0 4.09 1.59c1.31.07 4.55.35 5.35-1.05a2.42 2.42 0 0 0-.72-2.68c-.32-.33-1.23-1.09-1.23-1.09a14.09 14.09 0 0 1 3.45-2.92c2.46-1.36 2.72-1.13 2.72-1.13a6.48 6.48 0 0 0 1.79 1 5 5 0 0 0 2.22.17 2.61 2.61 0 0 0 .7-.31 6.25 6.25 0 0 1 3.53 5.05c.18 1.78-1.48 4.41-9.02 5.8Z" opacity=".3"/><path fill="#37474f" d="M306.86 383.46a32.39 32.39 0 0 0 6.52 4.07c1.77 1.92 1.35 2.57.17 2.08s-5.07-4.44-8.36-7.58c.55.5 1.12.97 1.67 1.43ZM290.52 381.52a7.13 7.13 0 0 1-2.88-1.45c-.54-.49-.17-1.94.05-2.58l.41 1.29a13.17 13.17 0 0 0 3.9 2 18.78 18.78 0 0 1 3.21 2.38c3.25 2.79 4.07 4.22 7.34 6.45s6 2.75 5.93 3.35-1 1.38-3.87.11-6.94-5-8.72-7-3.79-3.95-5.37-4.55Z"/><path fill="#ebebeb" d="M307.05 393.25a.41.41 0 0 0 .19-.13 9.42 9.42 0 0 1 6.17-3.87.39.39 0 0 0-.17-.77 10.2 10.2 0 0 0-6.61 4.15.4.4 0 0 0 .06.55.39.39 0 0 0 .36.07ZM304.37 391.29a.39.39 0 0 0 .19-.12 10.57 10.57 0 0 1 6.63-4 .38.38 0 0 0 .3-.48.4.4 0 0 0-.48-.3 11.31 11.31 0 0 0-7.06 4.27.4.4 0 0 0 0 .57.41.41 0 0 0 .42.06ZM301.13 389.68a.46.46 0 0 0 .21-.13 12 12 0 0 1 7.43-4.48.45.45 0 0 0 .34-.53.46.46 0 0 0-.54-.34 12.82 12.82 0 0 0-7.9 4.77.43.43 0 0 0 .05.62.42.42 0 0 0 .41.09ZM298.64 387.79a.39.39 0 0 0 .2-.13 11.61 11.61 0 0 1 7.27-4.38.45.45 0 0 0 .32-.53.43.43 0 0 0-.52-.32 12.54 12.54 0 0 0-7.73 4.66.44.44 0 0 0 .46.7ZM296.5 385.4a.46.46 0 0 0 .2-.14 11.65 11.65 0 0 1 7.26-4.38.44.44 0 1 0-.19-.85 12.55 12.55 0 0 0-7.77 4.67.42.42 0 0 0 0 .61.44.44 0 0 0 .5.09Z"/><path fill="#455a64" d="M299.62 369.85c-4.07 4.23-13.86 3.92-13.86 3.92s-2.82-5.38-7.9-17.15c-2.84-6.57-4.43-9.56-5.63-18.73-8.62-4.23-24-10.29-38.48-21.16-10.41-7.73-12.05-18.34-10.75-30.86 1.62-15.38 46.79-2.81 46.79-2.81-3 8.34-2.31 16.55-7.95 20.33 0 0 18.19 13.05 24.32 17.71 2.82 2.14 4.15 2.84 5.51 9.32 3.99 19 7.95 39.43 7.95 39.43Z"/><path fill="#37474f" d="m287.91 373.73.81-.06c-3.13-5.87-7.85-18.48-9.61-23.91-.57-1.77-1.75-6.76-2.1-8.12-1.66-6.53-1.9-8.9-3.69-9.51-.45-.15-1.44-.74-3-1.5-7.87-3.91-26.92-13.58-33.5-19.76l-.56-.57c3.32-1.91 4.35-7 3.15-10.57-1.29-3.85-1.2-10.81.83-13.67l-.59-.42c-2.37 3.34-2.13 10.71-.93 14.32 1.13 3.37.08 8.19-3 9.81-6.13-6.55-7.72-15.57-4.55-26.21l-.69-.21c-3.43 11.53-1.41 21.23 5.84 28 6.65 6.26 25.77 16 33.67 19.88 1.48.74 2.56 1.27 3 1.49 1.7.93 2.32 5.42 3.31 9.18.36 1.37 1.54 6.31 2.15 8.09 1.89 5.55 6.55 18.01 9.46 23.74Z"/><path fill="#455a64" d="m307.33 354.59-2.73-1.58-7.1 89.4 2.73 1.58 7.1-89.4z"/><path fill="#37474f" d="m307.33 354.59 4.1-2.36-8.46 90.18-2.74 1.58 7.1-89.4z"/><path fill="#455a64" d="m385.31 309.59-2.74-1.58 8.46 80.42 2.73 1.57-8.45-80.41z"/><path fill="#37474f" d="m385.31 309.59 4.09-2.36 7.1 81.2-2.74 1.57-8.45-80.41z"/><path fill="#455a64" d="m247.06 319.78-2.74-1.58-7.1 89.4 2.74 1.58 7.1-89.4z"/><path fill="#37474f" d="m247.06 319.79 4.09-2.37-8.46 90.18-2.73 1.58 7.1-89.39z"/><path fill="#455a64" d="m325.03 274.79-2.73-1.58 8.45 80.41 2.74 1.58-8.46-80.41z"/><path fill="#37474f" d="m325.03 274.79 4.1-2.37 7.09 81.2-2.73 1.58-8.46-80.41z"/><path fill="#4682b4" d="M209.34 325.41v-3.24a1.83 1.83 0 0 1 .83-1.44l127.27-73.5a1.82 1.82 0 0 1 1.67 0L420 294a1.84 1.84 0 0 1 .83 1.44v3.24a1.83 1.83 0 0 1-.83 1.44l-127.3 73.51a1.82 1.82 0 0 1-1.67 0l-80.86-46.78a1.84 1.84 0 0 1-.83-1.44Z"/><path fill="#fff" d="M209.34 325.41v-3.24a1.83 1.83 0 0 1 .83-1.44l127.27-73.5a1.82 1.82 0 0 1 1.67 0L420 294a1.84 1.84 0 0 1 .83 1.44v3.24a1.83 1.83 0 0 1-.83 1.44l-127.3 73.51a1.82 1.82 0 0 1-1.67 0l-80.86-46.78a1.84 1.84 0 0 1-.83-1.44Z" opacity=".2"/><path fill="#4682b4" d="M291.87 368.67v5.16a1.76 1.76 0 0 1-.84-.19l-80.86-46.79a1.84 1.84 0 0 1-.83-1.44v-3.24a1.83 1.83 0 0 1 .68-1.33c-.3.25-.25.61.15.85L291 368.48a1.76 1.76 0 0 0 .87.19Z"/><path fill="#4682b4" d="M210.17 321.69 291 368.47a1.82 1.82 0 0 0 1.67 0L420 295c.46-.26.46-.69 0-1l-80.86-46.78a1.82 1.82 0 0 0-1.67 0l-127.27 73.5c-.49.28-.49.7-.03.97Z"/><path fill="#fff" d="M210.17 321.69 291 368.47a1.82 1.82 0 0 0 1.67 0L420 295c.46-.26.46-.69 0-1l-80.86-46.78a1.82 1.82 0 0 0-1.67 0l-127.27 73.5c-.49.28-.49.7-.03.97Z" opacity=".5"/><path d="m358.28 290.83-32.86-19a1.88 1.88 0 0 0-1.89 0l-57 32.91a.42.42 0 0 0 0 .73l33.17 19.15Z" opacity=".2"/><path fill="#37474f" d="M353.62 288.06v.7a2.93 2.93 0 0 1-1.45 2.53l-50.92 29.39a2.9 2.9 0 0 1-1.45.39 2.93 2.93 0 0 1-1.46-.39l-27.76-16a2.94 2.94 0 0 1-1.45-2.52v-1a.38.38 0 0 0 .18.32l30.48 17.6Z"/><path fill="#455a64" d="m353.63 288.05-30.19-17.42a1.74 1.74 0 0 0-1.74 0l-52.38 30.24a.39.39 0 0 0 0 .67l30.48 17.59Z"/><path fill="#37474f" d="m299.52 316.57-16.28-9.39 47.61-27.49 16.37 9.34-47.7 27.54z"/><path fill="#263238" d="m347.22 289.03-.62.36-15.75-8.99-46.99 27.14-.62-.36 47.61-27.49 16.37 9.34zM291.52 290.44l.3.18 7.98 4.61 14.19-8.2.3-.17-8.28-4.78-14.49 8.36z"/><path fill="#37474f" d="m291.82 290.62 7.98 4.61 14.19-8.2-7.98-4.61-14.19 8.2z"/><path fill="#263238" d="M299.8 319.13v1.94a2.9 2.9 0 0 0 1.45-.39l50.92-29.39a2.93 2.93 0 0 0 1.46-2.53v-.71Z"/><path fill="#ffa8a7" d="M299.8 264.37c-5-1.94-17.62-7.49-17.62-7.49s-11.36-19-13.85-23c-3-4.79-7.2-8.36-14.1-7.82l1.21 20s12.25 17.58 14.44 20.47c1.67 2.2 1.57 2.82 6 3.74l20.85 4.36.84.25a2.77 2.77 0 0 1 1.45 1 8 8 0 0 1 .92 1.53c.87 1.87.81 2.49 1.7 4.51s1.32 1.83 2.73 3.37 1.87 2.4 2.51 2.25 1-1.77.5-3.15-1.82-2.61-2-3.19-.16-1.4 1.41-1.06 5 3.37 6.5 4.67 2.76 3.27 4.14 4.11 1.31-.59 1.4-1.82 1.35-3.1 1.35-5.05-2.18-6.65-4.16-8.23-5.78-4.31-6.79-4.89a57.23 57.23 0 0 0-9.43-4.56Z"/><path fill="#4682b4" d="M253.71 225.81c3-.27 6.68-.14 9.78 2.28s4.64 4.52 9.22 12.26 6.87 11.72 6.87 11.72a14.58 14.58 0 0 1-5.48 6.61 28.11 28.11 0 0 1-7.91 3.1L254.6 246Z"/><path fill="#263238" d="M266.43 244.32c-1.21-13.5-5.83-18-12.72-18.51a136 136 0 0 0-15 1.47 59.35 59.35 0 0 0-16.52 6.4c-3.41 2.13-4.5 6.7-4.57 16.26a214.62 214.62 0 0 0 1.79 27.56 143.26 143.26 0 0 0 4.71 23.76c9.51 3.18 47.19-8.35 46.9-20.42-1-2.76-2.68-5.95-3.45-11.55-1.03-9.82-.75-20.73-1.14-24.97ZM234.14 222.36c-.39-3.81-3.88-8-5.35-11.39s-2.23-5.8-1.85-8.77c.23-1.75 1.5-4.07 2.84-4.49-1.08-6.66 3.95-9 6.22-9.59 1-.28 3.17-.67 4.16-1 1.46-.5 1.85-1.62 3.06-2.52 2.09-1.54 5.41-1.36 6.51 1.26 1.42-1.61 3.2-1.45 5.23-.79a3.52 3.52 0 0 1 2.43 4.14 3.7 3.7 0 0 1 5.39 2.39c.11 1.2-.21 2.19.5 3.32s2.46 1.35 3 .41c.17 1.71-.57 3-2.41 2.74a3.85 3.85 0 0 1 .27 3.27 3.51 3.51 0 0 1-3.34 2.21 6 6 0 0 1-1 2.53 6.14 6.14 0 0 1-2.3 1.81c-2.87 1.14-6 1.37-9 1.8l-3.61.5c-.21 0-1.29 0-1.43.2Z"/><path fill="#ffa8a7" d="M229.9 217.18a3.65 3.65 0 0 0 4.45.17l-1 12.42c1.72 5.45 10.75 6.95 14.16 5.66s3.11-3.27 1.16-6.4l.37-2a37 37 0 0 0 4.49.09c3-.21 5.37-2.46 6.42-5.6a33.44 33.44 0 0 0 1.2-12.66 10.87 10.87 0 0 1 .05-3.12 14.81 14.81 0 0 0-.48-6.72c-3.08-2.83-10.55-4.22-17.84-.42.53 4.23-1.31 7.43-4.45 8.82.07 1.13 0 4-1.83 3.82-1.33-.13-1.31-1.81-2.58-3.38s-4.45-2.17-5.83-.08a7.23 7.23 0 0 0 1.71 9.4Z"/><path fill="#263238" d="m242.51 205.48-9 1.85a3.6 3.6 0 0 1 1.19 1.51l7.86-1.28Z"/><path fill="#37474f" d="M263.3 204.38h-.59a17.07 17.07 0 0 0-5.89.51c-1.93.69-2.65 1.38-3.7 1.45s-1.75-.58-3.7-1.07a19.1 19.1 0 0 0-6.27.14l-.64.11a1.27 1.27 0 0 0-.84 1.12 2.06 2.06 0 0 0 .44 1.24 1.23 1.23 0 0 1 .15.5 21.68 21.68 0 0 0 .33 3.53 3.75 3.75 0 0 0 .67 1.25 2.1 2.1 0 0 0 .37.36l.22.16a3.15 3.15 0 0 0 .69.33h.11l.19.05h.19a4.19 4.19 0 0 0 .63.07h.61a5.26 5.26 0 0 0 4.69-2.92c.78-1.39.8-3.28 2-3.34h.22c.87.17.6 1.92 1 3.15a4.42 4.42 0 0 0 .73 1.35l.19.21.1.09.11.09.09.08.11.08.09.05a3.34 3.34 0 0 0 1 .39h.1a5.09 5.09 0 0 0 1.27.07 4.33 4.33 0 0 0 3.91-2.7 25.53 25.53 0 0 0 1-3.59 1.21 1.21 0 0 1 .25-.48 2.67 2.67 0 0 0 .63-1.31c.18-.45-.14-.94-.46-.97ZM250.41 210a5.11 5.11 0 0 1-1.11 2 4.21 4.21 0 0 1-3 1.24 2.6 2.6 0 0 1-2.6-1.24l-.07-.13a.91.91 0 0 1-.07-.14l-.05-.12V211.2q0-.21-.09-.39V210c-.09-.93-.1-2.75.39-3.19a5.49 5.49 0 0 1 3.63-.82h.21a6.13 6.13 0 0 1 .86.11l.33.07a7.51 7.51 0 0 1 .83.24l.25.1.27.13h.06l.1.05a1.42 1.42 0 0 1 .52.46c.13.58-.14 1.85-.46 2.85Zm11.39-1a4.78 4.78 0 0 1-2.07 3.13 3.39 3.39 0 0 1-1.48.41 2.7 2.7 0 0 1-2.81-1.27l-.05-.09a.47.47 0 0 0 0-.1.17.17 0 0 0 0-.05l-.06-.14-.07-.18v-.08c0-.03 0 0 0 0a.25.25 0 0 0 0-.07 5.27 5.27 0 0 1-.13-.7 4.84 4.84 0 0 1 .32-2.83 6.11 6.11 0 0 1 3.27-1.53 7.7 7.7 0 0 1 .89-.11h1.01a2.75 2.75 0 0 1 .44.06h.4l.2.08a1.34 1.34 0 0 1 .45.28c.31.41-.05 2.25-.31 3.19Z"/><path fill="#f28f8f" d="m257.69 214.39-4.6 2-1.17-7.6c.23-.51.53-.87 1.05-.91h.22l.14.05.22.22a12 12 0 0 1 1.45 1.84c.44.67.91 1.41 1.37 2.18l.77 1.3ZM249 227c-4.66-.87-8.18-1.61-10.4-5.17a29.49 29.49 0 0 1-2.46-5.74 22.7 22.7 0 0 0 1.55 7.09c1 2.25 3.7 4.35 11 5.47Z"/><path fill="#263238" d="M248.57 209.49a1.32 1.32 0 1 1-1.3-1.41 1.37 1.37 0 0 1 1.3 1.41ZM248.2 203.37l-3.11.88a1.69 1.69 0 0 1 1.16-2 1.57 1.57 0 0 1 1.95 1.12Z"/><path fill="#b16668" d="m247.48 217.14 4.31 1.59a2.42 2.42 0 0 1-3 1.39 2.25 2.25 0 0 1-1.31-2.98Z"/><path fill="#f28f8f" d="M250 220.2a2.72 2.72 0 0 0-2.69-2.42 2.24 2.24 0 0 0 1.43 2.34 2.26 2.26 0 0 0 1.26.08Z"/><path fill="#263238" d="m260.13 204.07-3.21-.58a1.57 1.57 0 0 1 1.84-1.33 1.71 1.71 0 0 1 1.37 1.91ZM258.85 209.16a1.32 1.32 0 1 1-1.17-1.51 1.35 1.35 0 0 1 1.17 1.51Z"/><path fill="#f28f8f" d="M276.52 283.23a22 22 0 0 1 8.47-1c3.22.19 5.76-.69 6.21-.53 1.71.61.63 3.48-3.49 3.95-3.16.4-11.19-2.42-11.19-2.42Z"/><path fill="#ffa8a7" d="M233.65 293.3c7.31 1.08 29 2 30.06 2.21.45.09 2.4.41 2.91.49 1.07.19 2.12.41 3.2.56a8.56 8.56 0 0 0 1.89.14 24 24 0 0 0 4.35-.84 8 8 0 0 1 3.51-.2c1.45.25 2.86.59 4.29.92a5.78 5.78 0 0 0 3.49-.19 9.2 9.2 0 0 0 1.1-.63 6.55 6.55 0 0 1 1.76-.35 2.4 2.4 0 0 0 1.22-.66c.17-.2.22-.55.43-.72a2.17 2.17 0 0 1 1.15-.29 9.07 9.07 0 0 0 1.8-.33c.77-.26 1.88-.82 1.66-1.81-.1-.45-.46-.62-.83-.87-.64-.45-1.33-.88-1.93-1.37-1.4-1.15-3-2.06-4.39-3.2a8.57 8.57 0 0 0-4.3-1.67c-1.64-.26-3.27-.66-4.93-.84-1.36-.16-2.67-.66-4-.33-3.36.8-6.75 2.35-10.25 1.68-5.1-1-27.72-7.1-27.72-7.1l-5.46-20.54s-3.8-18.38-9.59-23.8c-4.18 1.58-8 4.76-9.2 9-1.46 5 .07 9.45 2.94 21.67 2.18 9.27 2.64 10.12 5.15 18.82 2.04 7.16 2.73 8.95 11.69 10.25Z"/><path fill="#4682b4" d="M223.34 233c-4.37 2-9.17 4.74-10.32 11.79s5.49 28.51 5.49 28.51a26.72 26.72 0 0 0 10.06-1.3c6-1.79 7.29-4.51 7.29-4.51s-2-9.31-3.18-13.65-3.52-15.52-9.34-20.84Z"/><path fill="#37474f" d="M300.62 319.56a3.45 3.45 0 0 0 3-.23l50.69-29.27a3.4 3.4 0 0 0 1.68-2.41l5.55-33.09a3.66 3.66 0 0 0 .05-.57 3.47 3.47 0 0 0-1-2.45L307.86 282a2.54 2.54 0 0 0-1.24 1.78Z"/><path fill="#455a64" d="m299.8 319.13.35.2a2.92 2.92 0 0 0 .47.23l6-35.82a2.54 2.54 0 0 1 1.24-1.78l52.68-30.42a3.75 3.75 0 0 0-.71-.53l-52.78 30.47a2.54 2.54 0 0 0-1.24 1.79Z"/><path fill="#263238" d="m307.11 282.64-.82-.48a2.63 2.63 0 0 0-.48 1.11l-6 35.86.35.2a2.92 2.92 0 0 0 .47.23l6-35.82a2.44 2.44 0 0 1 .48-1.1Z"/><path fill="#4682b4" d="M329.17 289c.37-2.22 2.66-5.16 5.11-6.57s4.14-.77 3.76 1.45-2.66 5.16-5.11 6.57-4.13.78-3.76-1.45ZM215 203.81a1.39 1.39 0 0 0-.65-.16l-10.87-.77-.9 13.55 5.94 3.42 11.72-11a1.31 1.31 0 0 0-.18-2.11Z"/><path fill="#fff" d="M215 203.81a1.39 1.39 0 0 0-.65-.16l-10.87-.77-.9 13.55 5.94 3.42 11.72-11a1.31 1.31 0 0 0-.18-2.11Z" opacity=".2"/><path fill="#4682b4" d="M175.83 242.15a3.9 3.9 0 0 0 1.76 3.06l.55.3a4 4 0 0 0 3.23.15c-.83.32-1.46-.16-1.46-1.17v-32.75a3.62 3.62 0 0 1 .51-1.74l-4.07-2.34a3.61 3.61 0 0 0-.52 1.74Z"/><path d="M175.83 242.15a3.9 3.9 0 0 0 1.76 3.06l.55.3a4 4 0 0 0 3.23.15c-.83.32-1.46-.16-1.46-1.17v-32.75a3.62 3.62 0 0 1 .51-1.74l-4.07-2.34a3.61 3.61 0 0 0-.52 1.74Z" opacity=".15"/><path fill="#4682b4" d="M211.56 191.68a1.62 1.62 0 0 0-.79.24l-29.1 16.76a3.52 3.52 0 0 0-1.24 1.32 3.61 3.61 0 0 0-.52 1.74v32.75c0 .81.39 1.27 1 1.27a1.41 1.41 0 0 0 .43-.08h.06a1.77 1.77 0 0 0 .31-.15l5.73-3.32 5.88-3.4 17.64-10.16a2.73 2.73 0 0 0 1.6-2.94v-32.77a2.2 2.2 0 0 0-.06-.5.92.92 0 0 0-.91-.76Z"/><path fill="#4682b4" d="m208.47 205.78 10.87.76a1.3 1.3 0 0 1 .85 2.29l-11.72 11ZM212.47 192.44c-.2-.75-.89-1-1.7-.52l-29.1 16.77a3.49 3.49 0 0 0-1.24 1.31l-4.08-2.34a3.51 3.51 0 0 1 1.25-1.31l29.08-16.77a3.94 3.94 0 0 1 3.54 0l.55.31a3.89 3.89 0 0 1 1.7 2.55Z"/><path fill="#fff" d="M212.47 192.44c-.2-.75-.89-1-1.7-.52l-29.1 16.77a3.49 3.49 0 0 0-1.24 1.31l-4.08-2.34a3.51 3.51 0 0 1 1.25-1.31l29.08-16.77a3.94 3.94 0 0 1 3.54 0l.55.31a3.89 3.89 0 0 1 1.7 2.55Z" opacity=".2"/><path fill="#fff" d="M205 202.87a2.55 2.55 0 0 0-3.34 1.18l-9.12 21.06-2.4-2.11a2.74 2.74 0 0 0-3.65-.05 2.24 2.24 0 0 0 .16 3.35l5.16 4.64a2.88 2.88 0 0 0 1.82.72 4.36 4.36 0 0 0 .51 0 2.35 2.35 0 0 0 1.82-1.36l10.48-24.3a2.43 2.43 0 0 0-1.44-3.13Z"/></svg>